<?xml version="1.0" encoding="UTF-8" standalone="no"?>
<!-- Created with Inkscape (http://www.inkscape.org/) -->

<svg
   width="635mm"
   height="635mm"
   viewBox="0 0 635 635"
   version="1.1"
   id="svg5"
   xml:space="preserve"
   inkscape:version="1.2.2 (732a01da63, 2022-12-09)"
   sodipodi:docname="robotpy-square.svg"
   xmlns:inkscape="http://www.inkscape.org/namespaces/inkscape"
   xmlns:sodipodi="http://sodipodi.sourceforge.net/DTD/sodipodi-0.dtd"
   xmlns="http://www.w3.org/2000/svg"
   xmlns:svg="http://www.w3.org/2000/svg"><sodipodi:namedview
     id="namedview7"
     pagecolor="#ffffff"
     bordercolor="#000000"
     borderopacity="0.25"
     inkscape:showpageshadow="2"
     inkscape:pageopacity="0.0"
     inkscape:pagecheckerboard="0"
     inkscape:deskcolor="#d1d1d1"
     inkscape:document-units="mm"
     showgrid="false"
     inkscape:zoom="0.26110523"
     inkscape:cx="1.9149367"
     inkscape:cy="788.95394"
     inkscape:window-width="1920"
     inkscape:window-height="1009"
     inkscape:window-x="-8"
     inkscape:window-y="-8"
     inkscape:window-maximized="1"
     inkscape:current-layer="layer1" /><defs
     id="defs2" /><g
     inkscape:label="Layer 1"
     inkscape:groupmode="layer"
     id="layer1"><rect
       style="fill:#3497da;stroke-width:0.264583"
       id="rect4032"
       width="563.40631"
       height="561.3797"
       x="35.466225"
       y="37.492867" /><g
       id="g303"><path
         style="fill:#fdfdfd;stroke-width:0.352778"
         d="M 0,317.5 V 0 H 317.5 635 V 317.5 635 H 317.5 0 Z m 399.59605,111.125 c 17.18257,-29.78326 31.40216,-54.55885 31.59904,-55.05686 0.32562,-0.82353 -2.51185,-5.87478 -31.35676,-55.82131 -19.74836,-34.19538 -31.96099,-54.99777 -32.36746,-55.133 -0.35899,-0.11944 -29.11946,-0.0994 -63.91214,0.0445 l -63.25942,0.26163 -31.60243,54.79391 c -17.38134,30.13665 -31.60244,55.04821 -31.60244,55.35901 0,0.40372 53.56394,93.53553 62.43616,108.55797 l 0.78188,1.32387 64.02126,-0.0891 64.02126,-0.0892 z M 244.475,371.475 v -62.44167 h 14.12598 c 16.16587,0 17.69331,0.17182 22.56291,2.53807 6.77854,3.29385 10.75625,9.46512 12.1773,18.89264 0.63018,4.18077 0.72808,23.95839 0.13957,28.19722 -0.82652,5.9532 -3.28265,11.51711 -6.5078,14.74227 -2.9038,2.90378 -7.39837,5.06998 -12.86463,6.20021 -1.11532,0.23061 -7.23719,0.47847 -14.3985,0.58297 l -12.45823,0.18178 -0.32997,0.86791 c -0.19389,0.50997 -0.32996,11.55096 -0.32996,26.77407 v 25.9062 h -1.05834 -1.05833 z m 31.22083,5.35439 c 8.15433,-2.23174 12.55529,-6.7129 14.70309,-14.97101 0.68368,-2.62865 0.77026,-4.06724 0.90429,-15.02444 0.18949,-15.49194 -0.25084,-19.15948 -2.97126,-24.74783 -1.66689,-3.42416 -5.01597,-6.84343 -8.22639,-8.39881 -4.53747,-2.1983 -5.27037,-2.29015 -19.40278,-2.43159 -8.18371,-0.0819 -13.06924,-7e-4 -13.40556,0.22257 -0.46275,0.30733 -0.54092,4.37724 -0.62282,32.4298 -0.0618,21.17505 0.0286,32.40001 0.26612,33.02467 l 0.35978,0.9463 12.78666,-0.13865 c 11.81139,-0.12802 13.00191,-0.19752 15.60887,-0.91101 z m 61.9125,31.82775 v -25.25952 l -14.46389,-37.02127 c -7.95513,-20.36171 -14.46388,-37.09367 -14.46388,-37.18215 0,-0.0885 0.51863,-0.16087 1.15251,-0.16087 1.13222,0 1.17581,0.0606 2.47566,3.43959 0.72774,1.89177 6.85219,17.40958 13.60991,34.48402 11.406,28.81906 12.34597,31.04445 13.11271,31.04445 0.76759,0 1.78542,-2.43039 14.40464,-34.39583 7.46827,-18.91771 13.61384,-34.44606 13.65677,-34.50744 0.043,-0.0614 0.6296,-0.0614 1.30362,0 l 1.22548,0.1116 -14.75867,37.04167 -14.7587,37.04167 -0.0134,25.3118 -0.0133,25.31181 h -1.23472 -1.23473 z m -89.78194,-155.5883 c 5.4594,-1.03 9.83678,-3.43037 13.67441,-7.49845 3.55868,-3.7724 5.56231,-7.83066 7.07225,-14.32456 0.71973,-3.0954 0.74141,-4.10807 0.86493,-40.39305 0.083,-24.38161 -1.5e-4,-38.31311 -0.24108,-40.39306 -1.62893,-14.06233 -8.40832,-22.84252 -20.07405,-25.9985 -3.95348,-1.06955 -12.82437,-1.06781 -16.74669,0.003 -10.87152,2.96877 -17.23553,10.63683 -19.55376,23.56054 -0.57408,3.20052 -0.62657,6.59593 -0.62657,40.53478 0,41.36138 -0.0349,40.69267 2.49037,47.75798 1.6279,4.55467 3.03455,6.80125 6.32908,10.10831 2.20839,2.21679 3.47441,3.15428 5.82083,4.31028 6.17876,3.04408 13.12657,3.81616 20.99028,2.33255 z m -12.60381,-9.1424 c -6.13205,-1.48647 -9.96708,-5.81851 -12.00649,-13.56255 l -0.7897,-2.99861 v -38.80556 c 0,-43.58352 -0.16503,-40.69207 2.65778,-46.56666 2.27207,-4.72843 4.69586,-6.94019 9.09427,-8.29872 2.87521,-0.88807 9.46733,-0.96631 12.60369,-0.14961 5.92736,1.54348 9.87933,6.23216 11.87846,14.09277 l 0.80747,3.175 -0.002,38.1 -0.002,38.1 -0.79712,2.82222 c -2.30311,8.15423 -6.26452,12.63663 -12.45813,14.09655 -2.78218,0.6558 -8.27042,0.65339 -10.98575,-0.005 z m 149.48159,9.1424 c 5.45941,-1.03 9.83678,-3.43037 13.6744,-7.49845 3.55869,-3.7724 5.56232,-7.83066 7.07225,-14.32456 0.71973,-3.0954 0.74143,-4.10807 0.86494,-40.39305 0.083,-24.38161 -1.4e-4,-38.31311 -0.24109,-40.39306 -1.62892,-14.06233 -8.40832,-22.84252 -20.07404,-25.9985 -3.95348,-1.06955 -12.82436,-1.06781 -16.74668,0.003 -10.87152,2.96877 -17.23554,10.63683 -19.55377,23.56054 -0.57408,3.20052 -0.62657,6.59593 -0.62657,40.53478 0,41.36138 -0.0348,40.69267 2.49037,47.75798 1.62789,4.55467 3.03455,6.80125 6.32908,10.10831 2.20838,2.21679 3.4744,3.15428 5.82083,4.31028 6.17876,3.04408 13.12658,3.81616 20.99028,2.33255 z m -12.6038,-9.1424 c -6.13205,-1.48647 -9.9671,-5.81851 -12.00651,-13.56255 l -0.78969,-2.99861 v -38.80556 c 0,-43.58352 -0.16503,-40.69207 2.65779,-46.56666 2.27206,-4.72843 4.69586,-6.94019 9.09426,-8.29872 2.87521,-0.88807 9.46732,-0.96631 12.60369,-0.14961 5.92737,1.54348 9.87933,6.23216 11.87845,14.09277 l 0.80747,3.175 -0.004,38.1 -0.004,38.1 -0.7971,2.82222 c -2.30315,8.15423 -6.26456,12.63663 -12.45814,14.09655 -2.78218,0.6558 -8.27042,0.65339 -10.98575,-0.005 z m -219.33886,7.75754 c 0.21281,-0.55973 0.34405,-11.34112 0.34405,-28.26357 v -27.35866 l 9.26041,0.18282 c 10.16005,0.20057 12.51208,0.53747 16.37629,2.34576 2.80479,1.31252 5.8336,4.14405 7.0144,6.55753 1.9625,4.01119 1.99908,4.37154 2.29139,22.5702 0.14959,9.31333 0.42218,17.56833 0.60575,18.34444 0.68676,2.90353 1.15169,4.26537 1.83669,5.37986 l 0.70469,1.14653 h 4.80773 4.80773 l -0.19345,-0.97014 c -0.10639,-0.53358 -0.63118,-2.16076 -1.16619,-3.61597 l -0.97276,-2.64584 -0.2509,-16.40416 c -0.30025,-19.63125 -0.60171,-21.87124 -3.76408,-27.96962 -2.02134,-3.89801 -6.32522,-7.66349 -10.40145,-9.10027 -0.72761,-0.25646 -1.31751,-0.55347 -1.31091,-0.66001 0.007,-0.10654 1.23693,-0.78616 2.73403,-1.51027 6.3455,-3.06913 10.3323,-8.72825 11.87381,-16.85442 1.22627,-6.46439 1.02999,-23.09101 -0.34093,-28.87934 -1.82765,-7.71677 -6.13811,-13.65837 -11.90972,-16.41654 -5.51777,-2.63686 -9.04397,-3.03175 -27.07203,-3.03175 -10.66305,0 -14.42238,0.10798 -14.73773,0.42333 -0.32612,0.32612 -0.42333,14.97607 -0.42333,63.79398 0,34.85386 0.10583,63.47648 0.23519,63.60583 0.12935,0.12936 2.2764,0.23519 4.77123,0.23519 h 4.53604 z m 0.34405,-91.12665 v -26.50177 h 10.50921 c 8.17732,0 10.95751,0.11676 12.52954,0.52622 5.7852,1.50686 9.17059,5.12603 11.0574,11.821 0.56674,2.01098 0.64662,3.7251 0.64935,13.93472 0.004,12.64281 -0.11807,13.72477 -1.98763,17.70828 -1.93827,4.12992 -5.67132,6.84994 -11.09293,8.08266 -1.74514,0.3968 -5.17211,0.60795 -12.05175,0.74256 l -9.61319,0.1881 z m 166.68723,91.01635 c 6.81177,-1.94183 11.67179,-5.84846 14.54718,-11.69344 3.10596,-6.3137 3.76913,-11.0327 3.53354,-25.14408 -0.15517,-9.29427 -0.22635,-10.17615 -1.08205,-13.40714 -1.9847,-7.49382 -5.50795,-12.35884 -10.90746,-15.06138 -1.55169,-0.77665 -3.041,-1.41208 -3.30957,-1.41208 -1.06215,0 -0.31978,-0.58951 2.36198,-1.8756 4.91958,-2.35928 7.77442,-6.1736 9.55381,-12.76468 0.66867,-2.47688 0.78064,-3.9974 0.91497,-12.42608 0.17493,-10.9755 -0.22352,-14.76036 -2.05345,-19.50551 -2.18097,-5.65545 -5.45883,-9.2086 -10.38368,-11.25576 -5.08785,-2.11492 -6.22684,-2.22841 -24.09266,-2.40056 -12.44101,-0.11988 -16.45389,-0.0558 -16.84513,0.26888 -0.44613,0.37026 -0.5136,8.75492 -0.5136,63.82426 0,34.86891 0.11512,63.51313 0.25582,63.65383 0.14071,0.14071 8.11789,0.19912 17.72709,0.12982 16.92912,-0.12211 17.55882,-0.15099 20.29321,-0.93048 z m -28.04557,-34.96812 v -26.81112 h 9.53988 c 10.80586,0 13.37278,0.33373 17.44762,2.26839 3.41435,1.62107 5.19545,3.28149 6.65981,6.20856 2.23275,4.46301 2.51454,6.55279 2.49602,18.51055 -0.0133,8.60236 -0.12748,11.07237 -0.60985,13.19599 -1.23293,5.42788 -4.13257,9.69982 -7.80264,11.49543 -3.38292,1.6551 -5.83342,1.93053 -17.2357,1.93718 l -10.49514,0.006 z m 0,-59.4117 v -23.1383 h 10.68561 c 11.2769,0 13.04667,0.19318 16.11641,1.75924 2.86581,1.46204 4.97712,4.5181 6.21804,9.00048 0.8642,3.12162 1.12403,18.21814 0.38679,22.47342 -1.18251,6.82535 -4.02306,10.21786 -10.08018,12.0389 -2.04386,0.61447 -3.65046,0.72134 -12.83153,0.85349 l -10.49514,0.15108 z m 158.31005,36.04017 0.0892,-59.17847 h 11.97046 c 6.924,0 12.35195,-0.14505 12.87536,-0.34405 0.89786,-0.34136 0.90491,-0.37527 0.90491,-4.33917 0,-2.63694 -0.14393,-4.13903 -0.42333,-4.41845 -0.32255,-0.32256 -7.496,-0.42333 -30.13364,-0.42333 -16.34067,0 -29.96142,0.0964 -30.26834,0.21413 -0.46566,0.17868 -0.55802,0.91009 -0.55802,4.41845 0,4.18846 0.004,4.20562 0.90491,4.54837 0.52342,0.199 5.95171,0.34405 12.87639,0.34405 h 11.97148 v 59.03148 c 0,32.46731 0.11024,59.14171 0.24493,59.27643 0.13473,0.13472 2.31754,0.20086 4.85069,0.14699 l 4.60577,-0.098 z"
         id="path401" /><path
         style="fill:#f4f8fb;stroke-width:0.352778"
         d="m 244.29714,371.475 10e-4,-62.61806 13.22917,-0.007 13.22916,-0.007 -13.13999,0.0991 -13.14,0.0991 -0.0906,62.52558 -0.0906,62.52556 0.001,-62.61806 z m 2.46206,36.33611 c 0,-14.45507 0.0436,-20.36851 0.0969,-13.14097 0.0533,7.22753 0.0533,19.05441 0,26.28194 -0.0533,7.22754 -0.0969,1.3141 -0.0969,-13.14097 z m 0.001,-63.32361 c 2e-5,-17.65653 0.043,-24.82798 0.0954,-15.93656 0.0525,8.89142 0.0525,23.33767 -4e-5,32.10278 -0.0525,8.76511 -0.0954,1.49031 -0.0954,-16.16622 z m 47.2565,0.52917 c 0,-4.94771 0.0496,-6.97177 0.11026,-4.49792 0.0606,2.47385 0.0606,6.52198 0,8.99583 -0.0606,2.47386 -0.11026,0.4498 -0.11026,-4.49791 z M 253.36005,311.2389 c 3.23755,-0.0582 8.63505,-0.0583 11.99445,-2.4e-4 3.3594,0.058 0.7105,0.10563 -5.88644,0.10576 -6.59695,1.2e-4 -9.34555,-0.0474 -6.10801,-0.10552 z m 84.95384,-48.41946 -29.45695,-0.18247 29.28056,-0.0798 c 18.44619,-0.0502 29.47635,0.0468 29.80972,0.26222 0.29104,0.18809 0.37042,0.30609 0.17639,0.26223 -0.19403,-0.0439 -13.6084,-0.16187 -29.80972,-0.26223 z M 152.92074,223.66111 c 0,-15.23118 0.0434,-21.46212 0.0965,-13.84653 0.0531,7.61559 0.0531,20.07747 0,27.69306 -0.0531,7.61559 -0.0965,1.38465 -0.0965,-13.84653 z m 138.636,19.66736 c -0.0926,-0.24253 -0.12729,-12.42659 -0.0771,-27.07569 l 0.0912,-26.63472 8.81945,-0.009 8.81944,-0.009 -8.73125,0.10334 -8.73125,0.10334 v 26.79919 26.7992 l 9.26042,0.10017 9.26042,0.10016 -9.27149,0.0821 c -7.1536,0.0633 -9.30994,-0.0187 -9.43983,-0.3589 z m -93.48937,-14.37569 c 0,-6.88799 0.0472,-9.7058 0.10501,-6.26181 0.0578,3.444 0.0578,9.07962 0,12.52361 -0.0578,3.444 -0.10501,0.62618 -0.10501,-6.2618 z m 14.12142,-40.39306 c -2e-5,-18.43264 0.0428,-26.02499 0.0951,-16.87188 0.0523,9.1531 0.0523,24.23435 3e-5,33.51388 -0.0523,9.27954 -0.0952,1.79064 -0.0952,-16.642 z m 9.87778,0 c -2e-5,-18.43264 0.0428,-26.02499 0.0951,-16.87188 0.0523,9.1531 0.0523,24.23435 3e-5,33.51388 -0.0523,9.27954 -0.0952,1.79064 -0.0952,-16.642 z m 127,0 c -2e-5,-18.43264 0.0428,-26.02499 0.0951,-16.87188 0.0523,9.1531 0.0523,24.23435 3e-5,33.51388 -0.0523,9.27954 -0.0951,1.79064 -0.0952,-16.642 z m 9.87776,0 c 0,-18.43264 0.0428,-26.02499 0.0952,-16.87188 0.0523,9.1531 0.0523,24.23435 3e-5,33.51388 -0.0523,9.27954 -0.0951,1.79064 -0.0952,-16.642 z m -206.10562,-28.13403 -0.0859,-26.72291 10.31875,0.0826 10.31875,0.0826 -10.14013,0.0992 -10.14014,0.0992 -0.0927,26.54112 -0.0927,26.54112 z m 138.55573,-3.26319 v -23.45972 l 10.49514,0.0827 10.49514,0.0827 -10.31875,0.0991 -10.31875,0.0991 v 23.09535 23.09534 l 8.55486,0.10104 8.55486,0.10104 -8.73125,0.0816 -8.73125,0.0816 z m -93.34102,2.29306 c 0,-3.39549 0.0529,-4.78455 0.11758,-3.08681 0.0647,1.69774 0.0647,4.47587 0,6.17361 -0.0647,1.69774 -0.11758,0.30868 -0.11758,-3.0868 z m 223.75785,-25.66392 c 3.33446,-0.0579 8.89071,-0.058 12.34723,-2.2e-4 3.45651,0.0578 0.72831,0.1052 -6.06267,0.10532 -6.79097,1.2e-4 -9.61901,-0.0472 -6.28456,-0.1051 z m 34.21945,0 c 3.33445,-0.0579 8.8907,-0.058 12.34722,-2.2e-4 3.45652,0.0578 0.72831,0.1052 -6.06266,0.10532 -6.79097,1.2e-4 -9.61902,-0.0472 -6.28456,-0.1051 z m -216.92376,-1.05491 c 1.02516,-0.0715 2.61266,-0.0707 3.52778,0.002 0.91513,0.0724 0.0764,0.1309 -1.86391,0.12998 -1.94027,-0.001 -2.68902,-0.0602 -1.66387,-0.13164 z m 136.87777,0 c 1.02518,-0.0715 2.61268,-0.0707 3.52778,0.002 0.91514,0.0724 0.0764,0.1309 -1.8639,0.12998 -1.94028,-0.001 -2.68901,-0.0602 -1.66388,-0.13164 z m -233.099,-7.01645 c -0.0305,-1.13057 0.93683,-1.19756 15.90508,-1.10146 l 14.95225,0.096 -15.06372,0.0843 c -13.92206,0.0779 -15.09098,0.13105 -15.4233,0.70162 -0.19778,0.33955 -0.36441,0.43837 -0.37031,0.21959 z m 138.64166,0 c -0.0305,-1.13057 0.93684,-1.19756 15.90508,-1.10146 l 14.95225,0.096 -15.06372,0.0843 c -13.92205,0.0779 -15.09097,0.13105 -15.4233,0.70162 -0.19777,0.33955 -0.36441,0.43837 -0.37031,0.21959 z m 193.89609,-0.29058 c -0.18465,-0.48114 -3.60606,-0.55281 -30.2943,-0.63459 l -30.08612,-0.0922 30.03112,-0.0862 c 26.5454,-0.0762 30.08288,-0.0238 30.47736,0.45151 0.24542,0.29573 0.36385,0.62007 0.26313,0.72077 -0.10068,0.10069 -0.27672,-0.061 -0.39119,-0.35932 z m -236.50473,-1.86401 c 0.92163,-0.0727 2.42976,-0.0727 3.35139,0 0.92163,0.0727 0.16757,0.13213 -1.6757,0.13213 -1.84326,0 -2.59732,-0.0594 -1.67569,-0.13213 z m 136.87778,0 c 0.92163,-0.0727 2.42975,-0.0727 3.35139,0 0.92163,0.0727 0.16757,0.13213 -1.6757,0.13213 -1.84326,0 -2.59732,-0.0594 -1.67569,-0.13213 z"
         id="path399" /><path
         style="fill:#eaf3fa;stroke-width:0.352778"
         d="m 272.63699,482.68823 c 17.52639,-0.0506 46.10139,-0.0506 63.5,0 17.39862,0.0506 3.05884,0.092 -31.86616,0.092 -34.925,0 -49.16023,-0.0414 -31.63384,-0.092 z m 64.78902,-48.83831 c -0.0972,-0.25432 -0.13449,-11.6543 -0.0829,-25.33325 l 0.0937,-24.87084 0.0858,25.13542 0.0858,25.13542 h 1.23238 1.23237 l 0.0941,-24.95903 0.0941,-24.95903 -0.004,25.04722 -0.004,25.04723 -1.32575,0.10964 c -0.85306,0.0706 -1.38874,-0.0552 -1.50241,-0.35278 z m -84.72735,-53.46665 c 2.87378,-0.0594 7.47753,-0.0592 10.23056,3.2e-4 2.75303,0.0595 0.40175,0.10809 -5.22505,0.10792 -5.62681,-1.8e-4 -7.87928,-0.0489 -5.00551,-0.10824 z m 0.3312,-2.82218 c 3.05594,-0.0587 8.05656,-0.0587 11.1125,0 3.05594,0.0587 0.55563,0.10678 -5.55625,0.10678 -6.11187,0 -8.61219,-0.048 -5.55625,-0.10678 z m 38.16782,-32.54442 c 0,-5.72382 0.0485,-8.06539 0.10782,-5.20348 0.0593,2.86191 0.0593,7.54504 0,10.40695 -0.0593,2.86191 -0.10782,0.52035 -0.10782,-5.20347 z M 145.97563,252.32734 c 1.22028,-0.0691 3.12528,-0.0685 4.23333,0.001 1.10806,0.0698 0.10965,0.1263 -2.21868,0.12561 -2.32834,-7.1e-4 -3.23493,-0.0578 -2.01465,-0.12688 z m 47.61118,3.5e-4 c 1.21267,-0.0689 3.19704,-0.0689 4.40972,0 1.21267,0.0689 0.22048,0.12525 -2.20486,0.12525 -2.42535,0 -3.41754,-0.0564 -2.20486,-0.12525 z m 96.68508,-0.003 c 4.33031,-0.0562 11.31531,-0.0561 15.52223,1.5e-4 4.20691,0.0562 0.66394,0.10219 -7.87329,0.10211 -8.53722,-8e-5 -11.97924,-0.0461 -7.64894,-0.10226 z m 152.90519,0.004 c 1.11566,-0.07 2.94129,-0.07 4.05695,0 1.11566,0.07 0.20285,0.12729 -2.02847,0.12729 -2.23132,0 -3.14414,-0.0573 -2.02848,-0.12729 z m 6.78688,-59.53505 c 0,-32.40264 0.0415,-45.60604 0.0923,-29.3409 0.0508,16.26515 0.0508,42.7764 0,58.91389 -0.0507,16.13749 -0.0923,2.82964 -0.0923,-29.57299 z M 143.04754,188.5603 c 0,-34.53694 0.0414,-48.61343 0.092,-31.28107 0.0506,17.33235 0.0506,45.58985 -1e-5,62.79444 -0.0506,17.20459 -0.092,3.02358 -0.092,-31.51337 z m 138.64166,0 c 10e-6,-34.53694 0.0414,-48.61343 0.092,-31.28107 0.0506,17.33235 0.0506,45.58985 -1e-5,62.79444 -0.0506,17.20459 -0.092,3.02358 -0.092,-31.51337 z m 158.74976,3.88056 c 0,-32.40264 0.0415,-45.60604 0.0922,-29.34089 0.0508,16.26514 0.0508,42.77639 0,58.91389 -0.0507,16.13749 -0.0922,2.82964 -0.0922,-29.573 z M 188.18915,225.425 c 0,-6.69396 0.0474,-9.4324 0.10542,-6.08542 0.058,3.34698 0.058,8.82386 0,12.17084 -0.058,3.34698 -0.10542,0.60854 -0.10542,-6.08542 z m 149.56851,-8.29028 c 2.9e-4,-4.07458 0.0516,-5.69314 0.11411,-3.5968 0.0625,2.09635 0.0622,5.4301 -3.5e-4,7.40834 -0.0628,1.97824 -0.11388,0.26305 -0.11359,-3.81154 z m -9.52666,-0.52916 c 0,-3.78355 0.0519,-5.33136 0.11533,-3.43959 0.0634,1.89177 0.0634,4.9874 0,6.87917 -0.0634,1.89177 -0.11533,0.34396 -0.11533,-3.43958 z m -68.41704,-27.86945 c 0,-18.91771 0.0428,-26.65677 0.095,-17.19792 0.0522,9.45886 0.0522,24.93698 0,34.39584 -0.0522,9.45885 -0.095,1.71979 -0.095,-17.19792 z m 9.52504,-0.17639 c 10e-6,-19.01472 0.0428,-26.74171 0.095,-17.17109 0.0522,9.57062 0.0522,25.12812 -4e-5,34.57222 -0.0522,9.4441 -0.0949,1.61359 -0.0949,-17.40113 z m 127.35273,0.17639 c 0,-18.91771 0.0428,-26.65677 0.095,-17.19792 0.0522,9.45886 0.0522,24.93698 0,34.39584 -0.0523,9.45885 -0.095,1.71979 -0.095,-17.19792 z m 9.52504,-0.17639 c 3e-5,-19.01472 0.0428,-26.74171 0.095,-17.17109 0.0522,9.57062 0.0522,25.12812 -4e-5,34.57222 -0.0522,9.4441 -0.0949,1.61359 -0.0949,-17.40113 z M 156.3492,195.8814 c 2.07504,-0.0623 5.56754,-0.0625 7.76111,-3.6e-4 2.19357,0.062 0.4958,0.11294 -3.77281,0.11321 -4.26861,2.6e-4 -6.06335,-0.0505 -3.9883,-0.11272 z m 0.35278,-8.81945 c 2.07504,-0.0623 5.56754,-0.0625 7.76111,-3.5e-4 2.19356,0.062 0.4958,0.11294 -3.77281,0.1132 -4.26861,2.7e-4 -6.06335,-0.0505 -3.9883,-0.11271 z m 31.48299,-26.37167 c -1.9e-4,-5.23875 0.0489,-7.43105 0.1091,-4.87179 0.0602,2.55927 0.0603,6.84552 3.5e-4,9.525 -0.06,2.67949 -0.10926,0.58554 -0.10945,-4.65321 z m 137.57824,-3.52778 c 2.9e-4,-4.07458 0.0516,-5.69314 0.11412,-3.5968 0.0625,2.09634 0.0622,5.43009 -3.5e-4,7.40833 -0.0628,1.97824 -0.11389,0.26305 -0.1136,-3.81153 z m 9.52552,-1.23472 c 0,-4.1716 0.051,-5.87816 0.11341,-3.79236 0.0624,2.0858 0.0624,5.49892 0,7.58472 -0.0624,2.0858 -0.11341,0.37923 -0.11341,-3.79236 z m 79.35713,-26.63472 c 0,-2.13431 0.0589,-2.96195 0.12912,-1.83921 0.0702,1.12275 0.0696,2.869 0,3.88056 -0.071,1.01156 -0.12848,0.093 -0.12767,-2.04135 z m 61.02576,-0.17639 c 0,-1.84327 0.0594,-2.59733 0.13212,-1.6757 0.0727,0.92163 0.0727,2.42976 0,3.35139 -0.0727,0.92163 -0.13212,0.16757 -0.13212,-1.67569 z"
         id="path397" /><path
         style="fill:#dcecf8;stroke-width:0.352778"
         d="m 243.90651,429.50694 c 7.1e-4,-2.52236 0.0568,-3.50795 0.12487,-2.19018 0.0681,1.31777 0.0676,3.38152 -0.001,4.58611 -0.0687,1.2046 -0.12436,0.12644 -0.12374,-2.39593 z m 14.59141,-166.59922 c 9.36184,-0.0523 24.68121,-0.0523 34.04305,0 9.36184,0.0523 1.70216,0.0951 -17.02153,0.0951 -18.72368,0 -26.38336,-0.0428 -17.02152,-0.0951 z M 152.56796,223.66111 c 0,-15.23118 0.0434,-21.46212 0.0965,-13.84653 0.0531,7.61559 0.0531,20.07747 0,27.69306 -0.0531,7.61559 -0.0965,1.38465 -0.0965,-13.84653 z m 138.64146,-7.05555 c 0,-14.84313 0.0435,-20.91532 0.0967,-13.49375 0.0532,7.42156 0.0532,19.56593 0,26.9875 -0.0532,7.42156 -0.0967,1.34937 -0.0967,-13.49375 z m -93.49598,11.1125 c -1.3e-4,-6.40292 0.0476,-9.07207 0.10596,-5.93144 0.0584,3.14063 0.0585,8.37938 2.4e-4,11.64167 -0.0583,3.26229 -0.10606,0.69268 -0.1062,-5.71023 z m 14.8282,-39.15834 c 2e-5,-18.62666 0.0428,-26.19493 0.0951,-16.81836 0.0523,9.37656 0.0523,24.61656 -3e-5,33.86666 -0.0523,9.2501 -0.0951,1.57837 -0.0951,-17.0483 z m 136.87778,0 c 2e-5,-18.62666 0.0428,-26.19493 0.0951,-16.81836 0.0523,9.37656 0.0523,24.61656 -4e-5,33.86666 -0.0523,9.2501 -0.0951,1.57837 -0.0951,-17.0483 z M 152.56765,160.51389 c 0,-14.6491 0.0436,-20.64191 0.0968,-13.31736 0.0533,7.32455 0.0533,19.31017 0,26.63472 -0.0532,7.32455 -0.0968,1.33174 -0.0968,-13.31736 z m 142.61916,20.19798 c 1.98878,-0.0629 5.24316,-0.0629 7.23194,0 1.98878,0.0629 0.3616,0.11433 -3.61597,0.11433 -3.97757,0 -5.60476,-0.0514 -3.61597,-0.11433 z m -3.97866,-23.54937 c 3e-5,-12.80583 0.0441,-17.99335 0.098,-11.52781 0.0538,6.46554 0.0538,16.94304 -7e-5,23.28333 -0.0539,6.3403 -0.0979,1.05031 -0.0979,-11.75552 z m -93.50616,2.29306 c 0,-3.58952 0.0524,-5.05796 0.11641,-3.2632 0.064,1.79476 0.064,4.73163 0,6.52639 -0.064,1.79476 -0.11641,0.32632 -0.11641,-3.26319 z m -40.09852,-26.01645 c 2.57087,-0.0603 6.77775,-0.0603 9.34861,0 2.57087,0.0603 0.46743,0.1096 -4.6743,0.1096 -5.14174,0 -7.24518,-0.0493 -4.67431,-0.1096 z m 138.64167,0 c 2.57087,-0.0603 6.77774,-0.0603 9.34861,0 2.57087,0.0603 0.46743,0.1096 -4.67431,0.1096 -5.14173,0 -7.24517,-0.0493 -4.6743,-0.1096 z m 125.56613,-2.5e-4 c 3.33446,-0.0579 8.89071,-0.058 12.34723,-2.2e-4 3.45651,0.0578 0.72831,0.1052 -6.06267,0.10532 -6.79097,1.2e-4 -9.61901,-0.0472 -6.28456,-0.1051 z m 34.21945,0 c 3.33445,-0.0579 8.8907,-0.058 12.34722,-2.2e-4 3.45652,0.0578 0.72831,0.1052 -6.06266,0.10532 -6.79097,1.2e-4 -9.61902,-0.0472 -6.28456,-0.1051 z"
         id="path395" /><path
         style="fill:#daeaf5;stroke-width:0.352778"
         d="m 247.11204,407.63472 c -3e-5,-14.55208 0.0435,-20.55664 0.0968,-13.34343 0.0533,7.21318 0.0533,19.11943 6e-5,26.45833 -0.0533,7.33888 -0.0969,1.43719 -0.0969,-13.1149 z m -3.17035,-40.56944 c 1e-5,-32.01459 0.0416,-45.05925 0.0923,-28.98813 0.0508,16.0711 0.0508,42.26485 -2e-5,58.20832 -0.0508,15.94348 -0.0923,2.79439 -0.0923,-29.22019 z m 3.17185,-22.40139 c 0,-17.75354 0.0429,-25.01636 0.0954,-16.13958 0.0525,8.87677 0.0525,23.40239 0,32.27916 -0.0525,8.87677 -0.0954,1.61396 -0.0954,-16.13958 z m 76.64827,-81.75614 c 8.00364,-0.0529 21.10052,-0.0529 29.10416,0 8.00365,0.0529 1.45521,0.0961 -14.55208,0.0961 -16.00729,0 -22.55573,-0.0433 -14.55208,-0.0961 z"
         id="path393" /><path
         style="fill:#d0e6f4;stroke-width:0.352778"
         d="m 294.36839,345.01667 c 0,-4.55966 0.0503,-6.42497 0.11172,-4.14514 0.0614,2.27982 0.0614,6.01045 0,8.29028 -0.0615,2.27982 -0.11172,0.41451 -0.11172,-4.14514 z m -43.43212,-36.6003 c 3.65071,-0.0574 9.52446,-0.0573 13.05277,2e-4 3.52832,0.0575 0.54138,0.10445 -6.63765,0.10434 -7.17903,-1.1e-4 -10.06583,-0.0471 -6.41512,-0.10454 z m 40.33567,-64.55873 c -0.0903,-0.14552 2.55941,-0.22383 5.8882,-0.17401 11.30421,0.16917 12.42647,0.29196 3.33915,0.36538 -4.98476,0.0403 -9.13707,-0.0459 -9.22735,-0.19137 z m -69.55825,-55.12153 c 0,-18.1416 0.0429,-25.56316 0.0952,-16.49236 0.0524,9.0708 0.0524,23.91392 0,32.98472 -0.0524,9.0708 -0.0952,1.64924 -0.0952,-16.49236 z m 136.87776,0 c 0,-18.1416 0.0429,-25.56316 0.0953,-16.49236 0.0524,9.0708 0.0524,23.91392 0,32.98472 -0.0524,9.0708 -0.0953,1.64924 -0.0953,-16.49236 z m -67.24403,0.61095 c 0.14934,-0.14906 4.15008,-0.22821 8.89052,-0.17591 l 8.619,0.0951 -8.89052,0.1759 c -4.88979,0.0968 -8.76834,0.054 -8.619,-0.0951 z M 151.25347,124.97195 c 3.92906,-0.0568 10.35844,-0.0568 14.2875,0 3.92906,0.0568 0.71438,0.10322 -7.14375,0.10322 -7.85812,0 -11.07281,-0.0464 -7.14375,-0.10322 z m 138.84168,-9e-5 c 4.03907,-0.0566 10.54782,-0.0566 14.46389,1.7e-4 3.91607,0.0567 0.61138,0.10307 -7.34376,0.10298 -7.95514,-9e-5 -11.1592,-0.0465 -7.12013,-0.10315 z m 140.38193,-2.3e-4 c 8.10066,-0.0528 21.35629,-0.0528 29.45695,0 8.10066,0.0528 1.47285,0.096 -14.72847,0.096 -16.20132,0 -22.82914,-0.0432 -14.72848,-0.096 z m -191.20555,-1.05084 c 0.7276,-0.0761 1.91823,-0.0761 2.64583,0 0.72761,0.0761 0.13229,0.13838 -1.32292,0.13838 -1.4552,0 -2.05052,-0.0623 -1.32291,-0.13838 z m 136.87778,0 c 0.7276,-0.0761 1.91822,-0.0761 2.64583,0 0.7276,0.0761 0.13229,0.13838 -1.32292,0.13838 -1.45521,0 -2.05052,-0.0623 -1.32291,-0.13838 z"
         id="path391" /><path
         style="fill:#c6e1f3;stroke-width:0.352778"
         d="m 253.55903,311.59168 c 2.95892,-0.059 7.8008,-0.059 10.75972,0 2.95892,0.059 0.53799,0.10728 -5.37986,0.10728 -5.91785,0 -8.33879,-0.0483 -5.37986,-0.10728 z M 143.40032,188.73611 c 0,-34.63396 0.0414,-48.80239 0.092,-31.48542 0.0506,17.31698 0.0506,45.65386 0,62.97084 -0.0506,17.31698 -0.092,3.14854 -0.092,-31.48542 z m 138.64167,0 c 0,-34.63396 0.0414,-48.80239 0.092,-31.48542 0.0506,17.31698 0.0506,45.65386 0,62.97084 -0.0506,17.31698 -0.092,3.14854 -0.092,-31.48542 z m 158.74975,4.05695 c 0,-32.40264 0.0415,-45.60604 0.0922,-29.3409 0.0508,16.26515 0.0508,42.7764 0,58.91389 -0.0507,16.13749 -0.0922,2.82964 -0.0922,-29.57299 z m -252.25027,33.69027 c 0,-6.49993 0.0476,-9.15899 0.10585,-5.90902 0.0582,3.24996 0.0582,8.56809 0,11.81805 -0.0582,3.24997 -0.10585,0.5909 -0.10585,-5.90903 z m 148.86442,-9.34861 c 2.6e-4,-4.26861 0.0512,-5.96637 0.1132,-3.77281 0.062,2.19357 0.0618,5.68607 -3.5e-4,7.76111 -0.0623,2.07505 -0.11299,0.28031 -0.11272,-3.9883 z m -68.41957,-28.39861 c 0,-19.30576 0.0427,-27.20358 0.0949,-17.55069 0.0522,9.65288 0.0522,25.4485 0,35.10139 -0.0522,9.65288 -0.0949,1.75507 -0.0949,-17.5507 z m 136.87778,0 c 0,-19.30576 0.0427,-27.20358 0.0949,-17.55069 0.0522,9.65288 0.0522,25.4485 0,35.10139 -0.0522,9.65288 -0.0949,1.75507 -0.0949,-17.5507 z m -250.02452,6.79309 c 1.60073,-0.0654 4.22011,-0.0654 5.82084,0 1.60073,0.0654 0.29104,0.11885 -2.91042,0.11885 -3.20146,0 -4.51115,-0.0535 -2.91042,-0.11885 z m 32.69502,-34.83892 c 2.5e-4,-4.46264 0.0508,-6.23962 0.11235,-3.94885 0.0615,2.29077 0.0613,5.94202 -3.5e-4,8.11389 -0.0618,2.17187 -0.11215,0.2976 -0.1119,-4.16504 z m 137.57642,-3.52778 c -3.6e-4,-3.29847 0.0526,-4.69533 0.11783,-3.10413 0.0652,1.5912 0.0655,4.28995 7e-4,5.99723 -0.0648,1.70726 -0.11816,0.40537 -0.11857,-2.8931 z M 475.3205,129.29306 c 0,-1.94028 0.0602,-2.68902 0.13166,-1.66387 0.0715,1.02515 0.0707,2.61265 0,3.52777 -0.0724,0.91513 -0.13092,0.0764 -0.13,-1.8639 z"
         id="path389" /><path
         style="fill:#c3def0;stroke-width:0.352778"
         d="m 337.06997,408.86944 c 0,-13.87298 0.0438,-19.54829 0.0972,-12.6118 0.0535,6.93649 0.0535,18.28712 0,25.22361 -0.0535,6.93649 -0.0972,1.26118 -0.0972,-12.61181 z m 3.52778,0 c 0,-13.87298 0.0438,-19.54829 0.0972,-12.6118 0.0535,6.93649 0.0535,18.28712 0,25.22361 -0.0535,6.93649 -0.0972,1.26118 -0.0972,-12.61181 z"
         id="path387" /><path
         style="fill:#b7d9f0;stroke-width:0.352778"
         d="m 272.81337,482.33545 c 17.42937,-0.0506 45.84562,-0.0506 63.14723,0 17.30161,0.0506 3.04121,0.092 -31.68977,0.092 -34.73097,-4e-5 -48.88683,-0.0414 -31.45746,-0.092 z M 145.96181,251.97603 c 1.01864,-0.0713 2.68552,-0.0713 3.70416,0 1.01865,0.0713 0.18521,0.12957 -1.85208,0.12957 -2.03729,0 -2.87073,-0.0583 -1.85208,-0.12957 z m 47.80138,-7.1e-4 c 1.11566,-0.07 2.94129,-0.07 4.05695,0 1.11566,0.07 0.20285,0.12729 -2.02847,0.12729 -2.23132,0 -3.14414,-0.0573 -2.02848,-0.12729 z m 96.48473,-0.004 c 4.12309,-0.0564 10.86996,-0.0564 14.99305,0 4.12309,0.0564 0.74966,0.10261 -7.49653,0.10261 -8.24618,0 -11.61961,-0.0462 -7.49652,-0.10261 z m 153.10555,0.004 c 1.01865,-0.0713 2.68552,-0.0713 3.70417,0 1.01864,0.0713 0.18521,0.12957 -1.85208,0.12957 -2.0373,0 -2.87073,-0.0583 -1.85209,-0.12957 z m 6.25772,-59.53564 c 0,-32.40264 0.0415,-45.60604 0.0922,-29.34089 0.0508,16.26514 0.0508,42.77639 0,58.91389 -0.0507,16.13749 -0.0922,2.82964 -0.0922,-29.573 z m -121.02576,24.34166 c 2.9e-4,-4.07458 0.0516,-5.69314 0.11412,-3.59679 0.0625,2.09634 0.0623,5.43009 -3.5e-4,7.40833 -0.0628,1.97824 -0.11389,0.26305 -0.1136,-3.81154 z m -68.41862,-28.04583 c 0,-19.11173 0.0427,-26.93017 0.0949,-17.3743 0.0522,9.55586 0.0522,25.19274 0,34.74861 -0.0522,9.55586 -0.0949,1.73743 -0.0949,-17.37431 z m 136.87777,0 c 0,-19.11173 0.0427,-26.93017 0.0949,-17.3743 0.0522,9.55586 0.0522,25.19274 0,34.74861 -0.0522,9.55586 -0.0949,1.73743 -0.0949,-17.37431 z m -240.30315,-1.32195 c 2.29077,-0.0615 5.94202,-0.0613 8.11389,3.5e-4 2.17187,0.0618 0.2976,0.11215 -4.16504,0.1119 -4.46264,-2.5e-4 -6.23962,-0.0508 -3.94885,-0.11235 z m 178.19111,-31.48638 c 0,-3.58952 0.0524,-5.05795 0.11642,-3.2632 0.064,1.79476 0.064,4.73164 0,6.52639 -0.064,1.79476 -0.11642,0.32632 -0.11642,-3.26319 z m 80.0613,-26.81111 c 0,-1.84327 0.0595,-2.59733 0.13212,-1.6757 0.0727,0.92163 0.0727,2.42976 0,3.35139 -0.0727,0.92163 -0.13212,0.16757 -0.13212,-1.67569 z"
         id="path385" /><path
         style="fill:#b6d4e8;stroke-width:0.352778"
         d="m 253.02986,380.73616 c 2.86191,-0.0593 7.54504,-0.0593 10.40695,0 2.86191,0.0593 0.52034,0.10784 -5.20348,0.10784 -5.72382,0 -8.06538,-0.0485 -5.20347,-0.10784 z m 0,-3.52778 c 2.86191,-0.0593 7.54504,-0.0593 10.40695,0 2.86191,0.0593 0.52034,0.10784 -5.20348,0.10784 -5.72382,0 -8.06538,-0.0485 -5.20347,-0.10784 z m 37.81273,-32.3681 c 2.1e-4,-5.04472 0.0498,-7.05942 0.11011,-4.47709 0.0604,2.58231 0.0602,6.70981 -3.5e-4,9.17222 -0.0606,2.4624 -0.10994,0.34959 -0.10974,-4.69513 z"
         id="path383" /><path
         style="fill:#a8d2ed;stroke-width:0.352778"
         d="m 243.58919,371.475 c 0,-34.43993 0.0414,-48.52899 0.092,-31.30903 0.0506,17.21997 0.0506,45.39809 0,62.61806 -0.0506,17.21996 -0.092,3.1309 -0.092,-31.30903 z m 14.73234,-108.21451 c 9.45885,-0.0522 24.93698,-0.0522 34.39583,0 9.45886,0.0523 1.71979,0.095 -17.19792,0.095 -18.9177,0 -26.65677,-0.0427 -17.19791,-0.095 z M 152.21518,223.66111 c 0,-15.23118 0.0434,-21.46212 0.0965,-13.84653 0.0531,7.61559 0.0531,20.07747 0,27.69306 -0.0531,7.61559 -0.0965,1.38465 -0.0965,-13.84653 z m 138.64157,-7.05555 c 0,-15.03716 0.0435,-21.18872 0.0966,-13.67014 0.0531,7.51857 0.0531,19.8217 0,27.34027 -0.0531,7.51858 -0.0966,1.36702 -0.0966,-13.67013 z m -93.49561,11.1125 c 1.3e-4,-6.59695 0.0477,-9.24585 0.10575,-5.88645 0.058,3.3594 0.0579,8.7569 -2.3e-4,11.99445 -0.0582,3.23754 -0.10565,0.48894 -0.10552,-6.108 z m 15.53331,-38.98195 c 0,-18.72368 0.0428,-26.38337 0.095,-17.02153 0.0523,9.36184 0.0523,24.68122 0,34.04306 -0.0523,9.36184 -0.095,1.70215 -0.095,-17.02153 z m 136.87778,0 c 0,-18.72368 0.0428,-26.38337 0.0951,-17.02153 0.0523,9.36184 0.0523,24.68122 0,34.04306 -0.0523,9.36184 -0.0951,1.70215 -0.0951,-17.02153 z M 152.21492,160.3375 c 3e-5,-14.74611 0.0436,-20.72717 0.0968,-13.29124 0.0532,7.43593 0.0532,19.50093 -5e-5,26.81111 -0.0532,7.31018 -0.0968,1.22624 -0.0967,-13.51987 z m 142.7955,20.72703 c 2.0858,-0.0624 5.49892,-0.0624 7.58472,0 2.0858,0.0624 0.37923,0.1134 -3.79236,0.1134 -4.1716,0 -5.87816,-0.051 -3.79236,-0.1134 z m -4.15491,-23.90203 c 3e-5,-12.99986 0.0441,-18.26673 0.0978,-11.70415 0.0538,6.56258 0.0537,17.19883 -7e-5,23.63611 -0.0538,6.43728 -0.0978,1.0679 -0.0978,-11.93196 z m -93.50507,2.29306 c 0,-3.78355 0.0519,-5.33136 0.11533,-3.43959 0.0634,1.89177 0.0634,4.9874 0,6.87917 -0.0634,1.89177 -0.11533,0.34396 -0.11533,-3.43958 z m -39.92336,-26.36929 c 2.66789,-0.0599 7.03351,-0.0599 9.70139,0 2.66788,0.0599 0.48507,0.10897 -4.85069,0.10897 -5.33577,0 -7.51858,-0.049 -4.8507,-0.10897 z m 138.64167,0 c 2.66788,-0.0599 7.03351,-0.0599 9.70139,0 2.66788,0.0599 0.48507,0.10897 -4.8507,0.10897 -5.33576,0 -7.51857,-0.049 -4.85069,-0.10897 z m 125.74252,-1.9e-4 c 3.33446,-0.0579 8.89071,-0.058 12.34723,-2.2e-4 3.45651,0.0578 0.72831,0.10521 -6.06267,0.10533 -6.79097,1.2e-4 -9.61901,-0.0472 -6.28456,-0.10511 z m 34.21945,0 c 3.33445,-0.0579 8.8907,-0.058 12.34722,-2.2e-4 3.45652,0.0578 0.72831,0.10521 -6.06266,0.10533 -6.79097,1.2e-4 -9.61902,-0.0472 -6.28456,-0.10511 z"
         id="path381" /><path
         style="fill:#a4cce7;stroke-width:0.352778"
         d="m 247.46189,414.69028 c -5e-5,-10.67153 0.0448,-15.0881 0.0996,-9.81456 0.0548,5.27353 0.0549,14.00478 1e-4,19.40278 -0.0548,5.39799 -0.0997,1.08331 -0.0997,-9.58822 z m 76.4763,-151.42975 c 7.90664,-0.0529 20.84476,-0.0529 28.75139,0 7.90664,0.0529 1.43757,0.0962 -14.37569,0.0962 -15.81326,0 -22.28233,-0.0433 -14.3757,-0.0962 z"
         id="path379" /><path
         style="fill:#98c9ea;stroke-width:0.352778"
         d="m 250.93627,308.0636 c 3.65071,-0.0574 9.52446,-0.0573 13.05277,1.9e-4 3.52832,0.0575 0.54138,0.10445 -6.63765,0.10434 -7.17903,-1.1e-4 -10.06583,-0.0472 -6.41512,-0.10453 z m 44.95609,-63.85227 c 2.57087,-0.0603 6.77774,-0.0603 9.34861,0 2.57087,0.0603 0.46743,0.1096 -4.6743,0.1096 -5.14174,0 -7.24518,-0.0493 -4.67431,-0.1096 z m -74.53142,-55.65161 c 2e-5,-18.23861 0.0429,-25.64815 0.0952,-16.46564 0.0524,9.18251 0.0524,24.10501 -3e-5,33.16111 -0.0524,9.0561 -0.0952,1.54314 -0.0952,-16.69547 z m 136.87777,0 c 3e-5,-18.23861 0.0429,-25.64815 0.0952,-16.46564 0.0523,9.18251 0.0523,24.10501 -4e-5,33.16111 -0.0524,9.0561 -0.0952,1.54314 -0.0952,-16.69547 z m -62.52274,0.26557 c 2.47386,-0.0606 6.52198,-0.0606 8.99584,0 2.47385,0.0606 0.44979,0.11026 -4.49792,0.11026 -4.94771,0 -6.97177,-0.0496 -4.49792,-0.11026 z m -144.4625,-63.50056 c 3.92906,-0.0568 10.35844,-0.0568 14.2875,0 3.92906,0.0568 0.71438,0.10322 -7.14375,0.10322 -7.85812,0 -11.07281,-0.0464 -7.14375,-0.10322 z m 138.84168,-9e-5 c 4.03907,-0.0566 10.54782,-0.0566 14.46389,1.6e-4 3.91607,0.0567 0.61138,0.10308 -7.34376,0.10299 -7.95514,-1e-4 -11.1592,-0.0465 -7.12013,-0.10315 z m 140.38193,-2.3e-4 c 8.10066,-0.0528 21.35629,-0.0528 29.45695,0 8.10066,0.0528 1.47285,0.0961 -14.72847,0.0961 -16.20132,0 -22.82914,-0.0432 -14.72848,-0.0961 z m -191.20555,-1.05084 c 0.7276,-0.0761 1.91823,-0.0761 2.64583,0 0.72761,0.0761 0.13229,0.13838 -1.32292,0.13838 -1.4552,0 -2.05052,-0.0623 -1.32291,-0.13838 z m 136.87778,0 c 0.7276,-0.0761 1.91822,-0.0761 2.64583,0 0.7276,0.0761 0.13229,0.13838 -1.32292,0.13838 -1.45521,0 -2.05052,-0.0623 -1.32291,-0.13838 z"
         id="path377" /><path
         style="fill:#a3c5dd;stroke-width:0.352778"
         d="m 247.44546,388.58472 c -3.2e-4,-3.88055 0.0512,-5.51617 0.11453,-3.63474 0.0633,1.88144 0.0636,5.05644 7.1e-4,7.05556 -0.063,1.99912 -0.1148,0.45974 -0.11511,-3.42082 z m 0.0208,-44.09722 c 2e-5,-17.65653 0.043,-24.82798 0.0955,-15.93656 0.0525,8.89142 0.0525,23.33767 -4e-5,32.10278 -0.0525,8.76511 -0.0954,1.49031 -0.0954,-16.16622 z"
         id="path375" /><path
         style="fill:#98c1dd;stroke-width:0.352778"
         d="m 294.722,345.01667 c 0,-4.75368 0.0499,-6.69837 0.11097,-4.32153 0.061,2.37684 0.061,6.26621 0,8.64305 -0.061,2.37684 -0.11097,0.43216 -0.11097,-4.32152 z"
         id="path373" /><path
         style="fill:#89c2e8;stroke-width:0.352778"
         d="m 336.71204,418.57083 c 8e-5,-8.53722 0.0461,-11.97924 0.10225,-7.64892 0.0562,4.33031 0.0561,11.31531 -1.4e-4,15.52222 -0.0562,4.20691 -0.10219,0.66393 -0.10211,-7.8733 z m 4.23512,-2.46944 c -6e-5,-9.89542 0.0451,-13.99434 0.10043,-9.10869 0.0553,4.88566 0.0553,12.98191 1.1e-4,17.99167 -0.0552,5.00976 -0.10048,1.01244 -0.10054,-8.88298 z M 143.75309,188.55972 c 1e-5,-34.53694 0.0414,-48.61343 0.092,-31.28107 0.0506,17.33235 0.0506,45.58985 -1e-5,62.79444 -0.0506,17.20459 -0.092,3.02358 -0.092,-31.51337 z m 138.64167,0 c 10e-6,-34.53694 0.0414,-48.61343 0.092,-31.28107 0.0506,17.33235 0.0506,45.58985 -1e-5,62.79444 -0.0506,17.20459 -0.092,3.02358 -0.092,-31.51337 z m 158.74976,3.88056 c 0,-32.40264 0.0415,-45.60604 0.0922,-29.34089 0.0508,16.26514 0.0508,42.77639 0,58.91389 -0.0507,16.13749 -0.0922,2.82964 -0.0922,-29.573 z m -252.25028,33.69028 c 0,-6.49993 0.0476,-9.159 0.10585,-5.90903 0.0582,3.24996 0.0582,8.56809 0,11.81805 -0.0582,3.24997 -0.10585,0.59091 -0.10585,-5.90902 z m 148.15887,-8.99584 c 2.7e-4,-4.26861 0.0512,-5.96637 0.1132,-3.77281 0.062,2.19357 0.0618,5.68607 -3.5e-4,7.76111 -0.0623,2.07505 -0.11298,0.28031 -0.11272,-3.9883 z m -68.4196,-28.575 c 2e-5,-19.20875 0.0427,-27.0151 0.0949,-17.34745 0.0522,9.66765 0.0522,25.3839 -3e-5,34.925 -0.0522,9.5411 -0.0949,1.6312 -0.0949,-17.57755 z m 136.87777,0 c 4e-5,-19.20875 0.0427,-27.0151 0.0949,-17.34745 0.0522,9.66765 0.0522,25.3839 -4e-5,34.925 -0.0522,9.5411 -0.0949,1.6312 -0.0949,-17.57755 z m -249.84809,6.6165 c 1.69775,-0.0647 4.47587,-0.0647 6.17362,0 1.69774,0.0647 0.30868,0.11758 -3.08681,0.11758 -3.39549,0 -4.78455,-0.0529 -3.08681,-0.11758 z m 33.22506,-34.48594 c 2.3e-4,-4.65667 0.0504,-6.51288 0.11155,-4.12491 0.0611,2.38797 0.0609,6.19797 -3.5e-4,8.46667 -0.0614,2.2687 -0.11143,0.3149 -0.1112,-4.34176 z m 137.57628,-3.35139 c 0,-3.39549 0.0529,-4.78455 0.11758,-3.08681 0.0647,1.69775 0.0647,4.47587 0,6.17361 -0.0647,1.69775 -0.11758,0.30868 -0.11758,-3.0868 z m 148.50154,-28.22222 c 0,-1.84327 0.0594,-2.59733 0.13211,-1.6757 0.0727,0.92163 0.0727,2.42976 0,3.35139 -0.0727,0.92163 -0.13211,0.16757 -0.13211,-1.67569 z"
         id="path371" /><path
         style="fill:#83bee5;stroke-width:0.352778"
         d="m 336.70508,393.52361 c 1.8e-4,-5.43278 0.0491,-7.60599 0.10883,-4.82935 0.0597,2.77664 0.0595,7.22164 -3.3e-4,9.87778 -0.0598,2.65613 -0.10868,0.38435 -0.1085,-5.04843 z m 4.22705,-2.29305 c 0,-3.97757 0.0515,-5.60476 0.11433,-3.61598 0.0629,1.98879 0.0629,5.24316 0,7.23195 -0.0629,1.98878 -0.11433,0.3616 -0.11433,-3.61597 z"
         id="path369" /><path
         style="fill:#8bb9d9;stroke-width:0.352778"
         d="m 253.55903,311.94446 c 2.95892,-0.059 7.8008,-0.059 10.75972,0 2.95892,0.059 0.53799,0.10728 -5.37986,0.10728 -5.91785,0 -8.33879,-0.0483 -5.37986,-0.10728 z"
         id="path367" /><path
         style="fill:#77b9e5;stroke-width:0.352778"
         d="m 272.81337,481.98267 c 17.42937,-0.0506 45.84562,-0.0506 63.14723,0 17.30161,0.0506 3.04121,0.092 -31.68977,0.092 -34.73097,-4e-5 -48.88683,-0.0414 -31.45746,-0.092 z M 146.32641,251.62284 c 1.02515,-0.0715 2.61265,-0.0707 3.52778,0.002 0.91512,0.0724 0.0764,0.13089 -1.86391,0.12997 -1.94028,-0.001 -2.68902,-0.0602 -1.66387,-0.13164 z m 47.61317,3.5e-4 c 1.01865,-0.0713 2.68552,-0.0713 3.70417,0 1.01865,0.0713 0.18521,0.12957 -1.85208,0.12957 -2.0373,0 -2.87073,-0.0583 -1.85209,-0.12957 z m 96.48473,-0.004 c 4.02607,-0.0566 10.6142,-0.0566 14.64027,0 4.02608,0.0566 0.73202,0.10292 -7.32014,0.10292 -8.05215,0 -11.34621,-0.0463 -7.32013,-0.10292 z m 153.29376,0.004 c 1.02517,-0.0715 2.61267,-0.0707 3.52778,0.002 0.91514,0.0724 0.0764,0.1309 -1.86391,0.12998 -1.94027,-0.001 -2.68901,-0.0602 -1.66387,-0.13165 z m 5.54034,-59.18253 c 0,-32.40264 0.0415,-45.60604 0.0922,-29.34089 0.0508,16.26514 0.0508,42.77639 0,58.91389 -0.0507,16.13749 -0.0922,2.82964 -0.0922,-29.573 z m -120.3202,24.34166 c 2.9e-4,-4.07458 0.0516,-5.69314 0.11412,-3.59679 0.0625,2.09634 0.0622,5.43009 -3.5e-4,7.40833 -0.0628,1.97824 -0.11389,0.26305 -0.1136,-3.81154 z M 260.51962,188.5601 c 2e-5,-19.20875 0.0427,-27.0151 0.0949,-17.34745 0.0522,9.66765 0.0522,25.3839 -3e-5,34.925 -0.0522,9.5411 -0.0949,1.6312 -0.0949,-17.57755 z m 136.87777,0 c 4e-5,-19.20875 0.0427,-27.0151 0.0949,-17.34745 0.0522,9.66765 0.0522,25.3839 -3e-5,34.925 -0.0522,9.5411 -0.0949,1.6312 -0.0949,-17.57755 z m -240.67586,-0.79261 c 2.27982,-0.0615 6.01045,-0.0615 8.29028,0 2.27982,0.0615 0.41451,0.11173 -4.14514,0.11173 -4.55966,0 -6.42497,-0.0503 -4.14514,-0.11173 z m 177.85689,-31.83933 c 0,-3.39549 0.0529,-4.78455 0.11758,-3.08681 0.0647,1.69775 0.0647,4.47587 0,6.17361 -0.0647,1.69775 -0.11758,0.30868 -0.11758,-3.0868 z m 80.76626,-26.63472 c 0,-1.74625 0.0586,-2.50511 0.13254,-1.68634 0.074,0.81876 0.0749,2.24751 0.004,3.175 -0.0729,0.92748 -0.13346,0.25759 -0.13452,-1.48866 z"
         id="path365" /><path
         style="fill:#6bb3e3;stroke-width:0.352778"
         d="m 243.23644,371.475 c 0,-34.63396 0.0414,-48.8024 0.092,-31.48542 0.0506,17.31698 0.0506,45.65386 0,62.97084 -0.0506,17.31698 -0.092,3.14854 -0.092,-31.48542 z m 15.43787,-107.86173 c 9.45885,-0.0522 24.93697,-0.0522 34.39583,0 9.45885,0.0522 1.71979,0.095 -17.19792,0.095 -18.91771,0 -26.65677,-0.0428 -17.19791,-0.095 z M 151.86245,223.48472 c 3e-5,-15.32819 0.0435,-21.54732 0.0965,-13.82029 0.053,7.72704 0.053,20.26829 -5e-5,27.86945 -0.0531,7.60116 -0.0965,1.27904 -0.0964,-14.04916 z m 138.64152,-6.87916 c 0,-15.03716 0.0435,-21.18872 0.0966,-13.67014 0.0531,7.51857 0.0531,19.8217 0,27.34027 -0.0531,7.51858 -0.0966,1.36702 -0.0966,-13.67013 z m -93.49561,11.46527 c 1.3e-4,-6.59694 0.0477,-9.24584 0.10575,-5.88644 0.058,3.3594 0.0579,8.7569 -2.3e-4,11.99444 -0.0582,3.23755 -0.10565,0.48895 -0.10552,-6.108 z m 16.23887,-39.33472 c 0,-18.72368 0.0428,-26.38337 0.095,-17.02153 0.0523,9.36184 0.0523,24.68122 0,34.04306 -0.0523,9.36184 -0.095,1.70215 -0.095,-17.02153 z m 136.87778,0 c 0,-18.72368 0.0428,-26.38337 0.0951,-17.02153 0.0523,9.36184 0.0523,24.68122 0,34.04306 -0.0523,9.36184 -0.0951,1.70215 -0.0951,-17.02153 z M 151.8622,160.51389 c 0,-14.84313 0.0435,-20.91531 0.0967,-13.49375 0.0532,7.42156 0.0532,19.56594 0,26.9875 -0.0532,7.42156 -0.0967,1.34937 -0.0967,-13.49375 z m 143.12867,20.90362 c 2.07504,-0.0623 5.56754,-0.0625 7.76111,-3.6e-4 2.19356,0.062 0.4958,0.11294 -3.77281,0.11321 -4.26861,2.7e-4 -6.06335,-0.0505 -3.9883,-0.11272 z m -4.48814,-24.25501 c 3e-5,-12.99986 0.0441,-18.26673 0.0978,-11.70415 0.0538,6.56258 0.0538,17.19883 -6e-5,23.63611 -0.0538,6.43728 -0.0978,1.0679 -0.0978,-11.93196 z m -93.5063,2.29306 c 0,-3.58952 0.0524,-5.05796 0.11641,-3.2632 0.064,1.79476 0.064,4.73163 0,6.52639 -0.064,1.79476 -0.11641,0.32632 -0.11641,-3.26319 z M 157.42708,132.7335 c 2.66789,-0.0599 7.03351,-0.0599 9.70139,0 2.66788,0.0599 0.48507,0.10896 -4.85069,0.10896 -5.33577,0 -7.51858,-0.049 -4.8507,-0.10896 z m 138.8394,-1.9e-4 c 2.77664,-0.0597 7.22164,-0.0595 9.87778,3.3e-4 2.65614,0.0598 0.38435,0.10868 -5.04843,0.1085 -5.43277,-1.8e-4 -7.60598,-0.0491 -4.82935,-0.10883 z m 125.74394,-1.3e-4 c 3.44399,-0.0578 9.07961,-0.0578 12.52361,0 3.44399,0.0577 0.62618,0.10501 -6.26181,0.10501 -6.88798,0 -9.7058,-0.0473 -6.2618,-0.10501 z m 33.86666,0 c 3.444,-0.0578 9.07962,-0.0578 12.52361,0 3.444,0.0577 0.62619,0.10501 -6.2618,0.10501 -6.88799,0 -9.7058,-0.0473 -6.26181,-0.10501 z"
         id="path363" /><path
         style="fill:#74abd2;stroke-width:0.352778"
         d="m 247.95497,381.25908 c 0.14878,-0.14855 4.86384,-0.22779 10.47791,-0.17604 l 10.2074,0.0941 -10.47791,0.17604 c -5.76285,0.0968 -10.35618,0.0545 -10.2074,-0.0941 z m -0.0746,-4.40422 c -0.0902,-0.14552 2.87696,-0.22391 6.59377,-0.17424 12.87302,0.17212 14.11883,0.28932 3.86823,0.36389 -5.66386,0.0412 -10.37176,-0.0441 -10.462,-0.18965 z m 42.6091,-31.83819 c 0,-4.94771 0.0496,-6.97177 0.11026,-4.49792 0.0606,2.47385 0.0606,6.52198 0,8.99583 -0.0606,2.47386 -0.11026,0.4498 -0.11026,-4.49791 z"
         id="path361" /><path
         style="fill:#61aee1;stroke-width:0.352778"
         d="m 250.56042,307.7109 c 3.63802,-0.0573 9.59114,-0.0573 13.22916,0 3.63802,0.0573 0.66146,0.10425 -6.61458,0.10425 -7.27604,0 -10.2526,-0.0469 -6.61458,-0.10425 z m 73.55416,-44.09759 c 7.80962,-0.053 20.589,-0.053 28.39861,0 7.80962,0.053 1.41994,0.0963 -14.1993,0.0963 -15.61924,0 -22.00892,-0.0433 -14.19931,-0.0963 z m -28.41943,-19.04898 c 2.4624,-0.0606 6.5899,-0.0607 9.17222,-3.5e-4 2.58232,0.0604 0.56763,0.10991 -4.47709,0.11011 -5.04472,2e-4 -7.15753,-0.0492 -4.69513,-0.10974 z m -74.68702,-55.82822 c 0,-18.1416 0.0429,-25.56316 0.0953,-16.49236 0.0524,9.0708 0.0524,23.91392 0,32.98472 -0.0524,9.0708 -0.0953,1.64924 -0.0953,-16.49236 z m 136.87776,0 c 0,-18.1416 0.0429,-25.56316 0.0953,-16.49236 0.0524,9.0708 0.0524,23.91392 0,32.98472 -0.0524,9.0708 -0.0953,1.64924 -0.0953,-16.49236 z m -62.14938,-0.26375 c 2.48515,-0.0607 6.4539,-0.0606 8.81945,3.5e-4 2.36554,0.0609 0.33223,0.11063 -4.51846,0.11042 -4.85069,-2.2e-4 -6.78614,-0.0501 -4.30099,-0.11081 z M 144.23706,125.84937 c 0.14791,-0.14778 6.60914,-0.22707 14.3583,-0.17619 l 14.08936,0.0925 -14.35829,0.17619 c -7.89707,0.0969 -14.23728,0.0553 -14.08937,-0.0925 z m 138.64163,4e-5 c 0.14788,-0.14775 6.68849,-0.22704 14.53468,-0.17619 l 14.2658,0.0924 -14.53468,0.17619 c -7.99408,0.0969 -14.41369,0.0553 -14.2658,-0.0924 z m 162.32687,0.0923 -29.45695,-0.18248 29.34794,-0.0851 c 19.27712,-0.0559 29.42272,0.0359 29.56595,0.26763 0.11991,0.19402 0.16898,0.31446 0.10901,0.26762 -0.0599,-0.0468 -13.36463,-0.16727 -29.56595,-0.26762 z m -205.93403,-1.31532 c 0.7276,-0.0761 1.91823,-0.0761 2.64583,0 0.72761,0.0761 0.13229,0.13838 -1.32292,0.13838 -1.4552,0 -2.05052,-0.0623 -1.32291,-0.13838 z m 136.87778,0 c 0.7276,-0.0761 1.91822,-0.0761 2.64583,0 0.7276,0.0761 0.13229,0.13838 -1.32292,0.13838 -1.45521,0 -2.05052,-0.0623 -1.32291,-0.13838 z"
         id="path359" /><path
         style="fill:#66a9d6;stroke-width:0.352778"
         d="m 247.81589,412.57361 c -5e-5,-12.02972 0.0443,-17.00209 0.0985,-11.04974 0.0542,5.95235 0.0542,15.79485 9e-5,21.87222 -0.0542,6.07738 -0.0985,1.20724 -0.0986,-10.82248 z"
         id="path357" /><path
         style="fill:#57a8e0;stroke-width:0.352778"
         d="m 144.10586,188.73611 c 0,-34.43993 0.0414,-48.52899 0.092,-31.30903 0.0506,17.21997 0.0506,45.39809 0,62.61806 -0.0506,17.21996 -0.092,3.1309 -0.092,-31.30903 z m 138.64167,0 c 0,-34.43993 0.0414,-48.52899 0.092,-31.30903 0.0506,17.21997 0.0506,45.39809 0,62.61806 -0.0506,17.21996 -0.092,3.1309 -0.092,-31.30903 z m 158.74977,3.70417 c 0,-32.40264 0.0415,-45.60604 0.0922,-29.34089 0.0508,16.26514 0.0508,42.77639 0,58.91389 -0.0507,16.13749 -0.0922,2.82964 -0.0922,-29.573 z m -252.25028,33.69028 c 0,-6.49993 0.0476,-9.159 0.10585,-5.90903 0.0582,3.24996 0.0582,8.56809 0,11.81805 -0.0582,3.24997 -0.10585,0.59091 -0.10585,-5.90902 z m 147.45331,-8.99584 c 2.7e-4,-4.26861 0.0512,-5.96637 0.11321,-3.77281 0.062,2.19357 0.0618,5.68607 -3.6e-4,7.76111 -0.0623,2.07505 -0.11298,0.28031 -0.11271,-3.9883 z m -68.4196,-28.575 c 2e-5,-19.20875 0.0427,-27.0151 0.0949,-17.34745 0.0522,9.66765 0.0522,25.3839 -3e-5,34.925 -0.0522,9.5411 -0.0949,1.6312 -0.0949,-17.57755 z m 136.87777,0 c 4e-5,-19.20875 0.0427,-27.0151 0.0949,-17.34745 0.0522,9.66765 0.0522,25.3839 -3e-5,34.925 -0.0522,9.5411 -0.0949,1.6312 -0.0949,-17.57755 z m -249.49531,6.26372 c 1.69775,-0.0647 4.47587,-0.0647 6.17362,0 1.69774,0.0647 0.30868,0.11758 -3.08681,0.11758 -3.39549,0 -4.78455,-0.0529 -3.08681,-0.11758 z m 33.57783,-34.13316 c 2.4e-4,-4.65667 0.0504,-6.51288 0.11156,-4.12491 0.0611,2.38797 0.0609,6.19797 -3.6e-4,8.46667 -0.0613,2.2687 -0.11136,0.3149 -0.11113,-4.34176 z m 137.57555,-3.52778 c -3.5e-4,-3.29847 0.0526,-4.69533 0.11783,-3.10413 0.0652,1.5912 0.0656,4.28995 7.1e-4,5.99723 -0.0648,1.70726 -0.11816,0.40537 -0.11857,-2.8931 z m 147.79478,-27.86944 c 0,-1.74625 0.0586,-2.50511 0.13254,-1.68634 0.074,0.81876 0.0749,2.24751 0.004,3.175 -0.0729,0.92748 -0.13345,0.25759 -0.13451,-1.48866 z"
         id="path355" /><path
         style="fill:#53a5dc;stroke-width:0.352778"
         d="m 336.36453,408.86944 c 0,-14.06701 0.0437,-19.8217 0.0971,-12.78819 0.0534,7.03351 0.0534,18.54288 0,25.57639 -0.0534,7.03351 -0.0971,1.27882 -0.0971,-12.7882 z m 4.93889,0 c 0,-14.06701 0.0437,-19.8217 0.0971,-12.78819 0.0534,7.03351 0.0534,18.54288 0,25.57639 -0.0534,7.03351 -0.0971,1.27882 -0.0971,-12.7882 z"
         id="path353" /><path
         style="fill:#659ec5;stroke-width:0.352778"
         d="m 247.78819,386.29167 c 0,-2.61938 0.0555,-3.69094 0.12341,-2.38125 0.0679,1.30968 0.0679,3.45281 0,4.7625 -0.0679,1.30968 -0.12341,0.23812 -0.12341,-2.38125 z m -0.055,-41.69515 c -0.0458,-17.59657 0.0358,-32.06739 0.18137,-32.15738 0.23963,-0.14818 0.23727,22.67013 -0.005,52.68586 -0.051,6.3059 -0.13016,-2.9319 -0.17592,-20.52848 z"
         id="path351" /><path
         style="fill:#49a1dd;stroke-width:0.352778"
         d="m 272.81337,481.6299 c 17.42937,-0.0506 45.84562,-0.0506 63.14723,0 17.30161,0.0506 3.04121,0.092 -31.68977,0.092 -34.73097,-3e-5 -48.88683,-0.0414 -31.45746,-0.092 z M 146.32641,251.27006 c 1.02515,-0.0715 2.61265,-0.0707 3.52778,0.002 0.91512,0.0724 0.0764,0.13089 -1.86391,0.12998 -1.94028,-0.001 -2.68902,-0.0602 -1.66387,-0.13165 z m 47.2604,3.6e-4 c 1.01864,-0.0713 2.68552,-0.0713 3.70416,0 1.01865,0.0713 0.18521,0.12957 -1.85208,0.12957 -2.03729,0 -2.87073,-0.0583 -1.85208,-0.12957 z m 97.03763,-0.004 c 4.13615,-0.0565 10.80365,-0.0564 14.81667,1.6e-4 4.01301,0.0566 0.62889,0.10277 -7.52028,0.10268 -8.14916,-9e-5 -11.43254,-0.0464 -7.29639,-0.10284 z m 154.75563,0.007 3.35118,-0.12118 0.0908,-58.63655 0.0908,-58.63654 v 58.7375 58.7375 l -3.4404,0.0202 -3.44039,0.0202 3.35114,-0.12118 z M 329.29099,216.78194 c 2.9e-4,-4.07458 0.0516,-5.69314 0.11412,-3.59679 0.0625,2.09634 0.0622,5.43009 -3.6e-4,7.40833 -0.0628,1.97824 -0.11388,0.26305 -0.11359,-3.81154 z M 260.8724,188.55972 c 10e-6,-19.20875 0.0427,-27.0151 0.0949,-17.34745 0.0522,9.66765 0.0522,25.3839 -3e-5,34.925 -0.0522,9.5411 -0.0949,1.6312 -0.0949,-17.57755 z m 136.87777,0 c 4e-5,-19.20875 0.0427,-27.0151 0.0949,-17.34745 0.0522,9.66765 0.0522,25.3839 -4e-5,34.925 -0.0522,9.5411 -0.0949,1.6312 -0.0949,-17.57755 z m -241.02864,-0.43983 c 2.27982,-0.0615 6.01045,-0.0615 8.29028,0 2.27982,0.0615 0.41451,0.11172 -4.14514,0.11172 -4.55966,0 -6.42497,-0.0503 -4.14514,-0.11172 z m 177.50546,-32.19211 c 0,-3.58952 0.0524,-5.05795 0.11641,-3.2632 0.064,1.79476 0.064,4.73164 0,6.52639 -0.064,1.79476 -0.11641,0.32632 -0.11641,-3.26319 z m 81.47047,-26.63472 c 0,-1.74625 0.0586,-2.50511 0.13254,-1.68634 0.074,0.81876 0.0749,2.24751 0.004,3.175 -0.0729,0.92748 -0.13345,0.25759 -0.13451,-1.48866 z"
         id="path349" /><path
         style="fill:#439edc;stroke-width:0.352778"
         d="m 242.88367,371.29861 c 1e-5,-34.73097 0.0414,-48.88683 0.092,-31.45746 0.0506,17.42936 0.0506,45.84561 -1e-5,63.14724 -0.0506,17.3016 -0.092,3.04119 -0.092,-31.68978 z m 30.10609,-107.33262 c 17.33235,-0.0506 45.58985,-0.0506 62.79444,1e-5 17.20461,0.0506 3.02358,0.092 -31.51337,0.092 -34.53694,-10e-6 -48.61343,-0.0414 -31.28107,-0.092 z M 151.50973,223.30833 c 0,-15.42521 0.0434,-21.73552 0.0964,-14.02291 0.053,7.7126 0.053,20.33323 0,28.04583 -0.053,7.7126 -0.0964,1.40229 -0.0964,-14.02292 z m 138.64156,-6.70277 c 0,-15.23118 0.0434,-21.46212 0.0965,-13.84653 0.0531,7.61559 0.0531,20.07746 0,27.69305 -0.0531,7.61559 -0.0965,1.38466 -0.0965,-13.84652 z m -93.49547,11.64166 c 0,-6.69396 0.0474,-9.43239 0.10542,-6.08541 0.058,3.34697 0.058,8.82385 0,12.17083 -0.058,3.34698 -0.10542,0.60854 -0.10542,-6.08542 z m 16.94419,-39.51111 c 0,-18.72368 0.0428,-26.38337 0.0951,-17.02153 0.0523,9.36184 0.0523,24.68122 0,34.04306 -0.0523,9.36184 -0.0951,1.70215 -0.0951,-17.02153 z m 136.87778,0 c 0,-18.72368 0.0428,-26.38337 0.095,-17.02153 0.0523,9.36184 0.0523,24.68122 0,34.04306 -0.0523,9.36184 -0.095,1.70215 -0.095,-17.02153 z M 151.50947,160.3375 c 3e-5,-14.94014 0.0435,-21.00055 0.0967,-13.46759 0.0531,7.53297 0.0531,19.75672 -5e-5,27.16389 -0.0532,7.40717 -0.0967,1.24384 -0.0966,-13.6963 z m 143.50095,21.43239 c 2.27982,-0.0615 6.01045,-0.0615 8.29027,0 2.27983,0.0615 0.41452,0.11172 -4.14513,0.11172 -4.55966,0 -6.42497,-0.0503 -4.14514,-0.11172 z m -4.86034,-24.60739 c 4e-5,-13.19389 0.044,-18.54011 0.0977,-11.88049 0.0537,6.65963 0.0537,17.45463 -6e-5,23.98889 -0.0537,6.53427 -0.0977,1.08549 -0.0976,-12.1084 z m -93.50643,2.29306 c 0,-3.58952 0.0524,-5.05796 0.11642,-3.2632 0.064,1.79476 0.064,4.73163 0,6.52639 -0.064,1.79476 -0.11642,0.32632 -0.11642,-3.26319 z m -39.39296,-27.07489 c 2.7649,-0.0596 7.28928,-0.0596 10.05417,0 2.7649,0.0596 0.50271,0.10837 -5.02708,0.10837 -5.52979,0 -7.79198,-0.0488 -5.02709,-0.10837 z m 138.83964,-1.8e-4 c 2.87378,-0.0594 7.47753,-0.0592 10.23055,3.1e-4 2.75303,0.0595 0.40176,0.1081 -5.22505,0.10793 -5.6268,-1.6e-4 -7.87928,-0.0489 -5.0055,-0.10824 z m 126.11941,-2.1e-4 c 3.5536,-0.0576 9.2686,-0.0575 12.7,2.1e-4 3.43136,0.0577 0.52387,0.10483 -6.46113,0.10471 -6.985,-1.1e-4 -9.79251,-0.0473 -6.23887,-0.10492 z m 33.4682,2.4e-4 c 3.33446,-0.0579 8.89071,-0.058 12.34722,-2.1e-4 3.45652,0.0578 0.72831,0.1052 -6.06266,0.10532 -6.79097,1.2e-4 -9.61902,-0.0472 -6.28456,-0.10511 z m -216.2207,-1.05317 c 0.82975,-0.0745 2.09975,-0.0735 2.82222,0.002 0.72248,0.0758 0.0436,0.13677 -1.50863,0.13549 -1.55222,-0.001 -2.14334,-0.0633 -1.31359,-0.13782 z m 136.87777,0 c 0.82977,-0.0745 2.09977,-0.0735 2.82222,0.002 0.72249,0.0758 0.0436,0.13677 -1.50862,0.13549 -1.55222,-0.001 -2.14334,-0.0633 -1.3136,-0.13782 z"
         id="path347" /><path
         style="fill:#5799c7;stroke-width:0.352778"
         d="m 295.07698,345.01667 c 0,-5.33577 0.049,-7.51858 0.10897,-4.8507 0.0599,2.66788 0.0599,7.03351 0,9.70139 -0.0599,2.66788 -0.10897,0.48507 -0.10897,-4.85069 z M 253.73542,312.2972 c 3.05593,-0.0587 8.05656,-0.0587 11.1125,0 3.05593,0.0587 0.55562,0.10678 -5.55625,0.10678 -6.11188,0 -8.61219,-0.048 -5.55625,-0.10678 z"
         id="path345" /><path
         style="fill:#3a9ada;stroke-width:0.352778"
         d="m 250.18414,307.35816 c 3.81913,-0.0569 10.16913,-0.057 14.11111,-1.8e-4 3.94199,0.0568 0.81725,0.10338 -6.94386,0.10348 -7.76111,9e-5 -10.98637,-0.0464 -7.16725,-0.1033 z m -105.72311,-118.62205 0.001,-62.61805 13.58194,-0.006 13.58195,-0.006 -13.49278,0.0986 -13.49277,0.0986 -0.0906,62.52572 -0.0906,62.52572 0.001,-62.61806 z m 138.64167,0 10e-4,-62.61805 13.8466,-0.006 13.8466,-0.006 -13.75743,0.0985 -13.75744,0.0985 -0.0906,62.52576 -0.0906,62.52577 0.001,-62.61805 z m 158.74737,3.70417 c 0,-32.40264 0.0415,-45.60604 0.0923,-29.34089 0.0508,16.26514 0.0508,42.77639 0,58.91389 -0.0507,16.13749 -0.0923,2.82964 -0.0923,-29.573 z m -146.1341,52.47645 c 2.86191,-0.0593 7.54504,-0.0593 10.40695,0 2.86191,0.0593 0.52034,0.10781 -5.20348,0.10781 -5.72382,0 -8.06538,-0.0485 -5.20347,-0.10781 z M 189.60112,227.54167 c 0,-7.08202 0.0471,-9.9792 0.10462,-6.4382 0.0575,3.54101 0.0575,9.33538 0,12.87639 -0.0575,3.54101 -0.10462,0.64382 -0.10462,-6.43819 z m 146.74866,-10.23056 c 0,-4.75368 0.0499,-6.69837 0.11097,-4.32153 0.061,2.37684 0.061,6.26622 0,8.64306 -0.061,2.37684 -0.11097,0.43215 -0.11097,-4.32153 z m -68.42167,-28.575 c 0,-19.69382 0.0426,-27.75038 0.0947,-17.90347 0.0521,9.84691 0.0521,25.96003 0,35.80694 -0.0521,9.84691 -0.0947,1.79035 -0.0947,-17.90347 z m 136.87779,0 c 0,-19.69382 0.0426,-27.75038 0.0947,-17.90347 0.0521,9.84691 0.0521,25.96003 0,35.80694 -0.0521,9.84691 -0.0947,1.79035 -0.0947,-17.90347 z m -184.15014,0 c 0,-19.30576 0.0427,-27.20358 0.0949,-17.55069 0.0522,9.65288 0.0522,25.4485 0,35.10139 -0.0522,9.65288 -0.0949,1.75507 -0.0949,-17.5507 z m 136.87778,0 c 0,-19.30576 0.0427,-27.20358 0.0949,-17.55069 0.0522,9.65288 0.0522,25.4485 0,35.10139 -0.0522,9.65288 -0.0949,1.75507 -0.0949,-17.5507 z m -201.85302,5.73431 c 1.70727,-0.0648 4.40602,-0.0645 5.99722,7e-4 1.5912,0.0652 0.19434,0.11824 -3.10413,0.11783 -3.29847,-3.5e-4 -4.60036,-0.0538 -2.89309,-0.11857 z m 139.68267,-6.35081 c 2.66789,-0.0599 7.03351,-0.0599 9.70139,0 2.66789,0.0599 0.48507,0.10896 -4.85069,0.10896 -5.33577,0 -7.51858,-0.049 -4.8507,-0.10896 z M 189.59293,160.69028 c 2.5e-4,-4.46264 0.0508,-6.23962 0.11235,-3.94885 0.0616,2.29077 0.0613,5.94202 -3.5e-4,8.11389 -0.0618,2.17187 -0.11214,0.2976 -0.1119,-4.16504 z m 137.57642,-3.52778 c -3.5e-4,-3.29847 0.0526,-4.69533 0.11783,-3.10413 0.0652,1.5912 0.0656,4.28995 7.1e-4,5.99723 -0.0648,1.70726 -0.11817,0.40537 -0.11857,-2.8931 z m 147.03496,-27.77921 -0.071,-3.08477 -29.19236,-0.0923 -29.19236,-0.0923 29.20344,-0.0861 c 24.12559,-0.0712 29.23494,-0.004 29.38462,0.38603 0.0996,0.25969 0.12662,1.72813 0.0599,3.2632 l -0.12125,2.79104 z"
         id="path343" /><path
         style="fill:#3698da;stroke-width:0.352778"
         d="m 335.98725,428.80139 c 3.5e-4,-3.10445 0.0544,-4.32721 0.11993,-2.71727 0.0655,1.60993 0.0651,4.14993 -7.1e-4,5.64444 -0.066,1.49451 -0.11957,0.17727 -0.11912,-2.92717 z m 5.65377,-2.82222 c 2.4e-4,-4.65667 0.0504,-6.51288 0.11156,-4.12493 0.0611,2.38799 0.0609,6.19799 -3.6e-4,8.46667 -0.0614,2.26871 -0.11136,0.31492 -0.11113,-4.34174 z"
         id="path341" /><path
         style="fill:#4794c9;stroke-width:0.352778"
         d="m 248.1521,427.0375 c 2.9e-4,-4.07458 0.0516,-5.69313 0.11412,-3.59678 0.0625,2.09631 0.0622,5.43006 -3.5e-4,7.40833 -0.0628,1.97824 -0.11389,0.26303 -0.1136,-3.81155 z"
         id="path339" /><path
         style="fill:#3496d9;stroke-width:0.352778"
         d="m 211.31389,429.29069 c -16.58938,-28.72486 -30.67393,-53.1332 -31.29901,-54.24071 l -1.13651,-2.01366 31.32406,-54.31468 31.32407,-54.3147 62.63789,-0.0892 62.63789,-0.0892 31.2389,54.06416 c 17.18137,29.73529 31.28994,54.23188 31.35231,54.43687 0.0624,0.20497 -13.93592,24.76709 -31.10738,54.58249 l -31.22083,54.20984 -62.79445,-0.004 -62.79444,-0.004 z m 149.37532,-8.40073 59.23982,-59.24063 -0.90174,-1.17257 c -2.91341,-3.78837 -46.42322,-51.73119 -47.2737,-52.09018 -0.15321,-0.0647 -0.27859,-0.3425 -0.27859,-0.61737 0,-0.38868 -0.61489,-0.49977 -2.76652,-0.49977 h -2.76652 l -3.45228,8.73125 c -1.89879,4.80219 -5.19885,13.15204 -7.33347,18.55522 l -3.88115,9.82396 -2.68823,-2.62901 c -2.2208,-2.17189 -33.72563,-31.55347 -36.26908,-33.82476 -1.05708,-0.94396 -5.50174,-0.83925 -5.68729,0.13399 -0.10968,0.57531 2.36039,7.08348 9.85617,25.96909 1.72152,4.33736 3.13004,7.98489 3.13004,8.10561 0,0.12072 -1.23032,-0.9813 -2.73403,-2.44893 -7.9079,-7.71813 -27.42033,-24.95743 -27.80869,-24.56906 -0.0752,0.0752 -1.05226,-0.74855 -2.17129,-1.8305 -2.37568,-2.29695 -5.55067,-3.955 -9.68613,-5.05829 -2.81898,-0.75208 -3.53594,-0.78218 -18.63042,-0.78218 H 242.8875 l -0.0891,63.76247 -0.0891,63.7625 5.02804,3.99482 c 14.30384,11.36449 44.06637,34.46943 48.7295,37.82917 1.33455,0.96154 2.84268,2.10044 3.35139,2.53087 0.50871,0.43042 1.08385,0.78761 1.2781,0.79375 0.19424,0.006 27.01109,-26.64714 59.59298,-59.22945 z M 236.18472,251.88982 c -10.49143,-1.51546 -17.92321,-8.32458 -20.79401,-19.05184 -1.56917,-5.86349 -1.66286,-8.74969 -1.52318,-46.92409 0.12752,-34.84819 0.1508,-35.89196 0.86951,-38.98195 2.61993,-11.26406 8.13433,-17.69495 17.74352,-20.69248 2.29461,-0.71579 3.37167,-0.82545 8.11388,-0.82607 6.30661,-7.1e-4 8.42066,0.43106 12.87639,2.63061 6.69603,3.30547 10.81694,8.69272 13.15184,17.19336 l 0.94996,3.45847 0.11089,38.27639 c 0.11956,41.27515 0.10436,41.68825 -1.74342,47.3769 -2.85807,8.79891 -8.92842,14.65434 -17.46391,16.84559 -3.15695,0.81046 -9.14754,1.14923 -12.29147,0.69511 z M 247.65,245.3384 c 6.33161,-1.92307 9.97116,-6.01581 12.41536,-13.96133 l 0.80002,-2.60068 0.1107,-38.62917 c 0.0761,-26.56695 -0.009,-39.34519 -0.27121,-40.92222 -0.88837,-5.33396 -3.16588,-10.30769 -6.10904,-13.3412 -1.76253,-1.81663 -5.60266,-3.74393 -8.50993,-4.27098 -1.15129,-0.20872 -3.69129,-0.37714 -5.64444,-0.37427 -8.50588,0.0125 -13.61032,2.93494 -16.78971,9.61263 -1.61722,3.39666 -2.33827,5.99341 -2.81495,10.13771 -0.48063,4.17868 -0.46293,71.60874 0.0198,75.5037 0.20378,1.64415 0.61111,3.94185 0.90516,5.10602 0.75264,2.97966 2.99145,7.47578 4.67475,9.38811 1.83505,2.08472 5.69351,4.12484 8.99478,4.75591 3.18985,0.60977 9.57574,0.3985 12.21869,-0.40423 z m 125.4125,6.55142 c -10.49143,-1.51546 -17.92319,-8.32458 -20.79401,-19.05184 -1.56918,-5.86349 -1.66286,-8.74969 -1.52318,-46.92409 0.12751,-34.84819 0.1508,-35.89196 0.8695,-38.98195 2.61994,-11.26406 8.13435,-17.69495 17.74352,-20.69248 2.29461,-0.71579 3.37168,-0.82545 8.11389,-0.82607 6.30661,-7.1e-4 8.42067,0.43106 12.87639,2.63061 6.69604,3.30547 10.81694,8.69272 13.15184,17.19336 l 0.94996,3.45847 0.11088,38.27639 c 0.11959,41.27515 0.10438,41.68825 -1.74343,47.3769 -2.85807,8.79891 -8.92842,14.65434 -17.46388,16.84559 -3.15697,0.81046 -9.14756,1.14923 -12.29148,0.69511 z m 11.46528,-6.55142 c 6.33162,-1.92307 9.97116,-6.01581 12.41534,-13.96133 l 0.80003,-2.60068 0.1107,-38.62917 c 0.0761,-26.56695 -0.008,-39.34519 -0.27121,-40.92222 -0.88837,-5.33396 -3.16587,-10.30769 -6.10902,-13.3412 -1.76255,-1.81663 -5.60268,-3.74393 -8.50995,-4.27098 -1.15129,-0.20872 -3.69129,-0.37714 -5.64445,-0.37427 -8.50586,0.0125 -13.61031,2.93494 -16.78968,9.61263 -1.61724,3.39666 -2.33828,5.99341 -2.81495,10.13771 -0.48063,4.17868 -0.46296,71.60874 0.0197,75.5037 0.20377,1.64415 0.61108,3.94185 0.90516,5.10602 0.75261,2.97966 2.99145,7.47578 4.67476,9.38811 1.83501,2.08472 5.69348,4.12484 8.99478,4.75591 3.18985,0.60977 9.57573,0.3985 12.21867,-0.40423 z M 144.63889,188.71347 v -62.46431 l 15.96319,0.12894 c 15.10588,0.12202 16.11177,0.17027 18.72966,0.89845 6.77854,1.88549 10.97471,5.25976 13.75586,11.06153 2.72433,5.68322 3.40279,9.8904 3.40694,21.12673 0.001,3.98266 -0.15957,8.58641 -0.35787,10.23055 -1.24056,10.28538 -6.06328,16.83323 -14.57223,19.78482 -3.19312,1.10763 -3.19099,1.10618 -2.91187,1.9856 0.14016,0.44162 0.81735,0.82147 2.00892,1.12686 5.3996,1.38388 10.45597,5.44787 12.76928,10.26316 2.63027,5.47506 2.76795,6.61412 3.06906,25.39142 0.26535,16.54794 0.38687,18.16803 1.59479,21.262 0.2856,0.73153 0.51927,1.40622 0.51927,1.49931 0,0.0931 -1.42467,0.16925 -3.16594,0.16925 -3.14885,0 -3.16885,-0.006 -3.70401,-1.04051 -1.58062,-3.05658 -1.69873,-4.39238 -1.95107,-22.06644 -0.22328,-15.63895 -0.29811,-17.13973 -0.97895,-19.63353 -1.5093,-5.52829 -4.18063,-8.97305 -8.67364,-11.18495 -4.17362,-2.05467 -7.81248,-2.561 -18.92084,-2.63275 l -9.70138,-0.0627 -0.0903,28.31042 -0.0903,28.31042 h -3.34929 -3.34929 z m 29.85171,-0.86238 c 6.25025,-1.06182 10.59864,-4.03453 12.87396,-8.8011 2.01799,-4.22752 2.25599,-6.24403 2.22929,-18.88888 -0.0225,-10.65389 -0.0788,-11.665 -0.79581,-14.2875 -2.10899,-7.71382 -5.9183,-11.6332 -12.7044,-13.07149 -1.73804,-0.36838 -5.2694,-0.4998 -13.55128,-0.50433 l -11.20069,-0.006 v 28.04583 28.04583 h 10.00795 c 7.30213,0 10.85502,-0.1439 13.14098,-0.53224 z m 108.78996,0.89327 v -62.4948 l 16.13958,0.12851 c 15.35874,0.12228 16.27612,0.16629 18.9618,0.90956 1.55223,0.42958 3.69535,1.2037 4.7625,1.72026 2.35387,1.13941 6.16853,4.88725 7.47948,7.34846 2.54822,4.78409 3.67973,12.35162 3.34834,22.39365 -0.21699,6.57536 -0.54971,9.03721 -1.71641,12.7 -1.95368,6.13349 -5.33562,9.43901 -11.75724,11.49159 -2.08832,0.6675 -2.46944,0.91139 -2.46944,1.58018 0,0.67031 0.3351,0.88259 2.19831,1.39262 3.64752,0.99845 6.77515,2.74558 9.1088,5.08828 3.26118,3.27383 5.18326,7.31181 6.31152,13.2595 0.76382,4.02651 0.77996,21.51233 0.0238,25.84811 -1.46063,8.37587 -5.4927,14.67877 -11.40675,17.83092 -1.1969,0.63794 -3.72457,1.57547 -5.61707,2.0834 -3.42451,0.91911 -3.51691,0.9242 -19.40409,1.06904 l -15.96318,0.14552 z m 33.67106,55.57183 c 6.69475,-1.93034 10.31381,-6.15437 11.89648,-13.88512 0.63547,-3.10407 0.68672,-4.48958 0.5571,-15.06024 -0.11698,-9.53985 -0.25034,-12.02381 -0.73863,-13.75833 -1.94596,-6.91244 -5.76701,-10.55668 -13.2139,-12.60247 -2.48906,-0.68378 -3.65529,-0.74828 -14.00406,-0.77449 l -11.28889,-0.0286 -0.0912,28.04583 c -0.0501,15.42521 -0.01,28.25969 0.0903,28.52106 0.29408,0.77032 23.93448,0.36651 26.79279,-0.45765 z M 315.0902,181.0535 c 5.03257,-1.3776 8.0198,-3.57158 9.87981,-7.25625 1.89941,-3.7627 2.20183,-6.04747 2.20183,-16.63475 0,-10.52219 -0.3042,-12.85705 -2.20401,-16.91686 -1.35116,-2.88736 -2.77486,-4.43569 -5.33175,-5.7985 -3.5794,-1.9078 -5.57516,-2.14251 -18.27566,-2.14935 l -11.37709,-0.006 v 24.90415 24.90415 l 11.2007,-0.15294 c 9.98768,-0.13637 11.49369,-0.23314 13.90617,-0.89353 z m 126.85318,10.76942 -0.0892,-59.35486 -12.96459,-0.0926 -12.96458,-0.0925 v -2.99426 -2.99427 h 29.10417 29.10416 v 2.99862 2.99861 h -12.7 -12.7 v 59.44305 59.44306 h -3.35036 -3.35037 z"
         id="path337" /><path
         style="fill:#3395d8;stroke-width:0.352778"
         d="m 299.68472,479.24769 c -0.58208,-0.46478 -3.43958,-2.62639 -6.35,-4.80359 -7.38674,-5.52581 -25.57639,-19.7037 -25.57639,-19.93548 0,-0.10537 0.99219,0.58833 2.20486,1.54157 8.36356,6.5743 22.29745,17.14243 23.70958,17.98246 0.39616,0.23566 1.03727,0.43409 1.42469,0.44097 0.46861,0.008 7.41909,-6.68902 20.76391,-20.00765 11.35373,-11.33143 20.13223,-19.82875 20.22708,-19.57916 0.11296,0.29728 1.00787,0.44097 2.74626,0.44097 3.05293,0 3.00696,0.0611 3.00696,-3.99697 v -2.88093 l 36.03145,-36.03276 c 32.13036,-32.13149 36.00813,-36.12575 35.81587,-36.8918 -0.26106,-1.0402 -10.65953,-12.83672 -27.59858,-31.30916 -3.28479,-3.58215 -5.77543,-6.39153 -5.53477,-6.24307 1.02083,0.62969 35.92403,39.19095 38.47165,42.50367 l 0.90174,1.17257 -59.23982,59.24063 c -32.58189,32.58231 -59.39874,59.23209 -59.59298,59.22169 -0.19425,-0.0102 -0.82942,-0.39917 -1.41151,-0.86396 z m -37.39444,-28.78924 c -2.68533,-2.16898 -3.11695,-2.77124 -0.59531,-0.83068 1.94819,1.49923 2.83029,2.30977 2.46821,2.26797 -0.06,-0.007 -0.90276,-0.6537 -1.8729,-1.43729 z m -6.52639,-5.11542 c -1.84327,-1.45764 -3.58951,-2.9017 -3.88056,-3.20904 -0.60575,-0.63966 4.48867,3.2192 6.35,4.80991 2.31884,1.9817 0.88762,1.05389 -2.46944,-1.60087 z m 92.59589,-103.58956 -2.81395,-2.91041 2.91042,2.81394 c 1.60073,1.54767 2.91042,2.85736 2.91042,2.91042 0,0.2573 -0.39338,-0.11084 -3.00689,-2.81395 z m -31.91811,-2.20486 c -1.4455,-1.45521 -2.5488,-2.64583 -2.45179,-2.64583 0.097,0 1.35907,1.19062 2.80456,2.64583 1.4455,1.45521 2.5488,2.64583 2.45179,2.64583 -0.097,0 -1.35907,-1.19062 -2.80456,-2.64583 z m 26.09536,-3.26319 -2.28286,-2.38125 2.38125,2.28286 c 2.2118,2.12042 2.54251,2.47964 2.28286,2.47964 -0.0541,0 -1.12567,-1.07157 -2.38125,-2.38125 z m -5.64444,-5.29167 -2.28287,-2.38125 2.38125,2.28286 c 1.30969,1.25558 2.38125,2.32714 2.38125,2.38125 0,0.25966 -0.35921,-0.0711 -2.47963,-2.28286 z"
         id="path335" /><path
         style="fill:#3294d6;stroke-width:0.352778"
         d="m 293.67691,474.03265 c -1.12487,-0.67303 -10.04358,-7.38046 -10.04358,-7.55343 0,-0.17307 1.41226,0.79932 4.05695,2.79336 0.97014,0.73145 2.08092,1.33061 2.46842,1.33146 0.46265,0 8.42582,-7.71906 23.19513,-22.48704 l 22.49061,-22.48853 v 4.40983 4.40986 l -20.02128,20.01898 c -13.33111,13.32956 -20.25667,20.01481 -20.7257,20.00648 -0.38742,-0.007 -1.02667,-0.20531 -1.42055,-0.44097 z m 48.16476,-49.99468 v -4.41018 L 375.70833,385.7625 C 394.335,367.13657 409.575,351.65078 409.575,351.34958 c 0,-0.30119 -0.82307,-1.49213 -1.82901,-2.64652 -1.00595,-1.15439 -2.1524,-2.49577 -2.54769,-2.98084 l -0.71868,-0.88194 0.91817,0.88194 c 2.46236,2.36526 8.09385,9.01683 8.28764,9.78884 0.19723,0.78592 -3.41182,4.50515 -35.81221,36.90557 l -36.03155,36.03156 z"
         id="path333" /><path
         style="fill:#3292d4;stroke-width:0.352778"
         d="m 286.80833,468.64626 c -7.07175,-5.1992 -19.75555,-14.9565 -19.75555,-15.19742 0,-0.10071 1.62719,1.07111 3.61597,2.6041 6.12481,4.72105 10.10817,7.49706 10.75774,7.49706 0.35235,0 12.25713,-11.63867 27.51438,-26.89931 l 26.89331,-26.8993 0.12852,-7.40833 c 0.0707,-4.07459 0.0728,-0.50296 0.005,7.93693 l -0.12384,15.34523 -22.4881,22.49019 c -14.93158,14.93294 -22.72553,22.48778 -23.19469,22.48313 -0.38862,-0.004 -1.89721,-0.88241 -3.35242,-1.95228 z m 54.87292,-59.11342 c -0.13384,-5.50661 -0.18761,-12.39326 -0.11947,-15.30367 0.11441,-4.88739 0.12983,-4.72574 0.20188,2.11589 l 0.078,7.40755 29.98611,-29.98455 c 17.93533,-17.93442 29.98611,-30.24444 29.98611,-30.63122 0,-0.62429 -3.05636,-4.31317 -9.69557,-11.70212 -1.74343,-1.94028 -2.87461,-3.29338 -2.51375,-3.00691 0.72157,0.57285 13.80148,15.15965 17.58597,19.61199 1.30792,1.53873 2.37949,3.03614 2.38125,3.32755 0,0.29143 -15.21813,15.7506 -33.82201,34.3537 l -33.82518,33.8238 z"
         id="path331" /><path
         style="fill:#3190d1;stroke-width:0.352778"
         d="m 278.16528,461.69114 c -4.5843,-3.36342 -20.28472,-15.47004 -20.28472,-15.6416 0,-0.0936 1.30114,0.82917 2.89143,2.05059 5.38048,4.13237 9.96946,7.33598 10.5084,7.33598 0.29499,0 14.93876,-14.40656 32.54171,-32.01458 l 32.00536,-32.01459 0.12185,-3.88055 c 0.067,-2.13431 0.0546,1.99319 -0.0275,9.17222 l -0.14935,13.05278 -26.86245,26.8993 c -18.29844,18.32356 -27.08766,26.8918 -27.56887,26.87578 -0.38853,-0.0131 -1.81767,-0.83887 -3.17586,-1.83533 z M 254.17639,443.4029 c -2.68533,-2.16899 -3.11695,-2.77125 -0.59531,-0.83069 1.94819,1.49924 2.83029,2.30978 2.46821,2.26797 -0.0599,-0.007 -0.90276,-0.65369 -1.8729,-1.43728 z m 87.66367,-45.64673 c -10e-4,-3.29805 -0.072,-7.82207 -0.15794,-10.05339 -0.086,-2.23132 -0.0709,-3.67478 0.0334,-3.2077 0.16821,0.75279 3.08999,-2.05081 25.73435,-24.69357 14.04951,-14.0485 25.54104,-25.78128 25.53673,-26.07282 -0.01,-0.63775 -3.55974,-4.93838 -9.44298,-11.43854 -2.38453,-2.63458 -4.25411,-4.79015 -4.15459,-4.79015 0.20405,0 14.16438,15.46546 19.16165,21.22757 1.79476,2.06944 3.2632,4.05361 3.2632,4.40927 0,0.38678 -12.05078,12.6968 -29.98611,30.63122 l -29.98611,29.98455 -0.002,-5.99644 z m 6.35161,-55.38534 c -1.4455,-1.4552 -2.5488,-2.64583 -2.45179,-2.64583 0.097,0 1.35907,1.19063 2.80456,2.64583 1.4455,1.45521 2.5488,2.64584 2.45179,2.64584 -0.097,0 -1.35907,-1.19063 -2.80456,-2.64584 z m -33.17131,-3.61597 -2.28286,-2.38125 2.38125,2.28286 c 1.30969,1.25558 2.38125,2.32714 2.38125,2.38125 0,0.25966 -0.35921,-0.071 -2.47964,-2.28286 z m 26.81111,-2.46944 -2.28286,-2.38125 2.38125,2.28286 c 2.21181,2.12042 2.54252,2.47964 2.28286,2.47964 -0.0541,0 -1.12567,-1.07157 -2.38125,-2.38125 z"
         id="path329" /><path
         style="fill:#468dbd;stroke-width:0.352778"
         d="m 248.16181,407.45833 c 0,-6.88798 0.0473,-9.7058 0.10501,-6.2618 0.0578,3.44399 0.0578,9.07962 0,12.52361 -0.0577,3.44399 -0.10501,0.62618 -0.10501,-6.26181 z m 5.39722,-26.01665 c 2.95892,-0.059 7.8008,-0.059 10.75972,0 2.95892,0.059 0.53799,0.10728 -5.37986,0.10728 -5.91785,0 -8.33879,-0.0483 -5.37986,-0.10728 z m -0.35278,-4.93879 c 2.7649,-0.0596 7.28927,-0.0596 10.05417,0 2.76489,0.0596 0.5027,0.10838 -5.02709,0.10838 -5.52979,0 -7.79198,-0.0488 -5.02708,-0.10838 z m 36.93003,-31.66261 c -2.2e-4,-4.8507 0.0495,-6.884 0.11041,-4.51846 0.0609,2.36555 0.0611,6.3343 3.6e-4,8.81945 -0.0607,2.48515 -0.11059,0.5497 -0.11081,-4.30099 z"
         id="path327" /><path
         style="fill:#308ecd;stroke-width:0.352778"
         d="m 267.20741,452.87847 c -4.79095,-3.46473 -12.14908,-9.07087 -12.14908,-9.25636 0,-0.0828 1.83942,1.19207 4.0876,2.83309 2.24818,1.64105 4.27195,2.98369 4.49726,2.98369 0.22531,0 16.21916,-15.80889 35.54188,-35.13088 l 35.13221,-35.13092 0.76358,2.0942 c 0.6158,1.68888 0.76358,2.87252 0.76358,6.11565 v 4.02145 l -32.0153,32.01388 c -17.60842,17.6076 -32.25601,32.01384 -32.5502,32.01384 -0.29419,0 -2.12638,-1.15094 -4.07153,-2.55764 z m 74.63247,-68.35161 c -0.002,-1.06715 8.22905,-22.41314 8.42084,-21.83776 0.18616,0.55849 36.03095,-35.33879 36.03095,-36.0837 0,-0.32922 -0.88936,-1.67918 -1.97637,-2.99991 l -1.97637,-2.40132 2.68277,2.82222 c 3.60747,3.79499 7.97274,9.12637 7.97274,9.73722 0,0.27234 -11.50937,12.00371 -25.57638,26.06972 -20.70938,20.70788 -25.57674,25.40692 -25.57818,24.69353 z m -3.31186,-9.72933 c -0.31187,-0.81273 -0.2522,-1.10666 0.10888,-0.5364 0.23785,0.37568 0.49357,0.1656 1.07366,-0.88194 0.41879,-0.75625 0.6565,-1.05752 0.52824,-0.66947 -0.92018,2.78416 -1.27664,3.21917 -1.71078,2.08781 z m 8.77435,-33.04406 -3.16765,-3.26319 3.2632,3.16764 c 3.03078,2.94204 3.42378,3.35875 3.16764,3.35875 -0.0525,0 -1.52099,-1.46844 -3.26319,-3.2632 z"
         id="path325" /><path
         style="fill:#308cca;stroke-width:0.352778"
         d="m 259.33367,446.6003 c -2.15741,-1.56126 -3.92256,-2.92143 -3.92256,-3.02264 0,-0.10121 0.46107,0.14429 1.0246,0.54554 0.56353,0.40128 1.15913,0.72958 1.32355,0.72958 0.16443,0 16.71127,-16.41288 36.77077,-36.4731 34.8948,-34.896 36.46085,-36.51669 36.2186,-37.4819 -0.13926,-0.55484 -0.17146,-0.9271 -0.0716,-0.82719 0.19539,0.19537 2.55754,6.53771 3.08476,8.28255 0.31567,1.04468 -0.0977,1.47451 -34.69342,36.07153 -19.2571,19.25782 -35.19274,35.01422 -35.41253,35.01422 -0.2198,0 -2.16479,-1.27737 -4.3222,-2.83859 z m 77.57567,-76.27183 c -2.10243,-4.95455 -2.4052,-5.79028 -1.5803,-4.36209 l 0.58784,1.01776 5.22971,-5.22097 c 3.88624,-3.87978 5.38184,-5.6194 5.82197,-6.77185 0.32575,-0.85298 0.6494,-1.49373 0.71922,-1.42392 0.29655,0.29658 -8.39312,21.0826 -8.81365,21.0826 -0.072,0 -0.95619,-1.94469 -1.96479,-4.32153 z m 13.39899,-7.58698 c 0,-0.24232 1.40691,-4.05172 3.12646,-8.46536 1.71955,-4.4136 3.40935,-8.78234 3.75507,-9.7083 0.34576,-0.92596 0.69441,-1.6178 0.77481,-1.53744 0.0804,0.0804 -0.107,0.7586 -0.41631,1.50717 -0.44524,1.07749 1.9759,-1.17425 11.62099,-10.80786 6.70087,-6.69291 12.18343,-12.39768 12.18343,-12.67727 0,-0.27959 -0.35719,-0.90136 -0.79375,-1.38172 -0.43656,-0.48035 -0.59376,-0.75806 -0.34932,-0.61714 0.87503,0.5045 6.08196,6.97322 6.08196,7.55582 0,0.32703 -8.09625,8.68967 -17.99167,18.58367 -9.89542,9.894 -17.99167,17.79079 -17.99167,17.54843 z m -6.00741,-23.63385 -2.28286,-2.38125 2.38125,2.28286 c 1.30968,1.25558 2.38125,2.32714 2.38125,2.38125 0,0.25965 -0.35922,-0.071 -2.47964,-2.28286 z"
         id="path323" /><path
         style="fill:#2e8ac8;stroke-width:0.352778"
         d="m 251.23949,440.30258 c -3.3576,-2.50261 -6.21348,-4.6712 -6.34641,-4.81905 -0.46699,-0.5195 0.84127,0.34988 3.31749,2.20451 1.37547,1.03018 2.8045,1.87307 3.17562,1.87307 0.79288,0 76.33287,-75.37739 76.36499,-76.2006 0.0229,-0.5873 1.77804,3.72234 2.70125,6.63279 l 0.59306,1.86965 -36.49363,36.49493 c -20.0715,20.07218 -36.65429,36.4949 -36.85064,36.4949 -0.19636,0 -3.10413,-2.0476 -6.46173,-4.5502 z m 84.14744,-74.33455 c -0.96532,-1.8687 -3.06712,-7.31379 -2.89107,-7.48982 0.0955,-0.0955 0.17358,-0.0293 0.17358,0.14672 0,0.17618 3.41313,-3.09005 7.58473,-7.25826 4.17159,-4.16822 7.58472,-7.73672 7.58472,-7.93001 0,-0.19329 -2.26219,-2.64234 -5.02708,-5.44232 l -5.02709,-5.09088 6.43575,6.1448 c 3.53966,3.37964 6.43685,6.35172 6.43819,6.60462 10e-4,0.25291 -0.97392,2.81872 -2.16726,5.70181 l -2.16971,5.24198 -5.20407,5.19539 -5.20408,5.19543 z m 23.15012,-24.13231 c 3.16269,-8.44076 6.01624,-15.50001 6.19379,-15.32246 0.10139,0.10138 2.67808,-2.30575 5.72597,-5.34919 3.87848,-3.87279 5.48101,-5.70296 5.33965,-6.0981 -0.11113,-0.31052 -1.06296,-1.55677 -2.11519,-2.76944 -1.05223,-1.21268 -1.82749,-2.20486 -1.72282,-2.20486 0.4228,0 9.39359,10.44531 9.39394,10.93803 2.1e-4,0.29209 -5.47469,6.00442 -12.16642,12.69405 l -12.16678,12.16296 z m -40.51734,0.27053 -2.45999,-2.55764 2.55764,2.45998 c 1.4067,1.353 2.55764,2.50393 2.55764,2.55764 0,0.25877 -0.37046,-0.0845 -2.65529,-2.45998 z"
         id="path321" /><path
         style="fill:#2e88c5;stroke-width:0.352778"
         d="m 247.88293,437.45707 -2.76568,-2.08562 1.53096,-0.11003 1.53096,-0.11003 0.0973,-3.70417 0.0973,-3.70416 37.55504,-37.57084 c 33.4249,-33.43896 37.53426,-37.66782 37.36601,-38.45278 -0.15465,-0.72154 -0.0965,-0.6832 0.31985,0.21081 0.83839,1.80035 4.11594,10.92992 4.11594,11.4649 0,0.81933 -75.56592,76.16734 -76.37701,76.15675 -0.38771,-0.005 -1.9495,-0.94773 -3.47062,-2.09483 z m 84.55825,-79.10011 c -0.19399,-0.25513 -1.2439,-2.60703 -2.33312,-5.2264 -2.18384,-5.25176 -2.61199,-6.40518 -2.13181,-5.74304 0.22063,0.30422 2.00151,-1.26101 6.06885,-5.33396 6.36351,-6.37229 6.33338,-6.31085 4.06978,-8.29831 -0.67297,-0.59088 -1.72522,-1.67222 -2.33834,-2.40298 -0.61312,-0.73076 1.85009,1.60661 5.4738,5.19415 3.6237,3.58755 6.58855,6.68456 6.58855,6.88225 0,0.19769 -3.38512,3.7418 -7.52249,7.87582 -5.72939,5.72475 -7.60657,7.40581 -7.87522,7.05247 z m -17.59529,-19.07293 -2.81395,-2.91042 2.91042,2.81395 c 1.60073,1.54767 2.91042,2.85736 2.91042,2.91041 0,0.2573 -0.39338,-0.11084 -3.00689,-2.81394 z m 14.81548,-13.75834 -2.45998,-2.55763 2.55764,2.45998 c 1.4067,1.35299 2.55764,2.50393 2.55764,2.55764 0,0.25876 -0.37047,-0.0845 -2.6553,-2.45999 z m 35.11085,0.9183 c 0,-0.70981 6.26057,-16.49955 6.57433,-16.58111 0.34908,-0.0907 4.06612,4.25302 4.41897,5.164 0.17582,0.45395 -1.15422,1.98879 -5.37986,6.20825 -3.08741,3.08286 -5.61344,5.42685 -5.61344,5.20886 z"
         id="path319" /><path
         style="fill:#3785b9;stroke-width:0.352778"
         d="m 248.15044,388.40833 c 0,-3.78354 0.0519,-5.33135 0.11533,-3.43958 0.0634,1.89177 0.0634,4.9874 0,6.87917 -0.0634,1.89177 -0.11533,0.34395 -0.11533,-3.43959 z m 0.0213,-43.74444 c 0,-17.55952 0.043,-24.74295 0.0955,-15.9632 0.0525,8.77976 0.0525,23.14664 0,31.92639 -0.0525,8.77976 -0.0955,1.59632 -0.0955,-15.96319 z m 47.25691,0.17639 c 2e-4,-5.04472 0.0498,-7.05942 0.1101,-4.47709 0.0604,2.58231 0.0602,6.70981 -3.5e-4,9.17222 -0.0606,2.4624 -0.10995,0.34959 -0.10974,-4.69513 z m -33.05023,-32.18924 c 1.79476,-0.064 4.73163,-0.064 6.52639,0 1.79476,0.064 0.32632,0.11642 -3.26319,0.11642 -3.58952,0 -5.05795,-0.0524 -3.2632,-0.11642 z"
         id="path317" /><path
         style="fill:#2d85c1;stroke-width:0.352778"
         d="m 248.35556,418.39257 v -9.35009 l 13.92288,-13.91955 c 9.28478,-9.28254 13.77993,-14.01036 13.49375,-14.19222 -0.28181,-0.17907 -0.17785,-0.27453 0.30283,-0.27809 1.19986,-0.009 5.69066,-1.65873 7.8439,-2.88181 2.5935,-1.47309 5.96499,-4.85746 7.45943,-7.48788 0.64809,-1.14071 1.62514,-3.44258 2.17123,-5.11528 0.54609,-1.6727 0.99896,-2.8835 1.00638,-2.69071 0.0215,0.55937 21.17941,-20.74996 21.18701,-21.33862 0.004,-0.29226 -2.50652,-2.992 -5.57841,-5.99943 -3.0719,-3.00743 -4.38467,-4.36415 -2.91727,-3.01493 1.46739,1.34922 5.20799,4.92784 8.31243,7.95249 l 5.64445,5.49937 1.17658,3.48252 1.17658,3.48253 -37.60089,37.60087 -37.60088,37.60089 z m 79.63241,-70.96104 c -4.12755,-9.96132 -5.52063,-13.49702 -5.37519,-13.64246 0.0984,-0.0984 0.17889,0.0432 0.17889,0.31458 0,0.27141 1.65765,-1.15855 3.68368,-3.17768 3.29623,-3.28501 3.64255,-3.74798 3.29267,-4.40173 -0.21505,-0.40183 -2.94427,-3.25374 -6.06493,-6.33757 l -5.67392,-5.60698 6.85657,6.48724 c 10.60357,10.0324 14.83926,14.25975 14.83926,14.81009 0,0.78974 -11.5046,12.11544 -11.73703,11.55451 z"
         id="path315" /><path
         style="fill:#2c81bc;stroke-width:0.352778"
         d="m 248.35556,397.93997 v -11.10256 l 2.5488,-2.56593 2.54881,-2.56592 h 8.7607 c 4.81839,0 9.87499,-0.1729 11.2369,-0.38421 1.36192,-0.21128 2.53703,-0.32336 2.61136,-0.24903 0.0743,0.0743 -6.12924,6.39801 -13.78572,14.05266 l -13.92085,13.9175 z m 25.92916,-37.0483 c 8.53557,-8.53723 15.58378,-15.52223 15.66269,-15.52223 0.37388,0 -0.3323,12.14135 -0.85153,14.64028 -0.70464,3.39133 -2.52167,7.46591 -4.29374,9.62847 -3.75771,4.5858 -10.73801,6.77224 -21.62841,6.77471 h -4.40822 l 15.51921,-15.52222 z m 20.45227,0.54966 c 0.6073,-3.48103 0.87873,-7.97849 0.88452,-14.65587 l 0.006,-7.22704 4.49791,-4.51107 4.49792,-4.51107 -4.40972,-4.2671 -4.40972,-4.2671 5.29166,4.77138 c 7.79259,7.02641 14.65782,13.75872 14.64848,14.36486 -0.005,0.29225 -4.78759,5.29288 -10.62906,11.1125 -10.1554,10.1174 -10.61023,10.52016 -10.37826,9.19051 z m 25.49286,-33.42331 c -3.94076,-9.49974 -4.18394,-10.15959 -3.67185,-9.96308 0.24568,0.0943 0.80987,-0.21517 1.25374,-0.68765 1.02297,-1.0889 0.83233,-1.46668 -2.21768,-4.39453 -1.28007,-1.2288 -2.32739,-2.32058 -2.32739,-2.42618 0,-0.52361 15.92589,14.9024 16.50774,15.9896 0.34136,0.63783 -0.023,1.12487 -3.23985,4.33079 l -3.62447,3.61213 z"
         id="path313" /><path
         style="fill:#2a7eb8;stroke-width:0.352778"
         d="m 248.35556,384.175 v -2.46944 h 2.54817 2.54818 l -2.45052,2.46944 c -1.34779,1.35819 -2.49447,2.46944 -2.54818,2.46944 -0.0537,0 -0.0977,-1.11125 -0.0977,-2.46944 z m 0,-9.61432 v -1.85325 l 20.44698,-20.44469 c 11.24584,-11.24459 20.53267,-20.35901 20.63741,-20.25427 0.10474,0.10474 0.29539,3.08791 0.42366,6.62927 l 0.23324,6.43884 -15.66569,15.66865 -15.66569,15.66866 h -5.20496 -5.20495 z m 47.13175,-39.12772 c -0.13615,-2.19903 -0.45717,-5.09271 -0.71337,-6.43041 l -0.46583,-2.43217 1.189,-1.04396 c 0.65395,-0.57417 1.189,-1.25024 1.189,-1.50236 0,-0.25212 -0.75933,-1.22786 -1.68741,-2.16832 -2.21818,-2.24776 -0.52938,-0.80614 4.62987,3.95223 2.29745,2.11894 4.31214,4.10478 4.47709,4.41298 0.23102,0.43166 -0.69583,1.55371 -4.03546,4.88531 l -4.33535,4.32495 z m 20.6058,-18.09825 c -0.18211,-0.47897 -0.81318,-2.00372 -1.40238,-3.38833 -0.58921,-1.38462 -1.07129,-2.61495 -1.07129,-2.73408 0,-0.33255 4.23627,3.90678 4.64194,4.64529 0.27826,0.50656 0.18085,0.83858 -0.43987,1.49931 -1.00505,1.06982 -1.31473,1.06584 -1.7284,-0.0222 z"
         id="path311" /><path
         style="fill:#2a7db5;stroke-width:0.352778"
         d="m 248.35556,364.42033 v -8.28866 l 18.20883,-18.21134 18.20883,-18.21136 -1.1873,-1.40521 c -0.65302,-0.77286 -0.42201,-0.5952 0.51335,0.39482 2.17812,2.30539 3.90645,5.9153 4.7076,9.83264 l 0.63272,3.09371 -20.54202,20.54202 -20.54201,20.54203 z m 45.35384,-40.12936 c -0.34986,-1.11566 -1.02507,-2.79939 -1.50046,-3.74163 -0.83282,-1.65067 -0.83704,-1.69402 -0.11557,-1.18869 1.41448,0.99074 4.59274,4.19342 4.59274,4.62803 0,0.41298 -1.77706,2.33076 -2.15974,2.33076 -0.0995,0 -0.46711,-0.91281 -0.81697,-2.02847 z m -42.60307,-11.63981 c 1.60995,-0.0655 4.14995,-0.0652 5.64445,7e-4 1.4945,0.066 0.17728,0.11957 -2.92717,0.11912 -3.10444,-3.5e-4 -4.32722,-0.0544 -2.71728,-0.11993 z"
         id="path309" /><path
         style="fill:#297ab1;stroke-width:0.352778"
         d="m 248.35556,344.30746 v -11.81913 l 9.7919,-9.78722 9.7919,-9.78722 2.11435,0.006 c 2.95667,0.009 6.4206,0.81038 8.86016,2.05091 2.16532,1.10108 4.84759,3.21403 5.40705,4.25939 0.26984,0.5042 -2.81444,3.75004 -17.81952,18.75301 l -18.14584,18.14325 z"
         id="path307" /><path
         style="fill:#2878ae;stroke-width:0.352778"
         d="m 248.35556,322.61528 v -9.70139 h 9.78717 9.78718 l -9.69658,9.70139 c -5.33311,5.33576 -9.73734,9.70139 -9.78717,9.70139 -0.0498,0 -0.0906,-4.36563 -0.0906,-9.70139 z"
         id="path305" /></g></g></svg>
