<?xml version="1.0" encoding="UTF-8" standalone="no"?>
<!-- Created with Inkscape (http://www.inkscape.org/) -->

<svg
   width="1058.333mm"
   height="352.78799mm"
   viewBox="0 0 1058.333 352.78799"
   version="1.1"
   id="svg5"
   xml:space="preserve"
   inkscape:version="1.2.2 (732a01da63, 2022-12-09)"
   sodipodi:docname="powered_by_robotpy.svg"
   xmlns:inkscape="http://www.inkscape.org/namespaces/inkscape"
   xmlns:sodipodi="http://sodipodi.sourceforge.net/DTD/sodipodi-0.dtd"
   xmlns="http://www.w3.org/2000/svg"
   xmlns:svg="http://www.w3.org/2000/svg"><sodipodi:namedview
     id="namedview7"
     pagecolor="#ffffff"
     bordercolor="#000000"
     borderopacity="0.25"
     inkscape:showpageshadow="2"
     inkscape:pageopacity="0.0"
     inkscape:pagecheckerboard="0"
     inkscape:deskcolor="#d1d1d1"
     inkscape:document-units="mm"
     showgrid="false"
     inkscape:zoom="0.26110523"
     inkscape:cx="1633.441"
     inkscape:cy="605.12001"
     inkscape:window-width="1920"
     inkscape:window-height="1009"
     inkscape:window-x="-8"
     inkscape:window-y="-8"
     inkscape:window-maximized="1"
     inkscape:current-layer="layer1" /><defs
     id="defs2" /><g
     inkscape:label="Layer 1"
     inkscape:groupmode="layer"
     id="layer1"><rect
       style="fill:#3497da;stroke-width:0.264583"
       id="rect3848"
       width="1033.587"
       height="316.15607"
       x="17.226452"
       y="18.239773" /><g
       id="g475"><path
         style="fill:#fdfdfd;stroke-width:0.352778"
         d="M 0,176.38888 V 0 h 529.1667 529.1667 V 176.38888 352.77777 H 529.1667 0 Z m 801.86994,113.68264 c 0.42968,-0.7276 14.58863,-25.26968 31.46435,-54.53795 18.05115,-31.30683 30.61576,-53.45529 30.51948,-53.79861 -0.0901,-0.32097 -14.29992,-25.03107 -31.57753,-54.91135 L 800.8624,72.495832 h -63.43731 -63.43732 l -31.63538,54.849888 c -17.39946,30.16744 -31.58945,54.93244 -31.53333,55.03334 0.5339,0.95992 59.67745,103.30219 61.11413,105.75218 l 1.91358,3.2632 h 63.62097 63.62093 z M 676.9806,180.59894 v -63.17049 l 15.43403,0.13241 c 17.28357,0.14828 17.23764,0.14264 22.62459,2.78015 5.06342,2.47911 8.62789,6.7546 10.63082,12.75152 1.77863,5.32532 1.93555,7.09339 1.91724,21.60052 -0.0169,13.40516 -0.0169,13.40566 -0.96065,16.88779 -2.58833,9.55089 -7.75236,14.87674 -16.62497,17.14597 -4.19993,1.07416 -8.99058,1.42041 -19.6529,1.42041 h -9.84038 v 26.81111 26.81111 h -1.76389 -1.76389 z m 30.59289,4.98723 c 6.61716,-1.36553 10.8894,-4.41017 13.49597,-9.61796 2.49725,-4.98936 2.65624,-6.33473 2.63903,-22.33349 -0.0145,-13.4372 -0.0523,-14.24589 -0.79351,-16.93333 -2.22204,-8.05747 -6.56516,-12.72547 -13.84758,-14.8835 -1.57632,-0.46712 -4.33247,-0.59768 -15.24166,-0.72199 l -13.31736,-0.15175 v 32.66126 32.66125 l 11.90625,-0.005 c 10.31628,-0.004 12.34059,-0.0943 15.15886,-0.67585 z m 62.54038,32.51869 -4e-5,-25.66459 -14.14572,-36.15972 c -7.78016,-19.88784 -14.36119,-36.75503 -14.62458,-37.48264 l -0.47886,-1.32291 h 1.84217 1.84217 l 13.72807,34.74861 c 7.55047,19.11173 13.83354,34.74861 13.96245,34.74861 0.1289,0 6.41057,-15.63547 13.95924,-34.74548 l 13.72489,-34.74548 1.89322,-0.003 c 1.63294,-0.003 1.87004,0.0818 1.72462,0.61423 -0.0927,0.33955 -6.77876,17.21773 -14.85783,37.50708 l -14.68918,36.88976 v 25.64014 25.64015 h -1.94027 -1.94028 z m -390.12618,25.83941 c 8.71845,-1.7595 15.65349,-7.949 18.57601,-16.579 2.06026,-6.08373 1.96843,-4.12252 2.10612,-44.97916 0.0828,-24.57169 -3.2e-4,-38.67195 -0.24035,-40.75333 -1.92606,-16.70103 -11.92759,-25.92943 -28.0725,-25.90237 -5.52803,0.009 -10.64747,1.26756 -14.61636,3.59256 -1.08031,0.63285 -3.15768,2.34126 -4.61638,3.79647 -4.75522,4.74381 -7.33721,11.39178 -8.12335,20.91549 -0.25763,3.121 -0.33688,16.19964 -0.23988,39.5859 0.15784,38.05771 0.1135,37.19081 2.22698,43.53981 2.65749,7.98327 8.28392,13.70598 15.84399,16.11508 4.84124,1.54271 11.53216,1.80346 17.15572,0.66855 z m -12.60425,-7.75452 c -5.72929,-1.24647 -9.36996,-4.61102 -11.82173,-10.92516 -2.10231,-5.4141 -2.11945,-5.8153 -1.99891,-46.75904 l 0.10954,-37.21805 0.79308,-2.82223 c 2.89267,-10.29416 8.22272,-14.64027 17.95473,-14.64027 6.02446,0 9.69056,1.17019 12.81127,4.08927 3.5839,3.35231 6.0126,9.02571 6.68482,15.61546 0.47089,4.61608 0.48965,68.3636 0.0215,73.07582 -0.44496,4.47909 -1.13122,6.99546 -2.88382,10.57462 -2.49364,5.09242 -5.99253,7.85182 -11.41144,8.99968 -3.00056,0.63558 -7.36382,0.63979 -10.25906,0.01 z m 149.48204,7.75452 c 8.71844,-1.7595 15.65349,-7.949 18.57601,-16.579 2.06026,-6.08373 1.96843,-4.12252 2.10612,-44.97916 0.0828,-24.57169 -3.2e-4,-38.67195 -0.24035,-40.75333 -1.92606,-16.70103 -11.92759,-25.92943 -28.07251,-25.90237 -5.52802,0.009 -10.64746,1.26756 -14.61636,3.59256 -1.08031,0.63285 -3.15767,2.34126 -4.61638,3.79647 -4.75523,4.74381 -7.33721,11.39178 -8.12334,20.91549 -0.25763,3.121 -0.33687,16.19964 -0.23989,39.5859 0.15783,38.05771 0.11349,37.19081 2.22698,43.53981 2.65748,7.98327 8.28393,13.70598 15.84399,16.11508 4.84124,1.54271 11.53217,1.80346 17.15573,0.66855 z m -12.60426,-7.75452 c -5.72929,-1.24647 -9.36995,-4.61102 -11.82172,-10.92516 -2.10231,-5.4141 -2.11946,-5.8153 -1.99891,-46.75904 l 0.10954,-37.21805 0.79307,-2.82223 c 2.89268,-10.29416 8.22273,-14.64027 17.95474,-14.64027 6.02445,0 9.69056,1.17019 12.81126,4.08927 3.58391,3.35231 6.01261,9.02571 6.68483,15.61546 0.47088,4.61608 0.48965,68.3636 0.0215,73.07582 -0.44495,4.47909 -1.13121,6.99546 -2.88381,10.57462 -2.49365,5.09242 -5.99253,7.85182 -11.41145,8.99968 -3.00055,0.63558 -7.36381,0.63979 -10.25906,0.01 z M 284.33891,215.15053 v -28.26614 l 9.4368,0.1903 c 10.59791,0.2137 13.09672,0.5821 17.29681,2.55007 4.44723,2.08376 7.26361,5.59516 8.76611,10.9294 0.50322,1.78656 0.63537,4.75749 0.84737,19.05 0.2625,17.69804 0.39565,19.2127 1.98115,22.53754 l 0.60799,1.27496 h 4.55017 c 2.5026,0 4.48889,-0.11906 4.41398,-0.26458 -2.42219,-4.70552 -2.45682,-4.99851 -2.74197,-23.19514 -0.21306,-13.59679 -0.3683,-17.08257 -0.86266,-19.37021 -1.91184,-8.84712 -6.36416,-14.34958 -13.60589,-16.81502 -1.3572,-0.46205 -2.46764,-0.93771 -2.46764,-1.05701 0,-0.1193 0.67469,-0.41611 1.49931,-0.65957 4.03615,-1.19163 8.77527,-4.78441 11.10542,-8.41915 2.91678,-4.54979 3.88854,-8.93976 4.19319,-18.94293 0.44845,-14.72438 -0.87613,-22.22571 -5.02714,-28.46971 -2.45906,-3.69897 -5.39728,-5.94241 -9.9444,-7.59292 -4.3735,-1.5875 -7.84315,-1.85665 -23.96319,-1.8589 l -14.90486,-0.002 v 63.32361 63.32361 h 4.40972 4.40973 z m 0,-63.05759 v -27.20961 l 10.67153,0.005 c 11.51037,0.006 13.48016,0.2299 16.8016,1.91301 3.50903,1.77815 5.55425,4.30355 7.21204,8.9053 1.43587,3.98571 1.73403,7.49045 1.56262,18.36779 -0.12219,7.75426 -0.27804,10.23088 -0.74928,11.9073 -1.46306,5.20476 -4.0558,8.59318 -8.09769,10.58276 -3.94131,1.94007 -6.5175,2.31132 -17.61124,2.5379 l -9.78958,0.19995 v -27.20961 z m 167.5637,90.31076 c 8.96038,-2.71212 14.04289,-8.49151 16.46947,-18.72775 0.7288,-3.0745 1.07742,-22.23233 0.48549,-26.68051 -0.85429,-6.41955 -3.23878,-11.88327 -6.69442,-15.33937 -2.0472,-2.04747 -6.68986,-4.67692 -9.03432,-5.11675 -1.62059,-0.30402 -1.53934,-0.6501 0.27884,-1.18731 2.6774,-0.79108 6.19206,-2.87233 7.8577,-4.65303 1.87981,-2.00969 3.34825,-4.94839 4.47234,-8.95037 0.74764,-2.66168 0.79273,-3.47444 0.79273,-14.2875 0,-10.76799 -0.0477,-11.63692 -0.78437,-14.2875 -1.21676,-4.37785 -3.05555,-7.79432 -5.52919,-10.27315 -2.38778,-2.39275 -4.45749,-3.58203 -8.14102,-4.67789 -4.1033,-1.22073 -7.80997,-1.45313 -23.17701,-1.45313 h -14.73771 v 63.34455 63.34454 l 17.55069,-0.12787 c 17.03236,-0.12409 17.62866,-0.15146 20.19078,-0.92696 z m -28.92203,-34.29543 v -27.54728 l 10.84792,0.14883 c 8.8241,0.12106 11.24282,0.26094 12.96458,0.74977 7.57404,2.15034 11.44793,6.187 13.12859,13.68023 0.88548,3.94792 0.88227,21.85502 -0.005,26.05184 -1.28157,6.06416 -4.20995,10.42165 -8.3722,12.45805 -3.43302,1.67957 -6.36287,2.00584 -18.01202,2.00584 h -10.55229 z m 0,-59.41244 v -23.8125 l 10.84792,0.005 c 11.84324,0.006 13.84706,0.24135 17.09805,2.01076 3.24929,1.76849 5.2379,4.7594 6.51725,9.80208 0.9077,3.57777 0.92128,20.36196 0.0194,23.90385 -1.24047,4.8713 -3.56383,7.91023 -7.47451,9.77663 -3.55018,1.69431 -7.14841,2.12646 -17.70571,2.12646 h -9.3024 z M 581.37781,184.15 v -59.26667 h 12.87639 12.87639 v -4.05694 -4.05695 h -29.98611 -29.98611 v 4.05695 4.05694 h 12.87639 12.87639 V 184.15 243.41666 h 4.23333 4.23333 z m 8.49528,-70.65282 c 0.65522,-0.44155 1.65986,-1.50044 2.23249,-2.35309 0.79763,-1.18764 13.54412,-33.28756 14.82146,-37.325342 0.22088,-0.698235 0.12817,-0.79375 -0.77061,-0.79375 -1.01769,0 -1.04157,0.05134 -6.0719,13.052778 -4.40098,11.374882 -5.65394,14.188254 -5.65394,12.695354 0,-0.196586 -2.32463,-6.070336 -5.16583,-13.052778 -5.15722,-12.674183 -5.16756,-12.695354 -6.21136,-12.695354 -0.84994,0 -1.0016,0.115475 -0.81082,0.617361 0.12908,0.339549 2.78846,6.93111 5.90973,14.647916 l 5.675,14.030555 -1.19768,3.24346 c -1.27364,3.44929 -2.79573,5.80637 -4.21238,6.52327 -0.47622,0.24098 -1.68229,0.44049 -2.68016,0.44335 -1.75066,0.005 -2.24261,0.32204 -2.24261,1.44516 0,0.17816 1.16717,0.32393 2.59366,0.32393 2.11423,0 2.8139,-0.1484 3.78495,-0.80282 z m -257.20362,-7.08814 v -7.538184 l 1.21777,1.148504 c 2.18884,2.06434 4.19462,2.80094 7.99225,2.93504 4.26091,0.15046 6.26736,-0.59251 8.59667,-3.183262 2.8102,-3.125632 4.05833,-8.586992 3.36371,-14.718661 -0.63038,-5.564759 -2.45706,-9.06634 -5.81039,-11.137974 -1.64799,-1.018103 -1.90053,-1.065869 -5.63227,-1.065364 -4.47612,7.05e-4 -5.85559,0.504274 -8.31119,3.034608 l -1.37656,1.418445 -0.24195,-2.138595 c -0.20002,-1.767977 -0.35633,-2.138599 -0.90195,-2.138599 -0.63721,0 -0.65998,0.706078 -0.65998,20.461111 v 20.461111 h 0.88194 0.88195 z m 6.34771,-5.49143 c -1.58003,-0.48063 -2.97403,-1.350088 -4.08954,-2.550708 -2.30054,-2.476073 -2.25817,-2.290145 -2.25817,-9.909905 0,-6.686214 0.0368,-7.061439 0.85037,-8.666917 1.08305,-2.1373 3.62124,-4.485619 5.3745,-4.972445 2.13242,-0.592113 5.74711,-0.456367 7.3601,0.276398 3.99518,1.814975 6.06585,6.951662 5.73298,14.221756 -0.19089,4.168937 -0.85691,6.461241 -2.55861,8.806141 -1.65382,2.27893 -3.56063,3.13363 -6.90475,3.09497 -1.44246,-0.0167 -3.02055,-0.15136 -3.50688,-0.29929 z m 38.35456,1.52443 c 3.5736,-1.20475 6.62361,-4.501657 7.85611,-8.492039 0.99194,-3.21148 0.9899,-9.011793 -0.004,-12.23059 -0.69264,-2.242591 -2.45678,-5.03175 -4.00096,-6.325714 -2.16828,-1.816919 -4.18923,-2.50189 -7.80729,-2.646162 -3.01713,-0.120308 -3.83258,-0.02596 -5.63351,0.651817 -2.63405,0.99132 -5.3171,3.580797 -6.66513,6.432673 -2.06608,4.371051 -2.06608,11.648228 0,16.019279 1.2979,2.745839 4.03941,5.442096 6.48998,6.382856 2.4529,0.94164 7.28348,1.04448 9.7651,0.20788 z m -8.70003,-1.80434 c -2.05687,-0.726188 -4.74687,-3.443487 -5.94974,-6.010076 -0.88251,-1.882994 -0.94834,-2.354065 -0.94834,-6.785959 0,-4.555211 0.0452,-4.854628 1.03738,-6.879167 1.32218,-2.697861 3.88507,-5.215826 6.06482,-5.95854 2.52007,-0.858668 6.26879,-0.741334 8.42719,0.263765 2.26314,1.053878 4.83263,3.899687 5.87393,6.505589 0.67327,1.684909 0.80376,2.669946 0.80376,6.068353 0,3.398407 -0.13049,4.383443 -0.80376,6.068352 -1.0413,2.605903 -3.61079,5.451712 -5.87393,6.505593 -2.13226,0.99292 -6.15488,1.09643 -8.63131,0.22209 z m 82.43211,1.84095 c 1.8004,-0.53466 5.08596,-2.512465 5.26887,-3.171708 0.0538,-0.194028 -0.12678,-0.64988 -0.40135,-1.013001 -0.47689,-0.630622 -0.56663,-0.602587 -2.00113,0.625309 -1.88341,1.61213 -4.25147,2.32797 -7.70107,2.32797 -2.17706,0 -3.0335,-0.17172 -4.49926,-0.90213 -3.85501,-1.921034 -6.13304,-5.78824 -6.37819,-10.827731 l -0.15017,-3.086805 h 11.15564 11.15565 v -2.079505 c 0,-2.862129 -1.11972,-6.272516 -2.64418,-8.053501 -0.69903,-0.816677 -2.20493,-1.937582 -3.41623,-2.542885 -1.9455,-0.972168 -2.49611,-1.082442 -5.40487,-1.082442 -2.90763,0 -3.45976,0.110472 -5.40145,1.080741 -4.07261,2.035101 -6.53892,5.89619 -7.22172,11.305872 -1.05406,8.350673 2.28794,15.241466 8.45968,17.442886 1.81783,0.64841 6.96222,0.63548 9.17978,-0.0231 z M 435.52497,83.696526 c 0.61472,-3.548902 3.308,-7.232421 6.27225,-8.578342 2.29129,-1.040359 6.29045,-0.934808 8.62309,0.227595 2.91846,1.45433 4.69011,4.126265 5.18619,7.82158 l 0.24863,1.852084 h -10.27966 -10.27963 z m 62.14552,18.782124 c 1.8004,-0.53466 5.08596,-2.512465 5.26887,-3.171708 0.0538,-0.194028 -0.12678,-0.64988 -0.40135,-1.013001 -0.47689,-0.630622 -0.56663,-0.602587 -2.00113,0.625309 -1.88341,1.61213 -4.25147,2.32797 -7.70107,2.32797 -2.17706,0 -3.0335,-0.17172 -4.49926,-0.90213 -3.85501,-1.921034 -6.13304,-5.78824 -6.37819,-10.827731 l -0.15017,-3.086805 h 11.15564 11.15565 v -2.079505 c 0,-2.862129 -1.11972,-6.272516 -2.64418,-8.053501 -0.69903,-0.816677 -2.20493,-1.937582 -3.41623,-2.542885 -1.9455,-0.972168 -2.49611,-1.082442 -5.40487,-1.082442 -2.90763,0 -3.45976,0.110472 -5.40145,1.080741 -4.07261,2.035101 -6.53892,5.89619 -7.22172,11.305872 -1.05406,8.350673 2.28794,15.241466 8.45968,17.442886 1.81783,0.64841 6.96222,0.63548 9.17978,-0.0231 z M 482.09164,83.696526 c 0.61472,-3.548902 3.308,-7.232421 6.27225,-8.578342 2.29129,-1.040359 6.29045,-0.934808 8.62309,0.227595 2.91846,1.45433 4.69011,4.126265 5.18619,7.82158 l 0.24863,1.852084 h -10.27966 -10.27963 z m 44.53333,18.311774 c 0.83333,-0.4354 2.14302,-1.35886 2.91042,-2.05213 l 1.3952,-1.260493 V 100.677 c 0,1.87824 0.0459,1.98133 0.88194,1.98133 h 0.88195 V 81.138887 59.619443 h -0.88195 -0.88194 v 9.045501 9.045501 l -1.36638,-1.5523 c -2.04047,-2.318075 -4.19142,-3.270127 -7.74771,-3.429237 -3.85236,-0.172356 -5.65869,0.360839 -7.82711,2.31043 -3.36995,3.029875 -4.8478,7.90308 -4.47093,14.742604 0.33941,6.158611 2.43021,10.268008 6.24409,12.272498 1.8486,0.97158 2.11131,1.01265 5.64304,0.88226 2.9736,-0.10979 4.003,-0.2929 5.21938,-0.9284 z m -9.6291,-1.4299 c -2.96366,-1.372116 -4.88248,-4.72499 -5.49367,-9.599327 -0.79795,-6.363741 1.12691,-12.811802 4.55792,-15.268427 1.37263,-0.982803 1.84609,-1.111257 4.50773,-1.222946 2.64707,-0.111076 3.18445,-0.02184 4.8883,0.811773 2.13526,1.044688 3.33382,2.297201 4.61204,4.819643 0.82395,1.625956 0.8624,1.998299 0.8624,8.347311 v 6.645437 l -0.99565,1.568373 c -1.17965,1.858228 -3.02253,3.339563 -5.04031,4.051483 -2.08312,0.73497 -6.15068,0.65601 -7.89876,-0.15332 z m 54.34122,1.59818 c 2.22017,-1.03384 4.50271,-3.581469 5.43045,-6.061049 1.07865,-2.882942 1.51243,-7.300849 1.08624,-11.063054 -0.63038,-5.564759 -2.45707,-9.06634 -5.8104,-11.137974 -1.648,-1.018103 -1.90052,-1.065869 -5.63227,-1.065364 -4.48112,7.05e-4 -5.67037,0.43483 -8.24653,3.010997 l -1.48121,1.481201 v -8.860945 -8.860949 h -0.88195 -0.88194 v 21.519444 c 0,21.016553 0.0159,21.519443 0.68015,21.519443 0.56194,0 0.72341,-0.34587 0.92873,-1.98925 0.18182,-1.455296 0.33418,-1.836193 0.56765,-1.419055 0.43875,0.784015 3.1962,2.639695 4.79528,3.227065 0.73095,0.2685 2.73321,0.49384 4.49347,0.50572 2.62033,0.0177 3.48551,-0.12318 4.95233,-0.80623 z m -8.30601,-1.24255 c -1.62296,-0.52383 -2.98613,-1.379515 -4.08955,-2.567128 -2.30053,-2.476073 -2.25816,-2.290145 -2.25816,-9.909905 0,-6.686214 0.0368,-7.061439 0.85037,-8.666917 1.08306,-2.1373 3.62126,-4.485619 5.3745,-4.972445 1.98063,-0.549966 5.59142,-0.465409 7.10381,0.166356 2.61123,1.090771 4.48452,3.72806 5.54786,7.810588 0.62269,2.390676 0.68629,7.307365 0.13035,10.075654 -0.55852,2.781007 -2.3561,5.864652 -4.16355,7.142267 -1.35534,0.95803 -1.78696,1.06537 -4.55433,1.13262 -1.68137,0.0409 -3.45496,-0.0541 -3.9413,-0.21109 z M 404.77305,91.281248 c 2.0374,-6.257396 3.9049,-12.131146 4.14994,-13.052778 0.24507,-0.921631 0.53848,-1.675694 0.65204,-1.675694 0.11355,0 0.40696,0.754063 0.65204,1.675694 0.24503,0.921632 2.11253,6.795382 4.14993,13.052778 l 3.70438,11.377082 h 1.01473 c 0.6628,0 1.07696,-0.2141 1.19426,-0.61736 0.0987,-0.33955 2.01443,-6.900697 4.25711,-14.58033 2.24264,-7.679633 4.07755,-14.069321 4.07755,-14.199305 0,-0.129985 -0.46556,-0.236337 -1.03456,-0.236337 -0.67924,0 -1.09844,0.212034 -1.22061,0.617361 -1.24795,4.14135 -6.56142,23.171266 -6.74843,24.169176 -0.13673,0.729745 -0.35528,1.392731 -0.48563,1.473299 -0.13035,0.08057 -1.31452,-3.294624 -2.63148,-7.500423 -6.27768,-20.048357 -5.80404,-18.759413 -6.89317,-18.759413 -0.97734,0 -0.98157,0.0108 -5.1695,13.264155 -2.80818,8.886977 -4.27373,13.048883 -4.44101,12.611806 -0.13734,-0.358793 -1.61992,-5.534682 -3.29467,-11.501977 -4.47382,-15.940684 -3.90987,-14.373984 -5.17401,-14.373984 -0.71173,0 -1.03043,0.151017 -0.93059,0.440973 0.0835,0.242534 2.03422,6.910034 4.33489,14.816666 l 4.18307,14.375693 h 0.97465 c 0.96764,0 1.00136,-0.082 4.67907,-11.377082 z m 60.96565,1.058333 c 0.12513,-11.612093 0.20588,-12.020119 2.99011,-15.10805 1.77274,-1.966083 3.61826,-2.777956 6.33694,-2.787675 1.64575,-0.0059 2.21866,-0.142003 2.38126,-0.565767 0.45511,-1.185975 0.22708,-1.276583 -2.90128,-1.152775 -2.73266,0.108147 -3.3286,0.254582 -4.8507,1.191909 -0.98256,0.605067 -2.23262,1.808335 -2.88181,2.773898 l -1.14652,1.705282 v -2.127684 c 0,-2.58247 -0.22345,-3.243721 -1.09608,-3.243721 -0.64464,0 -0.66781,0.514322 -0.66781,14.816667 v 14.816665 h 0.86236 0.86233 z"
         id="path707" /><path
         style="fill:#d6e8f6;stroke-width:0.352778"
         d="m 691.1799,72.407715 c 9.45886,-0.05224 24.93699,-0.05224 34.39584,0 9.45885,0.05224 1.71979,0.09499 -17.19792,0.09499 -18.91771,0 -26.65677,-0.04274 -17.19792,-0.09499 z"
         id="path705" /><path
         style="fill:#c4eafd;stroke-width:0.352778"
         d="m 284.15429,215.19444 c 0,-15.61924 0.0433,-22.00892 0.0963,-14.19931 0.053,7.80962 0.053,20.589 0,28.39861 -0.053,7.80962 -0.0963,1.41994 -0.0963,-14.1993 z m 45.14553,4.23333 c 0,-6.49993 0.0476,-9.15899 0.10585,-5.90902 0.0582,3.24996 0.0582,8.56809 0,11.81805 -0.0582,3.24997 -0.10585,0.5909 -0.10585,-5.90903 z m 15.53354,-39.15833 c 0,-18.72368 0.0428,-26.38337 0.095,-17.02153 0.0523,9.36184 0.0523,24.68122 0,34.04306 -0.0523,9.36184 -0.095,1.70215 -0.095,-17.02153 z m -60.67411,-28.39861 0.003,-27.16389 9.70139,-0.008 9.70139,-0.008 -9.61102,0.10214 -9.61102,0.10214 -0.0936,27.07012 -0.0936,27.07012 0.003,-27.16389 z m 45.12949,-0.70556 c 3.3e-4,-3.68652 0.0526,-5.14672 0.11617,-3.24487 0.0636,1.90185 0.0633,4.9181 -7.1e-4,6.70278 -0.0639,1.78468 -0.11589,0.22862 -0.11555,-3.45791 z"
         id="path703" /><path
         style="fill:#c8e8f9;stroke-width:0.352778"
         d="m 429.9647,172.59838 c 1.60994,-0.0655 4.14994,-0.0651 5.64445,7e-4 1.4945,0.066 0.17727,0.11957 -2.92718,0.11912 -3.10444,-3.5e-4 -4.32721,-0.0544 -2.71727,-0.11993 z m 0.84564,-47.9781 c 2.07504,-0.0623 5.56754,-0.0625 7.76112,-3.5e-4 2.19357,0.062 0.49579,0.11294 -3.77282,0.1132 -4.26861,2.7e-4 -6.06333,-0.0504 -3.9883,-0.11271 z"
         id="path701" /><path
         style="fill:#c6e8fa;stroke-width:0.352778"
         d="m 422.79576,208.13888 c 0,-15.23118 0.0434,-21.46211 0.0965,-13.84652 0.0531,7.61559 0.0531,20.07746 0,27.69305 -0.0531,7.61559 -0.0965,1.38465 -0.0965,-13.84653 z m -0.006,-35.71874 c -0.0926,-0.24254 -0.12735,-11.07723 -0.0771,-24.07709 l 0.0914,-23.63611 2.20645,-0.0275 2.20641,-0.0275 -2.11822,0.13254 -2.11825,0.13254 v 23.77883 23.77883 l 2.20486,0.12525 2.20486,0.12525 -2.21594,0.068 c -1.501,0.046 -2.2703,-0.0743 -2.38443,-0.373 z"
         id="path699" /><path
         style="fill:#c8e6f8;stroke-width:0.352778"
         d="m 481.71114,180.26944 c 0,-18.72368 0.0428,-26.38337 0.0951,-17.02153 0.0523,9.36184 0.0523,24.68122 0,34.04306 -0.0523,9.36184 -0.0951,1.70215 -0.0951,-17.02153 z"
         id="path697" /><path
         style="fill:#cbe4f5;stroke-width:0.352778"
         d="m 553.61963,124.61915 c 3.65073,-0.0574 9.52448,-0.0573 13.05278,2e-4 3.52831,0.0575 0.54138,0.10444 -6.63765,0.10433 -7.17903,-1.1e-4 -10.06585,-0.0472 -6.41513,-0.10453 z m 34.01999,1.1e-4 c 3.54101,-0.0575 9.33538,-0.0575 12.87639,0 3.54101,0.0575 0.64382,0.10462 -6.43819,0.10462 -7.08202,0 -9.97921,-0.0471 -6.4382,-0.10462 z"
         id="path695" /><path
         style="fill:#cae0ee;stroke-width:0.352778"
         d="m 676.79557,216.95833 c 0,-14.84313 0.0435,-20.91531 0.0967,-13.49375 0.0532,7.42156 0.0532,19.56594 0,26.9875 -0.0532,7.42156 -0.0967,1.34937 -0.0967,-13.49375 z m 3.87766,7.23194 c -4e-5,-10.86555 0.0447,-15.36151 0.0995,-9.99102 0.0548,5.3705 0.0548,14.2605 10e-5,19.75556 -0.0547,5.49506 -0.0995,1.10102 -0.0996,-9.76454 z m -3.89555,-41.80416 c 0,-4.1716 0.051,-5.87816 0.11338,-3.79236 0.0624,2.08579 0.0624,5.49892 0,7.58472 -0.0624,2.0858 -0.11338,0.37923 -0.11338,-3.79236 z m -0.0127,-40.74584 c 0,-2.52236 0.0568,-3.50794 0.12488,-2.19018 0.068,1.31775 0.0676,3.3815 0,4.58611 -0.0687,1.2046 -0.12435,0.12644 -0.12375,-2.39593 z m -0.007,-20.63749 c 0,-2.0373 0.0583,-2.87073 0.12954,-1.85209 0.0713,1.01865 0.0713,2.68552 0,3.70417 -0.0713,1.01864 -0.12954,0.18521 -0.12954,-1.85208 z"
         id="path693" /><path
         style="fill:#cadeed;stroke-width:0.352778"
         d="m 680.65771,197.37916 c 2.8e-4,-4.07458 0.0516,-5.69314 0.11412,-3.5968 0.0625,2.09635 0.0622,5.4301 0,7.40834 -0.0628,1.97824 -0.11388,0.26305 -0.11359,-3.81154 z m 0.007,-21.34305 c 0,-5.72382 0.0485,-8.06538 0.10784,-5.20347 0.0593,2.8619 0.0593,7.54503 0,10.40694 -0.0593,2.86191 -0.10784,0.52035 -0.10784,-5.20347 z M 676.75835,171.45 c 0,-2.0373 0.0583,-2.87073 0.12954,-1.85209 0.0713,1.01865 0.0713,2.68552 0,3.70417 -0.0713,1.01865 -0.12954,0.18521 -0.12954,-1.85208 z m 0.0233,-16.40417 c 2.1e-4,-5.04472 0.0497,-7.05941 0.1101,-4.47709 0.0604,2.58232 0.0602,6.70982 0,9.17222 -0.0606,2.4624 -0.10996,0.34959 -0.10975,-4.69513 z m -0.007,-24.16528 c 0,-3.58951 0.0524,-5.05795 0.11642,-3.26319 0.064,1.79476 0.064,4.73163 0,6.52639 -0.064,1.79475 -0.11642,0.32632 -0.11642,-3.2632 z"
         id="path691" /><path
         style="fill:#c9ddea;stroke-width:0.352778"
         d="m 680.6745,143.58055 c 0,-12.32076 0.0442,-17.36107 0.0983,-11.20069 0.054,6.16038 0.054,16.241 0,22.40139 -0.054,6.16038 -0.0983,1.12007 -0.0983,-11.2007 z"
         id="path689" /><path
         style="fill:#add5f0;stroke-width:0.352778"
         d="m 757.123,72.407771 c 7.89213,-0.05291 20.90963,-0.05293 28.92778,-4.6e-5 8.01815,0.05288 1.56094,0.09617 -14.34934,0.0962 -15.91028,2.8e-5 -22.47057,-0.04324 -14.57844,-0.09615 z"
         id="path687" /><path
         style="fill:#cdcdcd;stroke-width:0.352778"
         d="m 433.32974,87.841665 c 0,-1.455209 0.0623,-2.050521 0.1384,-1.322917 0.0761,0.727604 0.0761,1.918229 0,2.645833 -0.0761,0.727605 -0.1384,0.132292 -0.1384,-1.322916 z m 46.56667,0 c 0,-1.455209 0.0623,-2.050521 0.1384,-1.322917 0.0761,0.727604 0.0761,1.918229 0,2.645833 -0.0761,0.727605 -0.1384,0.132292 -0.1384,-1.322916 z"
         id="path685" /><path
         style="fill:#8bd8fc;stroke-width:0.352778"
         d="m 283.03962,116.85797 c 4.03907,-0.0566 10.54782,-0.0566 14.46389,1.6e-4 3.91606,0.0567 0.61137,0.10308 -7.34377,0.10299 -7.95514,-10e-5 -11.1592,-0.0465 -7.12012,-0.10315 z"
         id="path683" /><path
         style="fill:#8dd5f9;stroke-width:0.352778"
         d="m 353.29981,180.26944 c 0,-18.1416 0.0429,-25.56316 0.0953,-16.49236 0.0524,9.0708 0.0524,23.91392 0,32.98472 -0.0524,9.0708 -0.0953,1.64924 -0.0953,-16.49236 z m 17.91063,-64.46254 c 0.7276,-0.0761 1.91823,-0.0761 2.64583,0 0.72761,0.0761 0.1323,0.13838 -1.32291,0.13838 -1.45521,0 -2.05052,-0.0623 -1.32292,-0.13838 z"
         id="path681" /><path
         style="fill:#91d1f4;stroke-width:0.352778"
         d="m 427.4785,235.74466 c 2.57087,-0.0603 6.77774,-0.0603 9.34861,0 2.57087,0.0603 0.46743,0.1096 -4.67431,0.1096 -5.14173,0 -7.24517,-0.0493 -4.6743,-0.1096 z m -0.17639,-55.38604 c 2.47385,-0.0606 6.52198,-0.0606 8.99583,0 2.47386,0.0606 0.4498,0.11026 -4.49791,0.11026 -4.94771,0 -6.97177,-0.0496 -4.49792,-0.11026 z m -5.64444,-63.50058 c 4.02607,-0.0566 10.6142,-0.0566 14.64027,0 4.02608,0.0566 0.73202,0.10291 -7.32014,0.10291 -8.05215,0 -11.34621,-0.0463 -7.32013,-0.10291 z"
         id="path679" /><path
         style="fill:#94cef0;stroke-width:0.352778"
         d="m 490.17759,180.26944 c 0,-18.1416 0.0429,-25.56316 0.0953,-16.49236 0.0524,9.0708 0.0524,23.91392 0,32.98472 -0.0524,9.0708 -0.0953,1.64924 -0.0953,-16.49236 z m 17.91064,-64.46254 c 0.7276,-0.0761 1.91823,-0.0761 2.64583,0 0.7276,0.0761 0.13229,0.13838 -1.32292,0.13838 -1.45521,0 -2.05052,-0.0623 -1.32291,-0.13838 z"
         id="path677" /><path
         style="fill:#9acbec;stroke-width:0.352778"
         d="m 589.6023,116.85813 c 3.26228,-0.0583 8.50103,-0.0582 11.64167,2.5e-4 3.14064,0.0584 0.47148,0.10608 -5.93143,0.10595 -6.40292,-1.3e-4 -8.97252,-0.0479 -5.71024,-0.1062 z"
         id="path675" /><path
         style="fill:#96cbed;stroke-width:0.352778"
         d="m 556.2424,116.85789 c 5.09323,-0.0551 13.4276,-0.0551 18.52083,0 5.09323,0.0551 0.92604,0.10017 -9.26042,0.10017 -10.18646,0 -14.35364,-0.0451 -9.26041,-0.10017 z"
         id="path673" /><path
         style="fill:#95c0dd;stroke-width:0.352778"
         d="m 727.93314,154.16389 c 0,-4.75368 0.05,-6.69837 0.11099,-4.32153 0.061,2.37684 0.061,6.26621 0,8.64305 -0.061,2.37684 -0.11099,0.43216 -0.11099,-4.32152 z"
         id="path671" /><path
         style="fill:#93bbd6;stroke-width:0.352778"
         d="m 686.4174,121.0916 c 3.15296,-0.0585 8.31233,-0.0585 11.46528,0 3.15295,0.0585 0.57327,0.10631 -5.73264,0.10631 -6.3059,0 -8.88559,-0.0478 -5.73264,-0.10631 z m -2.82222,-3.88072 c 3.73504,-0.0571 9.84691,-0.0571 13.58195,0 3.73503,0.0571 0.67909,0.10389 -6.79098,0.10389 -7.47007,0 -10.526,-0.0467 -6.79097,-0.10389 z"
         id="path669" /><path
         style="fill:#51c5fc;stroke-width:0.352778"
         d="m 275.69203,180.26944 c 0,-34.82798 0.0414,-49.0758 0.092,-31.6618 0.0506,17.41399 0.0506,45.90961 0,63.32361 -0.0506,17.41399 -0.092,3.16618 -0.092,-31.66181 z m 11.73368,6.43993 c 1.79476,-0.064 4.73163,-0.064 6.52639,0 1.79476,0.064 0.32632,0.11642 -3.26319,0.11642 -3.58952,0 -5.05795,-0.0524 -3.2632,-0.11642 z"
         id="path667" /><path
         style="fill:#52c4fa;stroke-width:0.352778"
         d="m 320.83338,217.4875 c 1.3e-4,-6.59695 0.0477,-9.24585 0.10575,-5.88645 0.058,3.3594 0.0579,8.7569 -2.3e-4,11.99445 -0.0582,3.23754 -0.10564,0.48894 -0.10552,-6.108 z m -0.005,-65.26389 c -2.2e-4,-4.8507 0.0495,-6.884 0.11041,-4.51846 0.0609,2.36555 0.0611,6.3343 3.5e-4,8.81945 -0.0607,2.48515 -0.11058,0.5497 -0.1108,-4.30099 z"
         id="path665" /><path
         style="fill:#58bff4;stroke-width:0.352778"
         d="m 400.57238,180.26944 c 0,-19.11174 0.0427,-26.93017 0.0949,-17.3743 0.0522,9.55586 0.0522,25.19274 0,34.74861 -0.0522,9.55586 -0.0949,1.73743 -0.0949,-17.37431 z"
         id="path663" /><path
         style="fill:#59bcf2;stroke-width:0.352778"
         d="m 414.33372,180.26944 c 0,-34.82798 0.0414,-49.0758 0.092,-31.6618 0.0506,17.41399 0.0506,45.90961 0,63.32361 -0.0506,17.41399 -0.092,3.16618 -0.092,-31.66181 z"
         id="path661" /><path
         style="fill:#5db9ed;stroke-width:0.352778"
         d="m 468.99201,208.66805 c 2.9e-4,-4.26861 0.0512,-5.96637 0.11321,-3.77281 0.062,2.19357 0.0618,5.68607 0,7.76111 -0.0623,2.07505 -0.11299,0.28031 -0.11275,-3.9883 z m -10.58788,-59.97222 c 3.5e-4,-3.4925 0.0532,-4.87353 0.1173,-3.06896 0.0642,1.80457 0.0639,4.66207 0,6.35 -0.0645,1.68793 -0.11702,0.21146 -0.11663,-3.28104 z"
         id="path659" /><path
         style="fill:#62b4e7;stroke-width:0.352778"
         d="m 537.45017,180.26944 c 0,-19.11174 0.0427,-26.93017 0.0949,-17.3743 0.0522,9.55586 0.0522,25.19274 0,34.74861 -0.0522,9.55586 -0.0949,1.73743 -0.0949,-17.37431 z"
         id="path657" /><path
         style="fill:#64b2e4;stroke-width:0.352778"
         d="m 573.08348,184.15 c 0,-32.69368 0.0415,-46.06837 0.0922,-29.72153 0.0507,16.34684 0.0507,43.09621 0,59.44305 -0.0507,16.34684 -0.0922,2.97216 -0.0922,-29.72152 z"
         id="path655" /><path
         style="fill:#65afe1;stroke-width:0.352778"
         d="m 769.91716,233.53888 c 0,-5.72382 0.0485,-8.06538 0.10784,-5.20347 0.0593,2.86191 0.0593,7.54504 0,10.40695 -0.0593,2.86191 -0.10784,0.52034 -0.10784,-5.20348 z m 4.23637,-2.11666 c 0,-6.88799 0.0473,-9.7058 0.10502,-6.26181 0.0577,3.44399 0.0577,9.07962 0,12.52361 -0.0578,3.444 -0.10502,0.62618 -0.10502,-6.2618 z M 606.90979,120.82639 c 0,-2.13431 0.0589,-2.96195 0.12912,-1.83921 0.0702,1.12275 0.0696,2.869 0,3.88056 -0.071,1.01156 -0.12848,0.093 -0.12767,-2.04135 z"
         id="path653" /><path
         style="fill:#65abdb;stroke-width:0.352778"
         d="m 769.92319,207.9625 c 1.1e-4,-8.53723 0.0461,-11.97925 0.10227,-7.64894 0.0562,4.33031 0.0561,11.31531 -1.4e-4,15.52222 -0.0563,4.20692 -0.1022,0.66394 -0.10213,-7.87328 z m 4.23136,-2.11667 c -1.1e-4,-7.37306 0.0467,-10.43944 0.10396,-6.81419 0.0573,3.62525 0.0574,9.65775 1.8e-4,13.40555 -0.0572,3.74781 -0.10407,0.78169 -0.10414,-6.59136 z"
         id="path651" /><path
         style="fill:#9b9b9b;stroke-width:0.352778"
         d="m 332.4675,106.18611 c 0,-4.36563 0.0506,-6.15156 0.11254,-3.96875 0.0619,2.18281 0.0619,5.75469 0,7.9375 -0.0619,2.18281 -0.11254,0.39687 -0.11254,-3.96875 z M 532.50751,81.138887 c 0,-11.932708 0.0444,-16.81427 0.0986,-10.847916 0.0542,5.966354 0.0542,15.729478 0,21.695833 -0.0542,5.966354 -0.0986,1.084791 -0.0986,-10.847917 z m -200.04316,7.055555 c 0,-3.783541 0.0519,-5.331354 0.11533,-3.439583 0.0634,1.891771 0.0634,4.987396 0,6.879167 -0.0634,1.891771 -0.11533,0.343958 -0.11533,-3.439584 z m 224.01391,0 c 0,-3.783541 0.0519,-5.331354 0.11533,-3.439583 0.0634,1.891771 0.0634,4.987396 0,6.879167 -0.0634,1.891771 -0.11533,0.343958 -0.11533,-3.439584 z m -46.95137,-0.176388 c 0,-1.358195 0.0653,-1.87059 0.14171,-1.138661 0.0764,0.731933 0.0751,1.843183 -0.004,2.469444 -0.0779,0.626265 -0.1404,0.02741 -0.13885,-1.330783 z m 46.95776,-19.226389 c 0,-5.141736 0.0493,-7.245173 0.10961,-4.674305 0.0603,2.570868 0.0603,6.777743 0,9.348611 -0.0603,2.570868 -0.10961,0.46743 -0.10961,-4.674306 z"
         id="path649" /><path
         style="fill:#18b4fc;stroke-width:0.352778"
         d="m 275.87224,180.26944 v -63.14722 h 5.11528 5.11528 v 3.70417 3.70416 h -1.05834 -1.05833 v 27.34028 27.34028 h 1.05833 1.05834 v 3.70416 3.70417 h -1.05834 -1.05833 v 28.39861 28.39861 h -4.05695 -4.05694 z"
         id="path647" /><path
         style="fill:#18b3fc;stroke-width:0.352778"
         d="m 291.83544,186.70827 -5.73264,-0.10631 v -3.69542 -3.69543 h 6.52639 6.52638 v 3.88055 c 0,3.81245 -0.0139,3.87918 -0.79375,3.80174 -0.43656,-0.0434 -3.37343,-0.12666 -6.52638,-0.18513 z m -5.73264,-65.88188 v -3.70417 h 6.52639 6.52638 v 3.70417 3.70416 h -6.52638 -6.52639 z"
         id="path645" /><path
         style="fill:#19b2fb;stroke-width:0.352778"
         d="m 301.36044,187.0638 -2.20487,-0.12525 v -3.83477 -3.83477 l 2.47024,-0.11715 2.47024,-0.11714 -7e-4,4.14514 c -3.5e-4,2.27982 -0.11986,4.11455 -0.26538,4.07716 -0.14552,-0.0374 -1.25677,-0.12433 -2.46944,-0.19322 z m -2.20487,-66.23741 v -3.70417 h 2.46945 2.46944 v 3.70417 3.70416 h -2.46944 -2.46945 z"
         id="path643" /><path
         style="fill:#1ab2fa;stroke-width:0.352778"
         d="m 315.55974,192.47057 c -2.45668,-2.49185 -5.07241,-3.88236 -8.84207,-4.70041 l -2.62321,-0.56925 v -4.1025 -4.1025 l 2.58247,-0.43393 c 4.23491,-0.71159 8.205,-2.86509 10.15019,-5.50579 l 1.02568,-1.39241 v 4.27719 4.27719 l -2.81084,1.08397 c -1.54597,0.59619 -3.05409,1.08398 -3.35139,1.08398 -1.11504,0 -0.4818,0.57493 1.09889,0.9977 0.9017,0.24117 2.40982,0.76989 3.35139,1.17495 l 1.71195,0.73645 v 4.71906 c 0,2.59548 -0.0397,4.69301 -0.0882,4.66116 -0.0485,-0.0318 -1.04069,-1.02402 -2.20486,-2.20486 z m 1.94028,-60.90558 c 0,-0.82141 -3.62511,-4.14539 -5.54754,-5.08671 -1.11694,-0.54691 -3.34192,-1.24191 -4.94441,-1.54445 l -2.91361,-0.55005 v -3.63078 -3.63078 h 1.01213 c 2.11069,0 7.26775,1.11357 9.95331,2.14923 l 2.7929,1.07705 v 5.7952 c 0,3.18735 -0.0794,5.79519 -0.17639,5.79519 -0.097,0 -0.17639,-0.16826 -0.17639,-0.3739 z"
         id="path641" /><path
         style="fill:#1ab1fa;stroke-width:0.352778"
         d="m 322.3839,240.41805 c -0.3213,-0.97014 -0.69943,-2.16076 -0.84029,-2.64583 -0.14086,-0.48507 -0.37841,-8.50195 -0.52788,-17.81528 -0.15586,-9.71154 -0.43362,-17.65461 -0.65126,-18.62454 -0.20872,-0.93016 -0.81192,-2.67641 -1.34045,-3.88055 -0.86304,-1.96628 -0.97356,-2.6836 -1.08468,-7.04005 -0.0747,-2.92786 0.01,-4.85069 0.21268,-4.85069 0.45632,0 4.66565,3.18443 4.85078,3.66969 0.0813,0.21299 0.10668,12.21413 0.0565,26.6692 -0.0868,25.0051 -0.11962,26.19625 -0.67541,24.51805 z m -4.4449,-64.77506 c 0.11174,-3.81658 0.24926,-4.64637 1.08695,-6.55873 1.48306,-3.38565 1.68509,-4.92367 1.89161,-14.40059 0.23306,-10.69439 -0.14013,-14.86788 -1.71443,-19.1733 -1.05098,-2.87423 -1.11991,-3.36996 -1.24765,-8.97246 l -0.13521,-5.93014 0.8007,0.42852 c 0.44038,0.23568 1.63832,1.22071 2.66209,2.18895 l 1.8614,1.76043 v 25.50767 25.50765 l -1.56483,1.30804 c -0.86066,0.71942 -2.06067,1.62198 -2.66669,2.00568 l -1.10186,0.69765 z"
         id="path639" /><path
         style="fill:#1bb0f9;stroke-width:0.352778"
         d="m 323.3586,242.85864 c -0.11778,-0.30691 -0.21414,-12.39651 -0.21414,-26.86579 0,-26.05231 0.007,-26.30172 0.68729,-25.68578 1.12068,1.01421 3.46619,6.14233 4.28344,9.36515 0.70215,2.76894 0.78122,4.28207 1.0323,19.75555 0.28328,17.45718 0.38048,18.5547 1.96061,22.13681 l 0.81698,1.85208 h -4.17617 c -3.4827,0 -4.21174,-0.0927 -4.39031,-0.55802 z m -0.21414,-92.39375 v -25.39257 l 0.92665,1.36368 c 2.44764,3.60203 4.05955,8.44828 4.70507,14.14594 0.45742,4.03739 0.46652,16.71035 0.0148,20.6375 -0.61883,5.38012 -2.07731,9.61783 -4.46688,12.97881 l -1.17965,1.65921 v -25.39257 z"
         id="path637" /><path
         style="fill:#1eaef6;stroke-width:0.352778"
         d="m 361.95715,242.67926 c -1.06324,-0.37722 -2.7698,-1.19292 -3.79236,-1.81266 l -1.85921,-1.12679 v -5.81536 -5.81537 l 1.01007,1.59271 c 1.44456,2.27783 3.44431,4.10787 5.7809,5.29023 l 2.02847,1.02646 v 3.69909 c 0,4.23073 0.11254,4.12552 -3.16787,2.96169 z m -5.55276,-116.20744 0.0776,-5.99624 1.76389,-0.96634 c 1.62556,-0.89054 4.14387,-1.94258 6.08541,-2.5422 0.78938,-0.2438 0.79375,-0.22418 0.79245,3.57099 v 3.81613 l -2.29895,1.18875 c -2.35962,1.22014 -4.63434,3.43759 -5.83734,5.69042 l -0.65934,1.23472 0.0776,-5.99623 z"
         id="path635" /><path
         style="fill:#1daef6;stroke-width:0.352778"
         d="m 354.08205,237.79159 c -4.00549,-3.75852 -6.55218,-8.66238 -8.0711,-15.54159 l -0.81787,-3.70417 v -38.27639 c 0,-35.5083 0.046,-38.50274 0.63682,-41.40637 0.8264,-4.06171 2.36116,-8.22856 4.12333,-11.19472 1.34969,-2.27186 5.33335,-6.66557 6.04353,-6.66557 0.21057,0 0.2891,2.3198 0.20602,6.08541 -0.12686,5.74961 -0.19452,6.25089 -1.22601,9.08403 -1.84245,5.06057 -1.90066,6.59194 -1.76272,46.39028 0.12393,35.75142 0.13804,36.38152 0.87732,39.15833 0.41324,1.55222 1.08423,3.59817 1.49108,4.54655 0.66834,1.55786 0.73043,2.29009 0.64326,7.58472 l -0.0965,5.86039 z"
         id="path633" /><path
         style="fill:#20acf4;stroke-width:0.352778"
         d="m 377.82502,240.27106 c 0,-3.27866 0.0874,-3.90995 0.54109,-3.90995 0.45876,0 0.52589,0.57295 0.44098,3.76366 -0.0698,2.62318 -0.23375,3.80799 -0.54109,3.90995 -0.33507,0.11115 -0.44098,-0.79286 -0.44098,-3.76366 z M 378.266,123.94414 c -0.31316,-0.12637 -0.44098,-1.24298 -0.44098,-3.85271 0,-3.03127 0.0927,-3.67477 0.52917,-3.67477 0.43829,0 0.52917,0.66636 0.52917,3.88056 0,2.13431 -0.0397,3.86802 -0.0882,3.8527 -0.0485,-0.0153 -0.28663,-0.10792 -0.52916,-0.20578 z"
         id="path631" /><path
         style="fill:#20acf3;stroke-width:0.352778"
         d="m 378.9592,240.08798 0.10055,-3.76461 1.9782,-0.80327 c 1.08803,-0.4418 2.4771,-1.15849 3.0868,-1.59265 l 1.10861,-0.78939 v 4.4084 4.4084 l -1.88112,0.70382 c -1.03463,0.3871 -2.46895,0.81409 -3.18738,0.94887 l -1.30623,0.24505 z m 4.54262,-113.97187 c -0.66128,-0.46712 -1.97097,-1.12569 -2.91042,-1.46351 l -1.70804,-0.6142 v -3.77337 -3.77337 l 1.3807,0.31023 c 0.75942,0.17062 2.14849,0.59502 3.0868,0.9431 l 1.70611,0.63286 0.0991,4.31108 c 0.0545,2.37109 -0.025,4.30328 -0.17639,4.29377 -0.15148,-0.01 -0.8165,-0.39949 -1.47782,-0.86659 z"
         id="path629" /><path
         style="fill:#1eacf4;stroke-width:0.352778"
         d="m 369.53475,244.29775 c -0.19403,-0.0669 -1.26559,-0.22449 -2.38125,-0.35031 l -2.02848,-0.22877 v -3.87894 c 0,-3.5312 0.0553,-3.86197 0.61736,-3.68956 1.98057,0.60755 6.26767,0.97444 8.99584,0.76985 l 3.0868,-0.23149 v 3.6689 3.66888 l -1.63674,0.22435 c -1.68829,0.2314 -6.0294,0.26213 -6.65353,0.0471 z m -4.40973,-123.65383 c 0,-3.62466 0.0349,-3.80304 0.79375,-4.03788 1.13965,-0.35275 9.91659,-0.67531 10.997,-0.40414 0.90343,0.22674 0.90925,0.25147 0.90925,3.85671 v 3.62851 l -4.14514,-0.14149 c -2.85203,-0.0974 -4.83295,0.0195 -6.35,0.37448 l -2.20486,0.51599 z"
         id="path627" /><path
         style="fill:#22aaf1;stroke-width:0.352778"
         d="m 398.34463,180.26944 c 0.01,-40.96051 0.0734,-46.54667 0.51364,-45.15555 1.48862,4.70397 1.54164,6.25652 1.54312,45.18158 0,39.10027 -0.0367,40.19538 -1.57505,45.13417 -0.42753,1.37262 -0.49152,-4.62567 -0.48171,-45.1602 z"
         id="path625" /><path
         style="fill:#20abf2;stroke-width:0.352778"
         d="m 385.23336,237.58824 v -4.47486 l 1.50558,-1.67456 c 1.74826,-1.94451 3.438,-5.2391 4.56516,-8.90117 l 0.79435,-2.58071 0.11751,-38.1 c 0.12397,-40.20219 0.0998,-40.93824 -1.49564,-45.62915 -1.1013,-3.23798 -2.03718,-4.98243 -3.89992,-7.26935 l -1.58704,-1.94847 v -4.24549 -4.24549 l 1.4993,0.76272 c 2.30706,1.17364 5.44915,3.723 6.98804,5.66982 l 1.39044,1.75905 v 53.57763 53.57764 l -2.18567,2.33649 c -2.08026,2.22381 -3.38664,3.26212 -6.3692,5.06229 l -1.32291,0.79847 z"
         id="path623" /><path
         style="fill:#21aaf1;stroke-width:0.352778"
         d="m 395.11114,180.03538 c 0,-58.81791 -0.18909,-54.47299 2.14644,-49.32207 l 1.03607,2.28502 -0.0919,47.53625 -0.092,47.53625 -1.20142,2.39434 c -0.66076,1.31689 -1.33544,2.4772 -1.49931,2.57846 -0.16383,0.10126 -0.29788,-23.75245 -0.29788,-53.00825 z"
         id="path621" /><path
         style="fill:#23a8ef;stroke-width:0.352778"
         d="m 414.51391,180.26944 v -63.14722 h 1.58751 1.5875 v 63.14722 63.14722 h -1.5875 -1.58751 z"
         id="path619" /><path
         style="fill:#24a8ee;stroke-width:0.352778"
         d="m 417.68892,180.26944 v -63.14722 h 2.55763 l 2.55764,-1e-5 v 63.14722 63.14722 l -2.55764,1e-5 h -2.55763 z"
         id="path617" /><path
         style="fill:#24a7ee;stroke-width:0.352778"
         d="m 422.98058,239.71249 v -3.70416 h 4.58611 4.58611 v 3.70416 3.70417 h -4.58611 -4.58611 z m 0,-63.14722 v -3.70416 h 4.58611 4.58611 v 3.70416 3.70417 h -4.58611 -4.58611 z m 0,-55.73888 v -3.70417 h 4.58611 4.58611 v 3.70417 3.70416 h -4.58611 -4.58611 z"
         id="path615" /><path
         style="fill:#26a6ec;stroke-width:0.352778"
         d="m 436.73892,239.71249 v -3.70416 h 2.29305 2.29306 v 3.70416 3.70417 h -2.29306 -2.29305 z m 0,-63.14722 v -3.70416 h 2.29305 2.29306 v 3.70416 3.70417 h -2.29306 -2.29305 z m 0,-55.73888 v -3.70417 h 2.29305 2.29306 v 3.70417 3.70416 h -2.29306 -2.29305 z"
         id="path613" /><path
         style="fill:#24a6ec;stroke-width:0.352778"
         d="m 432.1528,239.71249 v -3.70416 h 2.29306 2.29306 v 3.70416 3.70417 h -2.29306 -2.29306 z m 0,-63.14722 v -3.70416 h 2.29306 2.29306 v 3.70416 3.70417 h -2.29306 -2.29306 z m 0,-55.73888 v -3.70417 h 2.29306 2.29306 v 3.70417 3.70416 h -2.29306 -2.29306 z"
         id="path611" /><path
         style="fill:#28a4e9;stroke-width:0.352778"
         d="m 455.78892,235.71042 c 0,-3.04944 0.14104,-5.03928 0.36706,-5.17898 0.56409,-0.34862 2.04185,-2.81326 2.80106,-4.67163 l 0.68209,-1.66954 -0.073,7.19008 -0.073,7.19008 -1.85208,1.04606 -1.85208,1.04605 z m 3.34677,-44.52597 c -0.13043,-0.5937 -0.94171,-2.1302 -1.80291,-3.41446 l -1.56581,-2.33501 0.0992,-3.81058 0.0992,-3.81058 1.85208,1.05856 1.85208,1.05856 v 6.16647 c 0,3.39156 -0.0667,6.16647 -0.14834,6.16647 -0.0816,0 -0.25506,-0.48574 -0.38544,-1.07943 z m -3.34677,-21.33601 c 0,-3.38119 0.12012,-4.30644 0.70887,-5.46053 1.57155,-3.08047 1.8923,-5.61985 1.9153,-15.16291 0.0233,-9.70179 -0.26575,-12.32238 -1.77631,-16.10194 -0.8098,-2.02618 -0.85982,-2.52632 -0.7688,-7.68524 l 0.0973,-5.51802 1.85208,1.29705 1.85208,1.29706 v 24.65221 24.65219 l -1.65657,1.05057 c -0.91112,0.57781 -1.78424,1.05056 -1.94028,1.05056 -0.15603,0 -0.2837,-1.83195 -0.2837,-4.071 z"
         id="path609" /><path
         style="fill:#26a4ea;stroke-width:0.352778"
         d="m 441.32503,239.80363 v -3.70414 l 2.55764,-0.24383 c 4.91673,-0.46872 8.24791,-1.64726 10.67198,-3.7756 l 1.25476,-1.10171 -0.0984,4.88569 -0.0985,4.88569 -1.62691,0.60356 c -2.22253,0.82454 -6.2539,1.61378 -9.75018,1.90885 l -2.91041,0.24563 z m 12.34722,-55.65571 c -1.99147,-1.40612 -6.00459,-2.92243 -8.81944,-3.33231 -0.87313,-0.12714 -2.02929,-0.3158 -2.56928,-0.41925 l -0.98175,-0.18809 0.0998,-3.74474 0.0998,-3.74474 2.82222,-0.42161 c 4.78409,-0.71467 8.00989,-2.229 10.20092,-4.78875 l 1.26436,-1.4771 v 4.11179 4.11179 l -2.64252,0.8024 c -1.45341,0.44133 -2.64403,0.9038 -2.64583,1.02773 -0.004,0.12393 0.5801,0.33477 1.29317,0.46855 0.71307,0.13377 1.9037,0.48618 2.64584,0.78312 l 1.34934,0.5399 v 3.84225 c 0,2.11323 -0.0397,3.83253 -0.0882,3.82065 -0.0485,-0.0119 -0.96132,-0.6381 -2.02847,-1.39159 z m 1.76389,-53.57761 c 0,-0.66424 -2.88907,-3.23953 -4.61596,-4.1146 -2.02388,-1.02558 -5.70759,-1.90968 -7.99585,-1.91903 l -1.4993,-0.006 v -3.75737 -3.75738 l 3.26319,0.21781 c 3.27904,0.21887 7.49773,1.12764 9.90614,2.13393 l 1.29456,0.5409 v 5.48605 c 0,3.01734 -0.0794,5.48606 -0.17639,5.48606 -0.097,0 -0.17639,-0.13961 -0.17639,-0.31024 z"
         id="path607" /><path
         style="fill:#28a3e8;stroke-width:0.352778"
         d="m 459.78201,230.18749 c 0.0856,-4.46263 0.32388,-8.90763 0.52962,-9.87777 0.60752,-2.86447 0.5224,-21.78415 -0.11292,-25.10438 -0.56159,-2.93472 -0.76454,-14.9359 -0.25259,-14.9359 0.48895,0 3.84532,3.65258 4.85126,5.27939 1.39086,2.24935 2.89994,6.59518 3.51508,10.12263 0.75138,4.30864 0.7451,22.07323 -0.009,26.39932 -1.04786,6.00897 -3.57519,11.26037 -7.04723,14.6431 l -1.62945,1.5875 0.15554,-8.11389 z m -0.10305,-83.15494 0.01,-24.44227 1.05562,1.23472 c 4.49812,5.2613 6.28004,13.28627 5.87498,26.45833 -0.21922,7.12888 -0.53012,9.35755 -1.88327,13.5001 -0.93676,2.8678 -3.24238,6.71525 -4.39328,7.33119 -0.65924,0.35281 -0.67282,-0.14133 -0.66354,-24.08207 z"
         id="path605" /><path
         style="fill:#2ba1e6;stroke-width:0.352778"
         d="m 486.55612,232.35075 c -1.96014,-3.31682 -1.83942,0.11345 -1.83942,-52.26454 v -48.42762 l 1.32291,-2.57185 1.32292,-2.57185 0.0904,26.90499 c 0.0497,14.79774 0.0497,38.91782 0,53.60019 l -0.0904,26.6952 z"
         id="path603" /><path
         style="fill:#2aa1e6;stroke-width:0.352778"
         d="m 483.71329,225.51319 c -1.66716,-6.2617 -1.64243,-5.57517 -1.64243,-45.59653 0,-34.70545 0.0523,-38.17993 0.61631,-40.94414 0.33898,-1.66129 0.92269,-3.88379 1.29716,-4.93889 0.67885,-1.91281 0.6809,-1.77933 0.70658,46.14762 0.0141,26.43628 -0.0362,48.06597 -0.11194,48.06597 -0.0758,0 -0.46531,-1.23032 -0.86568,-2.73403 z"
         id="path601" /><path
         style="fill:#2ca0e4;stroke-width:0.352778"
         d="m 496.62295,241.78644 -0.97014,-0.50898 v -4.73135 -4.73134 l 1.06969,0.977 1.06969,0.97701 -0.0996,4.26331 -0.0995,4.26332 z M 495.65281,123.90006 V 119.257 l 1.05833,-0.54728 1.05834,-0.54729 v 4.1764 4.17639 l -1.05834,1.01394 -1.05833,1.01395 z"
         id="path599" /><path
         style="fill:#2ba0e5;stroke-width:0.352778"
         d="m 493.49092,239.86024 c -1.09206,-0.74413 -2.878,-2.33915 -3.96875,-3.5445 l -1.98325,-2.19154 v -53.87647 -53.87646 l 1.40561,-1.70097 c 1.48311,-1.79477 4.11268,-4.05288 5.73814,-4.92751 l 0.97014,-0.52202 v 4.72398 c 0,4.0758 -0.0904,4.83942 -0.6585,5.56531 -1.05565,1.34871 -2.72937,4.88367 -3.50901,7.41107 -1.43651,4.65676 -1.52541,7.5692 -1.39347,45.64137 0.12485,36.02552 0.13254,36.36091 0.89581,39.23802 0.88473,3.33489 2.51615,7.10988 3.80005,8.79319 0.85701,1.12355 0.88205,1.31104 0.78694,5.88999 l -0.0982,4.72949 z"
         id="path597" /><path
         style="fill:#2c9fe4;stroke-width:0.352778"
         d="m 504.64864,244.08371 c -1.16416,-0.16788 -3.18823,-0.62934 -4.49791,-1.02547 l -2.38125,-0.72022 v -4.2094 -4.20941 l 2.48228,1.18961 c 1.36529,0.65429 3.30997,1.29457 4.32153,1.42286 3.27918,0.41584 3.07396,0.13127 3.07396,4.26292 0,2.73208 -0.11363,3.66931 -0.44097,3.63738 -0.24253,-0.0237 -1.39347,-0.18038 -2.55764,-0.34827 z M 497.76948,122.3459 v -4.18281 l 0.97013,-0.37022 c 1.72643,-0.65883 4.64778,-1.33817 6.80311,-1.58202 l 2.10453,-0.2381 v 3.68094 3.68095 l -2.6507,0.44539 c -1.53056,0.25718 -3.61763,0.93206 -4.93889,1.59704 l -2.28818,1.15163 z"
         id="path595" /><path
         style="fill:#2c9ee2;stroke-width:0.352778"
         d="m 507.64725,240.82403 v -3.65095 l 3.2632,-0.21703 c 1.79476,-0.11936 4.05694,-0.45909 5.02708,-0.75494 0.97014,-0.29586 1.80358,-0.53964 1.85209,-0.54174 0.0485,-0.002 0.0882,1.73173 0.0882,3.85296 0,3.36465 -0.0788,3.88134 -0.61736,4.04918 -1.20678,0.37608 -5.58722,0.89962 -7.58472,0.9065 l -2.02848,0.007 z m 8.64306,-116.5427 c -0.77611,-0.28586 -3.0383,-0.60766 -5.02708,-0.7151 l -3.61598,-0.19534 v -3.6535 -3.6535 h 2.66609 c 1.46632,0 3.76819,0.18201 5.11528,0.40447 l 2.44919,0.40448 v 4.00525 c 0,2.20288 -0.0397,3.98674 -0.0882,3.96412 -0.0485,-0.0226 -0.7232,-0.27501 -1.49931,-0.56088 z"
         id="path593" /><path
         style="fill:#2e9ce0;stroke-width:0.352778"
         d="m 517.87781,239.56978 v -3.84688 l 1.87286,-1.05698 c 3.71835,-2.09851 6.63582,-6.29528 8.43122,-12.12827 l 0.79435,-2.58071 0.11751,-38.1 c 0.0847,-27.45876 0.004,-38.82156 -0.28738,-40.6835 -1.14063,-7.27885 -4.64626,-13.18558 -9.25287,-15.59048 l -1.67569,-0.87481 v -3.83121 -3.83121 l 0.97014,0.22934 c 0.53358,0.12614 2.24014,0.84288 3.79236,1.59274 7.85273,3.7936 12.42879,10.56471 14.09869,20.86165 0.81016,4.99542 0.80794,76.30826 -0.004,80.97502 -1.61752,9.31414 -5.4199,15.60399 -11.9102,19.70155 -1.66236,1.05015 -6.07748,3.01063 -6.77912,3.01063 -0.0926,0 -0.16835,-1.73109 -0.16835,-3.84688 z"
         id="path591" /><path
         style="fill:#309ade;stroke-width:0.352778"
         d="m 547.15837,120.82639 v -3.70417 h 8.29028 8.29027 v 3.70417 3.70416 h -8.29027 -8.29028 z"
         id="path589" /><path
         style="fill:#3398dc;stroke-width:0.352778"
         d="m 579.61393,180.26944 v -63.14722 h 2.11666 2.11667 v 3.70417 3.70416 h -1.23472 -1.23473 v 59.44306 59.44305 h -0.88194 -0.88194 z"
         id="path587" /><path
         style="fill:#3299dc;stroke-width:0.352778"
         d="m 573.26392,183.97361 v -59.44306 h -4.7625 -4.7625 v -3.70416 -3.70417 h 7.9375 7.93751 v 63.14722 63.14722 h -3.175 -3.17501 z"
         id="path585" /><path
         style="fill:#3398db;stroke-width:0.352778"
         d="m 583.84726,120.82639 v -3.70417 h 6.52639 6.52639 v 3.70417 3.70416 h -6.52639 -6.52639 z"
         id="path583" /><path
         style="fill:#3497da;stroke-width:0.352778"
         d="m 642.7512,236.91847 c -17.31666,-29.96178 -31.48238,-54.57926 -31.47935,-54.70551 0.004,-0.12624 14.18943,-24.82456 31.52532,-54.88514 l 31.51974,-54.655599 63.15616,0.01623 63.15615,0.01619 31.39722,54.378519 c 17.26847,29.90819 31.44697,54.57829 31.50775,54.82244 0.0963,0.38671 -9.08096,16.41029 -53.41384,93.26106 l -9.25953,16.05139 -29.0436,0.0897 -29.04356,0.0897 57.63892,-57.64082 c 54.68048,-54.68233 57.61299,-57.67779 57.13423,-58.36129 -0.5866,-0.83752 -11.44277,-12.69792 -35.8853,-39.20491 l -17.42048,-18.89184 h -2.29645 -2.29644 l -7.27057,18.42878 c -3.99881,10.13583 -7.37838,18.43052 -7.51015,18.43264 -0.13172,0.002 -9.18048,-8.3265 -20.10833,-18.50806 l -19.86877,-18.51191 -2.20486,-0.009 c -1.21267,-0.005 -2.20486,0.0981 -2.20486,0.22882 0,0.13075 1.49776,4.05981 3.32832,8.73125 4.0283,10.27977 10.43002,27.05373 10.43002,27.32897 0,0.10943 -1.30969,-1.08058 -2.91042,-2.64448 -9.13261,-8.92246 -24.0502,-22.09578 -31.23773,-27.5852 -3.8377,-2.93101 -5.90783,-4.00584 -9.77269,-5.0741 -2.673,-0.73883 -3.63823,-0.78697 -18.25625,-0.9104 l -15.43403,-0.13033 v 63.4988 63.49879 l 19.84375,15.66767 c 26.34037,20.79708 38.51455,30.3687 39.49686,31.05335 0.74264,0.51759 -1.72229,0.56465 -30.46218,0.58166 l -31.27016,0.0185 z M 596.90004,120.82639 v -3.70417 h 4.93889 4.93889 v 3.70417 3.70416 h -4.93889 -4.93889 z"
         id="path581" /><path
         style="fill:#3497d9;stroke-width:0.352778"
         d="m 799.1213,233.28319 c 46.47008,-46.47008 58.19952,-58.02297 58.55195,-57.67055 0.6489,0.64887 -114.48324,115.7818 -115.78101,115.7818 -0.70947,0 10.49535,-11.37756 57.22906,-58.11125 z"
         id="path579" /><path
         style="fill:#3496d9;stroke-width:0.352778"
         d="m 735.98332,290.7682 c -0.79209,-0.60979 -0.71864,-0.68503 58.56799,-59.97086 l 59.36111,-59.36031 1.75013,1.77685 1.75013,1.77685 -58.20107,58.20186 -58.20103,58.20185 -2.11709,-0.008 c -1.45697,-0.005 -2.36435,-0.19822 -2.91017,-0.6184 z"
         id="path577" /><path
         style="fill:#3496d8;stroke-width:0.352778"
         d="m 734.37469,289.35256 c -0.53756,-0.59398 2.89094,-4.09249 58.7888,-59.98961 l 59.35962,-59.35885 0.67,0.74034 c 0.66975,0.74005 0.64728,0.76307 -58.57851,59.98961 -32.58668,32.5871 -59.34311,59.24928 -59.45879,59.24928 -0.11568,0 -0.46718,-0.28385 -0.78112,-0.63077 z"
         id="path575" /><path
         style="fill:#3396d8;stroke-width:0.352778"
         d="m 732.71949,288.17736 c -0.48507,-0.39859 -0.66488,-0.61067 -0.39959,-0.47129 0.33422,0.17556 18.76414,-18.02812 59.99703,-59.26044 47.63357,-47.63296 59.59447,-59.41762 59.91458,-59.03187 0.31986,0.38538 -11.52455,12.40412 -59.11505,59.98513 l -59.51502,59.50318 z"
         id="path573" /><path
         style="fill:#3395d8;stroke-width:0.352778"
         d="m 731.81677,287.35375 c -0.64449,-0.48273 2.8219,-4.02057 58.92959,-60.1439 59.61433,-59.63099 59.61433,-59.631 60.31989,-58.92545 0.70555,0.70556 0.70555,0.70557 -58.732,60.14391 -32.69069,32.69109 -59.52649,59.43835 -59.63515,59.43835 -0.10862,0 -0.50567,-0.23081 -0.88233,-0.51291 z"
         id="path571" /><path
         style="fill:#3395d7;stroke-width:0.352778"
         d="m 729.01532,285.16612 c -2.20659,-1.67538 -2.80462,-2.19278 -1.98751,-1.71961 0.34329,0.19879 6.56033,-5.79866 21.60764,-20.84442 19.59857,-19.59651 21.12571,-21.04192 21.12571,-19.99491 v 1.12859 l 2.12034,0.10503 2.12037,0.10503 -21.43496,21.41369 -21.43492,21.4137 z m 45.33195,-44.92531 v -3.35182 l 36.3341,-36.33283 36.33414,-36.33282 1.67527,1.67527 1.67527,1.67527 -38.00941,38.00938 -38.00937,38.00938 z"
         id="path569" /><path
         style="fill:#3394d6;stroke-width:0.352778"
         d="m 725.33052,282.23667 c -1.91798,-1.43101 -2.68693,-2.10833 -1.83042,-1.61235 0.34343,0.1989 7.06103,-6.29935 23.37153,-22.60839 l 22.88953,-22.88751 v 3.17508 3.17509 l -21.07957,21.07737 c -11.59376,11.59255 -21.16945,21.07737 -21.27934,21.07737 -0.10989,0 -1.04214,-0.6285 -2.07173,-1.39666 z m 49.01675,-48.61026 v -3.08747 l 34.85963,-34.85831 34.85964,-34.8583 1.52227,1.65144 1.52223,1.65145 -36.29304,36.29433 c -19.96119,19.96188 -36.33304,36.29433 -36.3819,36.29433 -0.0489,0 -0.0888,-1.38936 -0.0888,-3.08747 z"
         id="path567" /><path
         style="fill:#3393d5;stroke-width:0.352778"
         d="m 721.38149,279.0647 -0.83283,-0.68807 24.51805,-24.53996 24.51806,-24.53996 0.11017,1.65714 0.11021,1.65714 -23.56894,23.57089 c -12.96289,12.96399 -23.67083,23.57089 -23.79539,23.57089 -0.12457,0 -0.60128,-0.30963 -1.05933,-0.68807 z m 52.96578,-52.75914 v -1.7639 l 33.46348,-33.46208 33.46344,-33.46207 0.73364,1.03026 0.7336,1.03026 -34.19708,34.19572 -34.19708,34.19571 z"
         id="path565" /><path
         style="fill:#3294d5;stroke-width:0.352778"
         d="m 723.08227,280.37013 c -0.52959,-0.38934 2.16796,-3.20825 23.03953,-24.07609 22.7499,-22.74581 23.63936,-23.58867 23.63936,-22.40037 0,1.16327 -1.32235,2.557 -22.84339,24.07609 -12.56382,12.56274 -22.93161,22.84134 -23.03949,22.84134 -0.10788,0 -0.46609,-0.19843 -0.79601,-0.44097 z m 51.265,-51.06549 c 0,-1.16805 1.85932,-3.0944 34.21349,-35.4473 32.57472,-32.57341 34.24304,-34.18257 34.83038,-33.59521 0.58738,0.58736 -1.05138,2.28523 -34.21348,35.4473 -33.4119,33.41192 -34.83039,34.78009 -34.83039,33.59521 z"
         id="path563" /><path
         style="fill:#3293d4;stroke-width:0.352778"
         d="m 719.03838,277.21788 c -0.81859,-0.62913 -1.48833,-1.22937 -1.48833,-1.33386 0,-0.10449 11.7475,-11.93668 26.10555,-26.29375 l 26.10556,-26.10376 v 2.82227 2.82227 l -24.61722,24.61536 -24.61726,24.61535 z m 55.30889,-55.49703 v -2.8208 l 31.98968,-31.99111 c 29.08547,-29.08679 31.94696,-32.04936 31.51918,-32.63267 -0.25876,-0.35285 0.34089,0.23157 1.33258,1.29873 0.99166,1.06715 1.80989,2.01996 1.81829,2.11736 0.008,0.0974 -14.9866,15.17834 -33.32223,33.51319 l -33.3375,33.3361 z"
         id="path561" /><path
         style="fill:#3292d2;stroke-width:0.352778"
         d="m 715.49928,274.38719 -1.87435,-1.46737 27.9799,-27.98315 27.97994,-27.98315 0.10241,3.25109 0.10241,3.25109 -26.20797,26.19943 -26.20796,26.19942 z m 58.84799,-58.84147 v -3.35142 l 30.45841,-30.45687 30.45838,-30.45688 1.46801,1.66773 c 0.80737,0.91724 1.46798,1.76476 1.46798,1.88336 0,0.11861 -14.36687,14.58187 -31.92639,32.14058 l -31.92639,31.92493 z"
         id="path559" /><path
         style="fill:#3291d2;stroke-width:0.352778"
         d="m 711.54026,271.24293 -1.8398,-1.45429 29.94215,-29.94517 29.94216,-29.94517 0.10185,3.42733 0.10188,3.42733 -27.97048,27.97213 c -15.38376,15.38467 -28.07565,27.97213 -28.2042,27.97213 -0.12859,0 -1.06165,-0.65443 -2.07356,-1.45429 z m 62.80701,-62.57646 v -3.52782 l 28.7624,-28.75058 28.76243,-28.75057 1.56291,1.76389 c 0.85962,0.97013 1.56902,1.84361 1.5765,1.94104 0.007,0.0974 -13.63896,13.82897 -30.32535,30.51451 l -30.33889,30.33735 z"
         id="path557" /><path
         style="fill:#3290d0;stroke-width:0.352778"
         d="m 709.32655,269.63028 c -0.11116,-0.17987 13.44115,-13.96961 30.11625,-30.64387 16.6751,-16.67425 30.31836,-30.07869 30.31836,-29.78765 0,0.69191 -60.17031,60.85915 -60.43461,60.43152 z m 65.02072,-65.0208 c 0,-0.6919 56.99535,-57.68401 57.25965,-57.25638 0.11116,0.17987 -12.72678,13.2552 -28.52875,29.0563 -15.80202,15.80108 -28.7309,28.49112 -28.7309,28.20008 z"
         id="path555" /><path
         style="fill:#3190d0;stroke-width:0.352778"
         d="m 707.37685,268.03041 -1.48202,-1.13903 31.84497,-31.84842 31.84497,-31.84841 0.10432,2.71986 0.10431,2.71986 -30.26604,30.26759 c -16.64635,16.64717 -30.3566,30.26758 -30.46727,30.26758 -0.1107,0 -0.86815,-0.51257 -1.68324,-1.13903 z m 66.97042,-66.77237 v -2.82226 l 27.17193,-27.16303 27.17197,-27.16303 1.21342,1.41111 c 0.66738,0.77611 1.21938,1.49086 1.22668,1.58832 0.007,0.0975 -12.76615,12.95585 -28.38539,28.57418 l -28.39861,28.39697 z"
         id="path553" /><path
         style="fill:#318fcf;stroke-width:0.352778"
         d="m 704.58013,265.72037 -1.15189,-0.96065 33.16648,-33.16041 33.16644,-33.16041 v 2.29309 2.29308 l -31.83894,31.83746 c -17.51139,17.51061 -31.91796,31.83319 -32.01458,31.82797 -0.0966,-0.005 -0.69399,-0.44178 -1.32751,-0.97013 z m 69.76714,-69.57768 v -2.29309 l 26.02745,-26.02566 26.02746,-26.02566 1.12857,1.16442 1.1286,1.16443 -27.15602,27.15432 -27.15606,27.15433 z"
         id="path551" /><path
         style="fill:#318fce;stroke-width:0.352778"
         d="m 702.73338,264.23304 c -0.41984,-0.26934 6.43174,-7.30319 33.16111,-34.04331 30.19771,-30.20986 33.70245,-33.60576 33.80754,-32.7578 0.10383,0.83763 -3.67559,4.73905 -32.98401,34.04871 -18.2057,18.20648 -33.18098,33.10026 -33.27838,33.09729 -0.0974,-0.003 -0.41522,-0.15817 -0.70626,-0.34489 z m 71.61389,-71.43458 c 0,-0.92293 3.13302,-4.18644 25.48026,-26.54158 22.68118,-22.68921 25.53854,-25.43096 26.01091,-24.95858 0.47237,0.47237 -2.32668,3.38802 -25.48026,26.54158 -23.28997,23.28997 -26.01091,25.90082 -26.01091,24.95858 z"
         id="path549" /><path
         style="fill:#318ece;stroke-width:0.352778"
         d="m 701.65384,263.42041 c -0.30272,-0.23352 -1.00887,-0.78969 -1.56926,-1.23593 l -1.01886,-0.81133 35.07003,-35.07134 c 23.27427,-23.27516 35.16158,-34.92721 35.34231,-34.64283 0.14975,0.23568 0.27474,1.38133 0.2777,2.54587 l 0.005,2.11736 -33.77847,33.76139 c -28.71054,28.69604 -33.86106,33.69769 -34.32884,33.33681 z M 775.1436,190.5 c 0.10036,-0.29105 0.91609,-2.35665 1.81278,-4.59023 l 1.63033,-4.06106 22.0654,-22.0445 22.06537,-22.04449 1.20964,1.41111 c 0.66531,0.77611 1.21201,1.49091 1.2149,1.58843 0.004,0.0975 -11.28663,11.44815 -25.0878,25.22361 -13.80119,13.77546 -25.01095,24.80817 -24.91062,24.51713 z"
         id="path547" /><path
         style="fill:#308ecc;stroke-width:0.352778"
         d="m 698.74328,261.16375 c -0.11116,-0.17988 15.66366,-16.1922 35.05511,-35.58293 19.39146,-19.39074 35.25721,-35.01777 35.25721,-34.72672 0,0.69192 -70.04801,70.73728 -70.31232,70.30965 z m 80.30984,-80.36514 c 0.71285,-1.39651 43.12013,-43.7463 43.38175,-43.32297 0.11116,0.17987 -9.7258,10.23924 -21.85995,22.35416 -12.13414,12.11493 -21.81895,21.55089 -21.5218,20.96881 z"
         id="path545" /><path
         style="fill:#308ccc;stroke-width:0.352778"
         d="m 696.98836,259.70469 -1.25593,-0.99809 35.89708,-35.89581 35.89712,-35.89581 0.72499,1.74448 0.72496,1.74448 -35.15074,35.14942 c -19.3329,19.33218 -35.24766,35.14941 -35.36615,35.14941 -0.11847,0 -0.78056,-0.44914 -1.47133,-0.99808 z m 74.52977,-74.87011 -0.47265,-1.43208 2.02385,-2.0075 2.02385,-2.0075 -0.76542,1.94027 c -0.42097,1.06716 -1.01991,2.61497 -1.33099,3.43959 -0.31105,0.82462 -0.66467,1.4993 -0.78578,1.4993 -0.12114,0 -0.43293,-0.64443 -0.69286,-1.43208 z m 9.37656,-8.79847 1.6166,-4.05695 18.61841,-18.69722 18.61845,-18.69722 1.17525,1.34756 1.17524,1.34757 -21.41026,21.4066 -21.41026,21.4066 z"
         id="path543" /><path
         style="fill:#308ccb;stroke-width:0.352778"
         d="m 694.34961,257.60648 -1.15185,-0.96065 36.50343,-36.49748 c 20.07691,-20.07362 36.56345,-36.42487 36.63683,-36.33611 0.0734,0.0888 0.38516,0.80883 0.69289,1.60019 l 0.55947,1.43881 -35.86872,35.86743 c -19.72783,19.72709 -35.94781,35.86316 -36.04447,35.85795 -0.0967,-0.005 -0.69409,-0.44179 -1.32758,-0.97014 z m 75.98199,-75.78855 -0.58053,-1.70374 3.95623,-3.96748 c 2.17593,-2.18211 3.99933,-3.92438 4.052,-3.8717 0.0527,0.0527 -0.47671,1.59516 -1.17648,3.42774 -1.09121,2.85784 -1.5852,3.65121 -3.47147,5.57544 l -2.19922,2.24347 z m 12.48234,-10.39906 c 0,-0.11273 0.6387,-1.77904 1.41933,-3.70289 l 1.41929,-3.49793 15.94482,-15.95446 15.94478,-15.95446 0.98034,0.93921 c 0.53918,0.51657 0.98033,1.10852 0.98033,1.31546 0,0.20693 -8.255,8.6301 -18.34445,18.71814 -10.08944,10.08804 -18.34444,18.24966 -18.34444,18.13693 z"
         id="path541" /><path
         style="fill:#308cca;stroke-width:0.352778"
         d="m 692.30565,255.95645 c -0.64473,-0.483 1.47394,-2.67264 36.25078,-37.46451 l 36.93559,-36.95154 0.38848,1.02179 c 0.38728,1.01861 0.27545,1.13479 -36.05301,37.46451 -20.04279,20.04351 -36.53046,36.44274 -36.63926,36.44274 -0.10876,0 -0.50592,-0.23084 -0.88258,-0.51299 z m 76.94179,-76.98574 c -0.21614,-0.86117 0.25542,-1.43824 5.26098,-6.43819 l 5.49839,-5.49225 -0.91588,2.29306 c -0.78285,1.96005 -1.5132,2.89503 -5.02909,6.43819 -2.26229,2.27983 -4.2176,4.14514 -4.34513,4.14514 -0.12749,0 -0.33867,-0.42568 -0.46927,-0.94595 z M 786.53592,161.925 c 0.87147,-2.18595 1.58429,-2.96439 15.25916,-16.66466 l 14.34497,-14.3716 0.70608,0.70612 0.70612,0.70612 -15.96524,15.95853 -15.96528,15.95854 z"
         id="path539" /><path
         style="fill:#308bca;stroke-width:0.352778"
         d="m 691.19239,255.12555 c -0.28331,-0.17841 12.15958,-12.85749 36.72551,-37.42259 24.8744,-24.87356 37.2187,-36.98424 37.34968,-36.64286 0.26959,0.70253 -73.47868,74.44108 -74.07519,74.06545 z m 77.51044,-77.5101 c 0,-0.44252 2.23379,-2.93608 5.99722,-6.69462 3.29847,-3.29419 5.99722,-5.86424 5.99722,-5.71123 0,0.88884 -1.5978,2.76798 -6.50236,7.64724 -3.90405,3.88394 -5.49208,5.25988 -5.49208,4.75861 z m 19.05,-18.62461 c 0,-0.89602 2.01503,-3.06508 14.32038,-15.41506 9.2481,-9.28167 13.60046,-13.42288 13.73604,-13.06963 0.13264,0.34569 -4.48441,5.1999 -13.92901,14.6445 -7.77007,7.77008 -14.12741,13.99817 -14.12741,13.84019 z"
         id="path537" /><path
         style="fill:#2f8bc9;stroke-width:0.352778"
         d="m 689.50421,253.81374 -1.05833,-0.86644 37.73636,-37.73981 37.73639,-37.73981 0.57817,1.48907 0.57813,1.48908 -37.07917,37.12986 c -20.39355,20.42142 -37.15883,37.12415 -37.25619,37.11717 -0.0974,-0.007 -0.65328,-0.40258 -1.23536,-0.87912 z m 78.3747,-78.19119 -0.59566,-1.51636 8.12955,-8.11907 8.12952,-8.11907 -0.90579,2.42236 c -0.4982,1.33229 -1.12215,2.91979 -1.38656,3.52778 -0.26441,0.60798 -3.24704,3.85386 -6.6281,7.21307 l -6.14733,6.10766 z m 21.30528,-20.40033 c 0.42058,-1.06715 1.01649,-2.60777 1.32433,-3.4236 0.43532,-1.15386 3.0487,-3.97145 11.76566,-12.68524 l 11.20603,-11.20191 0.89464,0.84048 c 0.49206,0.46226 0.89465,1.01203 0.89465,1.2217 0,0.20967 -6.04125,6.41293 -13.42496,13.78503 -13.07896,13.05833 -13.40528,13.35381 -12.66035,11.46354 z"
         id="path535" /><path
         style="fill:#2f8ac8;stroke-width:0.352778"
         d="m 687.20498,251.91031 -1.22855,-1.04329 38.31915,-38.33996 38.31915,-38.33996 0.63362,1.65905 0.63359,1.65905 -37.72422,37.7242 -37.72419,37.7242 z m 79.43159,-79.42009 -0.68573,-1.56939 8.68991,-8.72767 c 8.60513,-8.64252 8.6966,-8.72099 9.37538,-8.04219 1.43271,1.43269 0.48398,2.74252 -8.46105,11.68147 l -8.23278,8.22718 z m 25.33005,-24.23536 c 0.39881,-1.01865 1.05254,-2.68552 1.45274,-3.70417 0.6164,-1.56894 2.03679,-3.17341 9.29089,-10.49514 l 8.56326,-8.64305 1.09668,1.25617 1.09668,1.25618 -11.11268,11.09104 c -10.72624,10.70538 -11.08745,11.02665 -10.38757,9.23897 z"
         id="path533" /><path
         style="fill:#2f8ac7;stroke-width:0.352778"
         d="m 685.15379,250.3673 c -0.29291,-0.35296 8.44737,-9.28463 38.19458,-39.03092 34.35975,-34.35864 38.61474,-38.49789 38.94339,-37.88383 0.32727,0.61152 -3.96244,5.02063 -37.97378,39.03092 -21.08853,21.08784 -38.44212,38.34152 -38.56355,38.34152 -0.12143,0 -0.39169,-0.20596 -0.60064,-0.45769 z m 80.55088,-80.32702 c -0.22179,-0.69878 0.81556,-1.87099 8.15531,-9.21553 7.48164,-7.48649 8.46794,-8.35642 8.93953,-7.88481 0.47163,0.47161 -0.42817,1.48837 -8.15531,9.21552 -7.82902,7.82901 -8.7105,8.60649 -8.93953,7.88482 z m 28.75094,-27.9326 c 0,-0.12789 0.30271,-0.92037 0.67271,-1.76107 0.4735,-1.07586 2.81252,-3.65767 7.89785,-8.71764 6.6064,-6.57348 8.00999,-7.6741 8.00999,-6.28103 0,0.23263 -3.73062,4.15106 -8.29028,8.70761 -4.55965,4.55656 -8.29027,8.18002 -8.29027,8.05213 z"
         id="path531" /><path
         style="fill:#2f89c7;stroke-width:0.352778"
         d="m 683.83426,249.37261 c -0.14471,-0.23413 15.55732,-16.19538 38.69069,-39.32947 34.7162,-34.71726 38.96519,-38.85173 39.22004,-38.16288 0.25322,0.68454 -4.10655,5.165 -38.26997,39.32947 -21.20565,21.20632 -38.74506,38.55693 -38.97648,38.55693 -0.23142,0 -0.53033,-0.17732 -0.66428,-0.39405 z m 81.22257,-80.79645 c -0.19078,-0.72113 0.85708,-1.90841 7.96728,-9.02752 7.2838,-7.29293 8.2454,-8.13871 8.71703,-7.66707 0.47163,0.47164 -0.40725,1.46749 -7.96727,9.02751 -7.65997,7.65996 -8.51906,8.41557 -8.71704,7.66708 z m 30.80989,-29.99667 c 0,-0.12766 0.30261,-0.91996 0.67246,-1.76066 0.46288,-1.05216 2.55051,-3.39508 6.69844,-7.51753 5.35471,-5.32187 6.08485,-5.93008 6.55479,-5.46015 0.4699,0.46993 -0.27623,1.33316 -6.69844,7.74964 -3.97499,3.97144 -7.22725,7.11636 -7.22725,6.9887 z"
         id="path529" /><path
         style="fill:#2f89c6;stroke-width:0.352778"
         d="m 682.27227,248.13065 -1.23473,-0.89284 39.33473,-39.30288 c 21.6341,-21.61659 39.48688,-39.34353 39.67282,-39.39321 0.18599,-0.0497 0.56967,0.51806 0.8527,1.26164 l 0.51457,1.35199 -38.95267,38.93407 -38.9527,38.93407 z m 81.86928,-82.02851 -0.4396,-1.46729 7.60491,-7.6049 7.6049,-7.6049 1.07904,1.03378 1.07904,1.03379 -8.03272,8.03841 c -4.41797,4.42113 -8.12793,8.03841 -8.24434,8.03841 -0.11638,0 -0.40944,-0.66028 -0.65123,-1.4673 z m 33.2304,-31.34103 c 1.94952,-5.48757 2.38894,-6.19977 6.1172,-9.91535 l 3.66596,-3.65351 1.05714,1.05713 1.05713,1.05713 -6.0427,5.99188 c -3.32351,3.29554 -5.95813,5.75376 -5.85473,5.46272 z"
         id="path527" /><path
         style="fill:#2e88c4;stroke-width:0.352778"
         d="m 679.35225,245.77664 c -1.05286,-0.90176 -1.24167,-1.23218 -0.89958,-1.57425 0.23809,-0.23813 0.87743,-0.43295 1.42071,-0.43295 0.84225,0 0.98777,-0.14285 0.98777,-0.96954 0,-0.81649 6.13788,-7.10761 38.87936,-39.85008 l 38.87933,-38.88055 0.81618,2.00608 0.81616,2.00607 -39.43033,39.43151 c -21.6867,21.68733 -39.58936,39.42555 -39.78371,39.41826 -0.19434,-0.007 -0.95303,-0.52683 -1.68589,-1.15455 z m 83.44299,-83.0519 -0.7923,-2.01533 7.05101,-7.08164 7.051,-7.08164 1.4091,1.43576 1.40907,1.43576 -7.66777,7.66121 -7.6678,7.66123 z m 37.39978,-35.01919 c 1.38328,-3.83387 3.29971,-8.42207 3.72364,-8.91493 0.50874,-0.59148 0.59185,-0.57274 1.56471,0.35278 1.9195,1.82615 1.93001,1.79566 -1.92387,5.59046 -1.95549,1.92547 -3.46947,3.26273 -3.36448,2.97169 z"
         id="path525" /><path
         style="fill:#2e87c4;stroke-width:0.352778"
         d="m 680.86115,240.41684 c 0,-1.40254 0.23372,-1.64479 38.46065,-39.86328 38.93944,-38.93087 39.12225,-39.10302 39.14507,-36.86407 0.003,0.29137 -17.4571,17.99172 -38.80016,39.33412 l -38.80556,38.80435 z m 80.74276,-80.73919 c -0.43395,-0.95243 -0.34466,-1.06197 6.23309,-7.64658 l 6.6734,-6.68031 0.70672,0.70674 0.70675,0.70673 -6.93984,6.93985 -6.93985,6.93984 z"
         id="path523" /><path
         style="fill:#2e87c3;stroke-width:0.352778"
         d="m 680.86115,237.59501 c 0,-1.40294 0.23129,-1.6428 38.07778,-39.48807 l 38.07778,-38.07656 0.44146,0.96886 c 0.44034,0.96646 0.34608,1.06421 -38.07781,39.48807 l -38.51921,38.51923 z m 79.86336,-80.11676 c -0.20796,-0.82864 0.3889,-1.53924 6.07198,-7.22888 l 6.30258,-6.30991 0.70563,0.7056 0.70559,0.70561 -6.51612,6.52328 c -3.58387,3.58779 -6.63378,6.52327 -6.77757,6.52327 -0.14379,0 -0.36523,-0.41354 -0.49209,-0.91897 z"
         id="path521" /><path
         style="fill:#2e86c2;stroke-width:0.352778"
         d="m 680.86115,233.53805 v -2.64625 l 37.3355,-37.33426 37.33553,-37.33426 0.7765,1.86849 0.77654,1.8685 -38.11203,38.11202 -38.11204,38.11202 z m 79.37501,-76.98106 c 0,-0.13768 -0.30512,-1.02442 -0.67804,-1.97055 l -0.67807,-1.72023 5.72089,-5.71299 5.72085,-5.71299 1.39538,1.22445 1.39538,1.22446 -6.4382,6.45908 c -3.541,3.5525 -6.43819,6.34644 -6.43819,6.20877 z"
         id="path519" /><path
         style="fill:#2d86c1;stroke-width:0.352778"
         d="m 680.86115,228.59873 v -2.29307 l 36.43839,-36.4371 36.43838,-36.43711 0.72711,0.80719 c 0.39991,0.44396 0.81559,1.06012 0.92379,1.36927 0.1397,0.39928 -10.62433,11.38268 -37.1655,37.92298 l -37.36217,37.36091 z m 77.63155,-76.67421 c -0.92929,-2.44421 -1.06257,-2.21179 4.37606,-7.63274 l 5.12629,-5.1096 1.14356,1.14356 1.14357,1.14357 -5.71098,5.71098 c -5.70699,5.707 -5.71123,5.7103 -6.0785,4.74423 z"
         id="path517" /><path
         style="fill:#2d84c0;stroke-width:0.352778"
         d="m 680.86115,221.89535 v -4.41116 l 14.02292,-14.0105 14.02292,-14.0105 2.46944,-0.75113 c 7.57446,-2.30391 12.50527,-7.16519 14.84909,-14.63973 l 0.89235,-2.84572 11.0029,-10.99127 11.00289,-10.99128 2.29305,2.08441 2.29306,2.0844 -36.42431,36.44682 -36.42431,36.44682 z m 75.58265,-75.23891 c -0.63059,-1.60533 -1.14653,-3.07578 -1.14653,-3.26767 0,-0.19189 1.81617,-2.15992 4.03595,-4.3734 l 4.03596,-4.0245 2.34283,2.05688 2.34283,2.05689 -5.22785,5.23656 c -2.87531,2.88012 -5.22982,5.236 -5.23225,5.2353 -0.004,-7e-4 -0.52035,-1.31473 -1.15094,-2.92006 z"
         id="path515" /><path
         style="fill:#2c82be;stroke-width:0.352778"
         d="m 680.86115,215.36715 v -2.117 l 11.55348,-11.53632 11.55347,-11.53632 2.27238,-0.35919 c 1.24982,-0.19756 2.31514,-0.31645 2.36739,-0.2642 0.0522,0.0522 -6.16938,6.35788 -13.82586,14.01251 l -13.92086,13.91752 z m 34.92144,-37.00332 c 3.58754,-3.60858 6.55705,-6.56106 6.59892,-6.56106 0.0419,0 -0.1379,0.60663 -0.39948,1.34806 -1.64419,4.6601 -4.80265,8.37609 -8.66532,10.19488 -4.42792,2.08496 -4.29722,1.82087 2.46588,-4.98188 z m 11.39081,-7.65228 c 0.10442,-0.30913 0.29912,-1.43685 0.43272,-2.50603 l 0.24289,-1.94398 9.59149,-9.58673 9.59147,-9.58673 1.03417,1.07943 1.03416,1.07943 -11.05838,11.01334 c -6.0821,6.05733 -10.97294,10.7604 -10.86852,10.45127 z m 27.30465,-28.94367 -0.58999,-1.502 3.69408,-3.74874 3.69411,-3.74873 1.0619,1.0956 1.0619,1.09561 -4.16599,4.15513 -4.16599,4.15514 z"
         id="path513" /><path
         style="fill:#2c82bc;stroke-width:0.352778"
         d="m 680.86115,209.36857 v -3.88153 l 7.68855,-7.68258 7.68854,-7.68259 3.78005,0.10087 3.78002,0.10087 -11.46856,11.46324 -11.4686,11.46324 z m 30.87533,-34.75085 c 6.39671,-6.39891 11.69451,-11.63439 11.77286,-11.63439 0.25351,0 -0.27537,5.52801 -0.68421,7.15162 -0.34858,1.3843 -1.21694,2.38969 -7.1574,8.2866 l -6.76074,6.71116 -2.46945,0.36902 c -1.35819,0.20297 -3.3384,0.45483 -4.40044,0.5597 l -1.931,0.19068 z m 16.31424,-12.40315 0.14859,-3.99374 7.35528,-7.38721 7.35528,-7.3872 1.87219,1.73594 c 1.02969,0.95477 1.91212,1.81921 1.96095,1.92099 0.0489,0.10178 -4.17036,4.44202 -9.37599,9.645 l -9.46485,9.45995 z m 25.69676,-22.45352 c -0.12654,-0.2048 -0.63228,-1.4408 -1.12381,-2.74667 l -0.89369,-2.37432 2.74772,-2.76393 2.74771,-2.76392 1.94335,1.94335 1.94335,1.94334 -3.56722,3.56725 c -2.02682,2.02681 -3.66663,3.40645 -3.79741,3.1949 z"
         id="path511" /><path
         style="fill:#2c81bc;stroke-width:0.352778"
         d="m 680.86115,202.66303 v -2.82387 l 4.87134,-4.86203 4.87136,-4.86202 2.71844,0.10425 2.71847,0.10425 -7.5898,7.58164 -7.58981,7.58165 z m 28.22382,-31.04023 14.63869,-14.64386 0.10428,2.71958 0.10431,2.71959 -11.92039,11.92428 -11.92044,11.92427 h -2.82257 -2.82258 z m 19.04841,-16.23123 v -2.82297 l 5.90903,-5.88798 5.90903,-5.88799 1.50943,1.30577 1.50946,1.30576 -7.41849,7.40519 -7.41846,7.40518 z m 22.71113,-22.89176 -0.7486,-1.90711 2.03775,-2.01649 2.03775,-2.01649 1.44488,1.16113 c 0.79466,0.63862 1.44487,1.24988 1.44487,1.35837 0,0.25124 -5.03467,5.32935 -5.28285,5.32841 -0.10185,-3.5e-4 -0.52207,-0.8589 -0.9338,-1.90782 z"
         id="path509" /><path
         style="fill:#2c80ba;stroke-width:0.352778"
         d="m 680.86115,198.956 c 0,-1.26747 7.6785,-8.92315 8.77793,-8.75185 0.64251,0.10011 -0.006,0.89008 -4.00562,4.87706 -4.05941,4.04689 -4.77231,4.62572 -4.77231,3.87479 z m 27.3418,-28.21807 c 12.63273,-12.63927 15.54304,-15.38602 15.64062,-14.76176 0.17508,1.11954 -28.98515,30.29049 -30.27935,30.29049 -0.71913,0 1.98427,-2.86775 14.63873,-15.52873 z m 19.93043,-19.04907 c 0,-1.28201 10.71968,-11.99364 11.36093,-11.35239 0.34903,0.34906 -0.76176,1.63811 -5.46139,6.33773 -4.96531,4.96532 -5.89954,5.75942 -5.89954,5.01466 z m 21.72924,-21.73037 c -0.35415,-0.92297 3.37044,-4.62736 3.95023,-3.92876 0.32008,0.38567 -0.0208,0.90537 -1.65322,2.52078 -1.73461,1.71652 -2.09405,1.93685 -2.29701,1.40798 z"
         id="path507" /><path
         style="fill:#2b80ba;stroke-width:0.352778"
         d="m 680.86115,196.65876 c 0,-1.28807 0.23058,-1.64298 2.5907,-3.98731 2.39046,-2.37453 2.69113,-2.56468 3.89078,-2.46062 l 1.3001,0.11278 -3.89079,3.87454 -3.89079,3.87453 z m 25.93055,-27.33103 16.93196,-16.93894 0.11317,1.30207 c 0.11183,1.28684 -0.0696,1.48488 -15.52074,16.93893 -15.39967,15.40258 -15.65505,15.63687 -17.04513,15.63687 h -1.41122 z m 21.34168,-19.93551 c 0,-1.34269 0.23283,-1.64411 4.76007,-6.162 4.75932,-4.74954 4.76013,-4.75014 5.46526,-4.04501 0.70514,0.70514 0.70443,0.70606 -4.76003,6.16199 l -5.4653,5.45676 z m 21.0082,-21.21164 c -0.19646,-0.78289 0.0116,-1.18747 1.2724,-2.47195 l 1.50731,-1.53585 0.7063,0.70631 0.70633,0.70631 -1.73909,1.76563 c -0.95652,0.9711 -1.8469,1.76563 -1.97869,1.76563 -0.1318,0 -0.34534,-0.42124 -0.47456,-0.93608 z"
         id="path505" /><path
         style="fill:#2b80b9;stroke-width:0.352778"
         d="m 680.86115,194.00171 c 0,-1.76377 2.22582,-3.9574 3.84782,-3.79214 l 1.1193,0.11404 -2.48356,2.45998 -2.48356,2.45998 z m 24.69572,-25.90901 c 17.51753,-17.52447 18.17091,-18.13379 18.28179,-17.04971 0.10845,1.05963 -0.8648,2.10425 -16.93196,18.17396 -16.00101,16.00357 -17.12274,17.04971 -18.28179,17.04971 -1.19211,0 -0.60664,-0.62843 16.93196,-18.17396 z m 22.57651,-21.34781 c 0,-1.10544 0.4234,-1.65776 4.02015,-5.24433 3.78587,-3.77513 4.06248,-3.97914 4.74585,-3.50049 0.69723,0.48836 0.53968,0.69388 -4.02019,5.24434 l -4.74581,4.73606 z m 20.31016,-20.29827 c -0.2038,-0.81206 -0.0447,-1.17949 0.93496,-2.15917 1.08127,-1.08126 1.23893,-1.13706 1.874,-0.66324 0.66978,0.49975 0.63796,0.57323 -0.93497,2.15918 l -1.62835,1.64182 z"
         id="path503" /><path
         style="fill:#2b7fb8;stroke-width:0.352778"
         d="m 680.86115,191.38194 c 0,-1.18841 0.0489,-1.23472 1.30394,-1.23472 h 1.3039 l -1.19672,1.23472 c -0.65822,0.6791 -1.24499,1.23472 -1.30394,1.23472 -0.0589,0 -0.10718,-0.55562 -0.10718,-1.23472 z m 21.16777,-26.46189 21.34196,-21.34661 0.24426,1.32647 c 0.13434,0.72956 0.2534,2.1208 0.26459,3.09164 l 0.0205,1.76516 -18.25752,18.25498 -18.25749,18.25497 h -3.34906 -3.34903 l 21.34197,-21.34661 z m 25.94673,-21.55328 c -0.12164,-1.1436 -0.28539,-2.48933 -0.36389,-2.99051 -0.11733,-0.74908 0.31948,-1.37036 2.45463,-3.49129 l 2.5974,-2.58004 1.38472,1.0967 c 2.46913,1.95561 2.56025,1.65637 -1.84026,6.04438 l -4.01141,4.00003 z m 19.1557,-20.23901 c -0.79425,-2.11996 -0.85154,-2.51982 -0.413,-2.88377 0.41504,-0.34446 0.81375,-0.11793 2.15752,1.22583 l 1.64839,1.64838 -1.2354,1.2354 -1.23539,1.23539 z"
         id="path501" /><path
         style="fill:#2a7eb6;stroke-width:0.352778"
         d="m 680.86115,182.73668 v -3.35141 l 20.94654,-20.9443 20.9465,-20.9443 0.39656,2.27709 c 0.21808,1.2524 0.39652,2.58207 0.39652,2.95484 0,0.42585 -7.93249,8.60943 -21.34306,22.01862 l -21.34306,21.34087 z m 46.10365,-46.09497 -0.59344,-2.73469 1.30538,-1.33685 c 0.71798,-0.73526 1.39224,-1.33074 1.49836,-1.32329 0.10615,0.007 0.95119,0.68215 1.8779,1.49931 l 1.68487,1.48575 -2.58981,2.57223 -2.58981,2.57223 z m 18.84963,-16.922 c -0.54226,-1.19012 -0.34065,-1.3648 0.64964,-0.5629 0.67708,0.54828 0.7179,0.70242 0.28172,1.0644 -0.4156,0.34492 -0.58801,0.25208 -0.93136,-0.5015 z"
         id="path499" /><path
         style="fill:#2a7db6;stroke-width:0.352778"
         d="m 680.86115,175.68106 v -3.70422 l 20.06502,-20.0627 20.06501,-20.0627 0.7765,2.42497 c 0.42704,1.33374 0.82896,2.59869 0.89309,2.81101 0.0641,0.21233 -9.31453,9.8162 -20.84147,21.34195 l -20.95815,20.9559 z m 45.28609,-42.5357 c -0.1354,-0.37252 -0.61807,-1.53289 -1.07262,-2.5786 -0.62615,-1.44037 -0.7305,-2.01699 -0.43046,-2.3785 0.3235,-0.38977 0.65423,-0.26765 1.8053,0.66658 0.77509,0.62907 1.71313,1.38553 2.08446,1.68102 0.65098,0.51798 0.6247,0.58659 -0.73268,1.91203 -1.27452,1.24454 -1.43122,1.31061 -1.654,0.69747 z"
         id="path497" /><path
         style="fill:#2a7cb4;stroke-width:0.352778"
         d="m 680.86115,168.80176 v -3.17507 l 18.81721,-18.81475 18.81724,-18.81475 1.1147,1.73715 c 0.61313,0.95543 1.11475,1.88253 1.11475,2.06021 0,0.17769 -8.96938,9.29139 -19.93195,20.25267 l -19.93195,19.9296 z m 42.71762,-41.18348 c -0.27065,-0.43707 -0.74341,-1.19155 -1.05057,-1.67662 -0.46937,-0.7413 -0.33419,-0.68847 0.84769,0.33124 0.77336,0.66726 1.4061,1.3684 1.4061,1.55811 0,0.69013 -0.72326,0.56225 -1.20322,-0.21273 z"
         id="path495" /><path
         style="fill:#2a7cb3;stroke-width:0.352778"
         d="m 680.86115,165.09832 c 0,-0.69126 36.93164,-37.6204 37.27729,-37.27475 0.14507,0.14506 -8.183,8.71048 -18.50679,19.03426 -10.32376,10.32378 -18.7705,18.532 -18.7705,18.24049 z"
         id="path493" /><path
         style="fill:#2a7bb3;stroke-width:0.352778"
         d="m 680.86115,162.27518 v -2.29314 l 17.38461,-17.38193 17.38461,-17.38194 1.12857,1.1644 1.12857,1.16441 -18.51318,18.51066 -18.51318,18.51067 z"
         id="path491" /><path
         style="fill:#297ab2;stroke-width:0.352778"
         d="m 680.86115,156.98325 v -2.99876 l 15.48871,-15.48569 15.48868,-15.4857 1.60281,0.9393 c 0.88152,0.51662 1.68123,1.06622 1.77712,1.22135 0.0958,0.15513 -7.59531,8.05045 -17.09152,17.54516 l -17.2658,17.26311 z"
         id="path489" /><path
         style="fill:#297ab1;stroke-width:0.352778"
         d="m 680.86115,150.80919 v -3.17527 l 12.99299,-12.98941 12.99294,-12.98941 2.05028,0.53539 c 1.12762,0.29447 2.18278,0.66794 2.34481,0.82995 0.16199,0.162 -6.60746,7.19518 -15.04323,15.62928 l -15.33779,15.33474 z"
         id="path487" /><path
         style="fill:#2979b0;stroke-width:0.352778"
         d="m 680.86115,142.69398 v -4.93989 l 8.20484,-8.19927 8.20484,-8.19927 4.05419,0.0248 c 2.2298,0.0137 4.33109,0.13445 4.66947,0.26847 0.48828,0.19339 -2.04195,2.90018 -12.25903,13.11437 l -12.87431,12.87068 z"
         id="path485" /><path
         style="fill:#2878ae;stroke-width:0.352778"
         d="m 680.86115,132.10357 v -5.6504 l 2.57532,-2.55813 2.57531,-2.55812 5.54217,0.0975 5.54214,0.0975 -8.11745,8.11102 -8.11749,8.11101 z"
         id="path483" /><path
         style="fill:#2877ad;stroke-width:0.352778"
         d="m 680.86115,123.825 v -2.46945 h 2.54819 2.54818 l -2.45053,2.46945 c -1.34779,1.35819 -2.49446,2.46944 -2.54819,2.46944 -0.0537,0 -0.0977,-1.11125 -0.0977,-2.46944 z"
         id="path481" /><path
         style="fill:#6a6a6a;stroke-width:0.352778"
         d="m 331.07089,93.486109 c 0,-11.350625 0.0446,-15.994062 0.0991,-10.31875 0.0545,5.675313 0.0545,14.962187 0,20.637501 -0.0545,5.67531 -0.0991,1.03187 -0.0991,-10.318751 z m 132.99349,-5.644444 c 0,-8.246181 0.0462,-11.619618 0.10262,-7.496528 0.0565,4.12309 0.0565,10.869965 0,14.993055 -0.0564,4.123091 -0.10262,0.749653 -0.10262,-7.496527 z m 1.40462,5.115277 c 1.8e-4,-5.432777 0.0491,-7.605984 0.10883,-4.829351 0.0597,2.776636 0.0595,7.221636 -3.2e-4,9.877778 -0.0599,2.656141 -0.10869,0.384351 -0.10851,-5.048427 z m 89.61628,-11.818055 c 0,-11.932708 0.0444,-16.81427 0.0986,-10.847916 0.0542,5.966354 0.0542,15.729478 0,21.695833 -0.0542,5.966354 -0.0986,1.084791 -0.0986,-10.847917 z"
         id="path479" /><path
         style="fill:#393939;stroke-width:0.352778"
         d="m 584.46462,114.07349 c -0.33955,-0.0979 -0.61736,-0.40449 -0.61736,-0.6813 0,-0.37008 0.47614,-0.5033 1.79878,-0.5033 3.58838,0 5.1514,-1.52076 7.2245,-7.0292 0.664,-1.76437 1.20728,-3.35814 1.20728,-3.54171 0,-0.18357 -2.61938,-6.794036 -5.82084,-14.689922 -3.20146,-7.895883 -5.82083,-14.411706 -5.82083,-14.479605 0,-0.0679 0.28702,-0.123455 0.63782,-0.123455 0.50765,0 1.66896,2.538106 5.68981,12.435417 2.77859,6.839479 5.27943,12.991041 5.55745,13.670138 0.38195,0.932977 0.57207,1.105407 0.77798,0.705556 0.14986,-0.291042 2.55362,-6.442604 5.34166,-13.670139 4.06192,-10.529862 5.19511,-13.140972 5.70304,-13.140972 0.34865,0 0.63391,0.08455 0.63391,0.187883 0,0.447453 -13.23044,34.378349 -14.02624,35.971839 -1.25959,2.5221 -2.11839,3.64304 -3.23254,4.21919 -1.06923,0.55293 -4.07705,0.95139 -5.05442,0.66958 z M 331.25835,93.486109 c 0,-11.456878 0.13584,-20.461111 0.30868,-20.461111 0.40146,0 0.74966,1.779161 0.74966,3.830398 v 1.62554 l 1.59564,-1.824062 c 2.33859,-2.673361 4.77692,-3.765776 8.42444,-3.774299 3.28919,-0.0077 5.28768,0.722676 7.20046,2.63145 2.91065,2.904568 4.0975,6.520057 4.10473,12.504029 0.004,3.396957 -0.1489,4.721217 -0.77438,6.702777 -1.05739,3.34996 -2.90575,5.700589 -5.54305,7.049289 -1.82459,0.93309 -2.43346,1.06202 -4.92883,1.04369 -3.44985,-0.0253 -6.24873,-1.14162 -8.57971,-3.421834 l -1.4993,-1.46666 v 8.010954 c 0,6.88566 -0.0743,8.01095 -0.52917,8.01095 -0.46429,0 -0.52917,-2.50864 -0.52917,-20.461111 z m 14.57706,7.735671 c 4.37103,-1.21377 6.92816,-7.026454 6.49714,-14.768832 -0.32599,-5.855571 -2.16586,-9.611282 -5.60054,-11.432286 -1.74604,-0.925717 -2.12712,-0.992166 -4.94877,-0.862915 -2.63858,0.120865 -3.29051,0.284092 -4.7625,1.192431 -1.03133,0.636414 -2.26321,1.861647 -3.11655,3.099717 l -1.41111,2.047321 -0.10418,7.464587 -0.10418,7.464584 1.05546,1.658211 c 1.12164,1.762188 3.02592,3.223362 5.22162,4.006582 1.61749,0.57697 5.42023,0.64525 7.27361,0.1306 z m 23.59258,1.26114 c -2.47117,-0.69378 -3.05805,-1.0329 -5.11139,-2.953576 -2.96708,-2.775317 -4.48324,-6.727984 -4.48324,-11.687679 0,-5.158253 1.45545,-8.863016 4.6404,-11.811691 2.58505,-2.393326 4.74451,-3.185965 8.59483,-3.154786 7.71779,0.06249 12.62204,5.877669 12.62204,14.966477 0,6.90053 -2.61465,11.656889 -7.68368,13.977565 -2.35289,1.07719 -6.07928,1.36547 -8.57896,0.66369 z m 7.43268,-1.43858 c 6.21549,-2.117837 9.4699,-11.648301 6.59836,-19.323176 -1.73994,-4.650429 -5.19921,-7.294876 -9.89849,-7.566913 -5.037,-0.291589 -8.68123,1.88493 -10.98236,6.559239 -1.1352,2.305911 -1.15732,2.442139 -1.15732,7.128175 0,4.661457 0.0275,4.832776 1.12758,7.062974 1.38684,2.811078 3.64663,5.082949 5.95076,5.982571 2.17639,0.84974 6.11174,0.92369 8.36147,0.15713 z m 66.48136,1.6041 c -1.9861,-0.50103 -3.34793,-1.29795 -5.23589,-3.063904 -3.14544,-2.942184 -4.54222,-6.462243 -4.54222,-11.446848 0,-5.098447 1.39566,-8.969463 4.29023,-11.899526 2.35038,-2.379155 4.79637,-3.375893 8.23338,-3.355058 6.43752,0.03902 10.62055,4.067986 11.02953,10.623321 l 0.18242,2.924129 h -11.20539 -11.20535 l 0.15018,3.086805 c 0.18083,3.717181 1.30347,6.503599 3.56997,8.860825 2.19568,2.283526 4.41621,3.214156 7.67919,3.218366 3.23335,0.004 5.70375,-0.68094 7.71885,-2.140665 0.9609,-0.696055 1.63107,-0.970128 1.84623,-0.75499 0.49865,0.498662 -2.0108,2.430925 -4.24201,3.266305 -2.19548,0.82199 -6.35332,1.16454 -8.26912,0.68124 z m 12.43913,-19.481081 c -0.0138,-3.281641 -2.06294,-6.53646 -5.10752,-8.112379 -1.71411,-0.887243 -5.72414,-1.219104 -7.83449,-0.648363 -1.9667,0.531897 -4.2478,2.305085 -5.65446,4.395442 -1.042,1.548433 -1.35774,2.374882 -2.00463,5.247245 l -0.21847,0.970139 h 10.41364 10.41369 z m 34.12754,19.481081 c -1.9861,-0.50103 -3.34793,-1.29795 -5.23589,-3.063904 -3.14544,-2.942184 -4.54222,-6.462243 -4.54222,-11.446848 0,-5.098447 1.39566,-8.969463 4.29023,-11.899526 2.35038,-2.379155 4.79637,-3.375893 8.23338,-3.355058 6.43752,0.03902 10.62055,4.067986 11.02953,10.623321 l 0.18242,2.924129 h -11.20539 -11.20535 l 0.15018,3.086805 c 0.18083,3.717181 1.30347,6.503599 3.56997,8.860825 2.19568,2.283526 4.41621,3.214156 7.67919,3.218366 3.23335,0.004 5.70375,-0.68094 7.71885,-2.140665 0.9609,-0.696055 1.63107,-0.970128 1.84623,-0.75499 0.49865,0.498662 -2.0108,2.430925 -4.24201,3.266305 -2.19548,0.82199 -6.35332,1.16454 -8.26912,0.68124 z m 12.43913,-19.481081 c -0.0138,-3.281641 -2.06294,-6.53646 -5.10752,-8.112379 -1.71411,-0.887243 -5.72414,-1.219104 -7.83449,-0.648363 -1.9667,0.531897 -4.2478,2.305085 -5.65446,4.395442 -1.042,1.548433 -1.35774,2.374882 -2.00463,5.247245 l -0.21847,0.970139 h 10.41364 10.41369 z m 15.46147,19.350301 c -0.9108,-0.2452 -1.94268,-0.66276 -2.29305,-0.92792 -4.0681,-3.078657 -5.75233,-7.01728 -5.75233,-13.452052 0,-9.86457 4.0137,-15.290401 11.28889,-15.260599 3.81367,0.01563 6.73298,1.420492 8.90764,4.286638 l 0.97014,1.278626 v -9.411455 c 0,-9.176269 0.0176,-9.411455 0.70555,-9.411455 0.69783,0 0.70556,0.235186 0.70556,21.519444 0,21.284253 -0.008,21.519443 -0.70556,21.519443 -0.6332,0 -0.70555,-0.23519 -0.70555,-2.29305 v -2.29306 l -1.39647,1.396474 c -1.68593,1.685926 -3.44389,2.616886 -5.94103,3.146176 -2.33052,0.49397 -3.6716,0.47143 -5.78379,-0.0972 z m 7.0085,-1.4452 c 1.94264,-0.57689 4.75205,-2.803284 5.59544,-4.434225 0.4058,-0.784726 0.51735,-2.577454 0.51735,-8.314895 0,-8.473242 -0.19519,-9.200867 -3.19098,-11.89434 -1.96413,-1.765896 -3.73881,-2.349651 -7.10759,-2.337921 -4.80702,0.01672 -7.77413,2.906913 -9.10933,8.873077 -0.62766,2.804788 -0.3024,10.213833 0.5394,12.285842 1.78714,4.399005 4.44271,6.350002 8.64316,6.350002 1.28489,0 3.13553,-0.23739 4.11255,-0.52754 z m 39.04237,1.59175 c -2.14224,-0.45377 -4.32597,-1.6456 -6.03027,-3.291224 l -1.49931,-1.44767 v 2.366504 c 0,1.86838 -0.11137,2.36651 -0.52917,2.36651 -0.46457,0 -0.52916,-2.62623 -0.52916,-21.519443 0,-18.893211 0.0646,-21.519444 0.52916,-21.519444 0.45706,0 0.52917,1.274918 0.52917,9.3576 v 9.357599 l 2.02847,-2.069782 c 2.46648,-2.516695 4.67336,-3.408701 8.37848,-3.386529 5.08296,0.03041 8.54297,2.988963 10.27955,8.789723 0.96033,3.207843 0.89186,9.797587 -0.13561,13.052777 -1.03487,3.278636 -2.9157,5.707949 -5.3915,6.963759 -2.15043,1.09076 -5.23522,1.48683 -7.62981,0.97962 z m 5.98915,-1.44243 c 4.36492,-1.21208 6.95406,-7.117597 6.47806,-14.775676 -0.37084,-5.966223 -2.28653,-9.821682 -5.71317,-11.498177 -1.76089,-0.861519 -2.23075,-0.937624 -4.91822,-0.796569 -3.74978,0.196815 -5.68977,1.268966 -7.7779,4.298537 l -1.41111,2.047321 -0.10418,7.464587 -0.10417,7.464584 1.05544,1.658211 c 1.12166,1.762188 3.02595,3.223362 5.22164,4.006582 1.61749,0.57697 5.42022,0.64525 7.27361,0.1306 z M 395.28446,88.282637 c -2.29782,-7.906632 -4.24632,-14.574132 -4.33,-14.816666 -0.0895,-0.259514 0.14757,-0.440973 0.57623,-0.440973 0.81834,0 0.46708,-1.028791 4.75802,13.934722 1.44663,5.044722 2.83224,10.092281 3.07911,11.216795 0.24691,1.124518 0.55259,2.108655 0.67935,2.186985 0.12672,0.0783 2.19025,-6.040796 4.58562,-13.598047 3.57155,-11.26805 4.46754,-13.740455 4.97945,-13.740455 0.65995,0 0.76744,0.309115 6.68705,19.226389 1.39647,4.462639 2.59415,8.176303 2.66157,8.252573 0.1633,0.18478 0.0977,0.41164 7.61132,-26.332434 0.22997,-0.818554 0.53015,-1.146528 1.04934,-1.146528 0.61609,0 0.69024,0.147342 0.48521,0.964269 -0.17826,0.710276 -5.84419,20.171967 -8.16674,28.051703 -0.10008,0.33955 -0.47911,0.61736 -0.84226,0.61736 -0.55552,0 -1.27878,-1.89564 -4.55655,-11.942334 -2.14291,-6.568285 -4.08566,-12.763175 -4.31725,-13.76643 -0.23157,-1.003254 -0.53411,-1.70139 -0.67229,-1.551414 -0.13822,0.149973 -0.51838,1.22518 -0.84484,2.389346 -0.32646,1.164167 -2.25643,7.236354 -4.28882,13.49375 -3.02366,9.309362 -3.80979,11.377082 -4.32545,11.377082 -0.52641,0 -1.31822,-2.36736 -4.80807,-14.375693 z m 68.97112,-0.440972 c 0,-12.766216 0.0714,-14.816667 0.51594,-14.816667 0.4082,0 0.53711,0.681214 0.61736,3.263195 l 0.10143,3.263194 0.76821,-1.435174 c 0.9011,-1.683473 3.25402,-3.907599 4.82698,-4.562754 2.5968,-1.081584 6.22286,-1.077256 6.22286,0.0074 0,0.405314 -0.49431,0.523219 -2.20486,0.525893 -4.03747,0.0063 -6.76455,1.885223 -8.69943,5.993775 -0.9084,1.928908 -0.91443,2.000744 -1.02584,12.259028 -0.0942,8.667965 -0.19293,10.318755 -0.61736,10.318755 -0.4305,0 -0.50529,-2.19293 -0.50529,-14.816672 z"
         id="path477" /></g></g></svg>
